<?xml version="1.0" standalone="no"?>
<!DOCTYPE svg PUBLIC "-//W3C//DTD SVG 1.1//EN" "http://www.w3.org/Graphics/SVG/1.1/DTD/svg11.dtd" >
<svg xmlns="http://www.w3.org/2000/svg" xmlns:xlink="http://www.w3.org/1999/xlink" version="1.1">
<metadata>
Created by FontForge 20170731 at Thu Oct 22 03:17:57 2020
 By Aleksey,,,
Copyright (c) 2020 YoonDesign Inc. All rights reserved.
</metadata>
<defs>
<font id="Hallym-Medium" horiz-adv-x="940" >
  <font-face 
    font-family="Hallym Medium"
    font-weight="500"
    font-stretch="normal"
    units-per-em="1000"
    panose-1="2 11 6 3 0 0 0 0 0 0"
    ascent="800"
    descent="-200"
    x-height="570"
    cap-height="770"
    bbox="-9 -286 2071 989"
    underline-thickness="50"
    underline-position="-150"
    unicode-range="U+000D-FFE6"
  />
<missing-glyph horiz-adv-x="900" 
d="M100 -85l318 409l-318 409v-818zM768 -126l-318 409l-318 -409h636zM800 -85v818l-318 -409zM768 774h-636l318 -409zM50 824h800v-1000h-800v1000z" />
    <glyph glyph-name=".notdef" horiz-adv-x="900" 
d="M100 -85l318 409l-318 409v-818zM768 -126l-318 409l-318 -409h636zM800 -85v818l-318 -409zM768 774h-636l318 -409zM50 824h800v-1000h-800v1000z" />
    <glyph glyph-name=".null" horiz-adv-x="0" 
 />
    <glyph glyph-name="nonmarkingreturn" unicode="&#xd;" horiz-adv-x="0" 
 />
    <glyph glyph-name="NULL" horiz-adv-x="0" 
 />
    <glyph glyph-name="NULL" horiz-adv-x="0" 
 />
    <glyph glyph-name="cid1" unicode=" " horiz-adv-x="260" 
 />
    <glyph glyph-name="cid1" unicode="&#xa0;" horiz-adv-x="260" 
 />
    <glyph glyph-name="cid2" unicode="!" horiz-adv-x="339" 
d="M114 570v200h111v-200l-13 -352h-86zM94 58q0 31 21.5 52.5t53.5 21.5t54 -21.5t22 -52.5q0 -32 -22 -53t-54 -21t-53.5 21t-21.5 53z" />
    <glyph glyph-name="cid3" unicode="&#x22;" horiz-adv-x="530" 
d="M305 770h107l-8 -313h-92zM117 770h107l-8 -313h-91z" />
    <glyph glyph-name="cid4" unicode="#" horiz-adv-x="751" 
d="M428 192h-171l-33 -192h-105l33 192h-111v90h126l35 201h-121v90h136l34 197h105l-34 -197h171l34 197h105l-34 -197h112v-90h-127l-35 -201h122v-90h-137l-33 -192h-105zM272 282h171l35 201h-171z" />
    <glyph glyph-name="cid5" unicode="$" horiz-adv-x="647" 
d="M124 186q32 -38 76.5 -66t94.5 -35v269q-109 26 -166.5 81.5t-57.5 136.5q0 43 16.5 80t46 65t70.5 44.5t91 19.5v100h77v-103q58 -9 105 -33.5t84 -60.5l-64 -79q-29 26 -59.5 45.5t-65.5 28.5v-241q120 -30 174 -87.5t54 -142.5q0 -44 -15.5 -82t-45 -66.5t-72 -47
t-95.5 -23.5v-100h-77v100q-71 7 -134.5 38.5t-105.5 82.5zM488 206q0 41 -27 73t-89 54v-246q53 11 84.5 42t31.5 77zM189 579q0 -80 106 -119v223q-50 -6 -78 -34t-28 -70z" />
    <glyph glyph-name="cid6" unicode="%" horiz-adv-x="996" 
d="M642 770h107l-395 -770h-108zM50 584q0 39 15 74t42 61.5t63.5 42t80.5 15.5t81 -15.5t64 -42t42.5 -61.5t15.5 -74q0 -40 -15.5 -75.5t-42.5 -62t-64 -42t-81 -15.5t-80.5 15.5t-63.5 42t-42 62t-15 75.5zM151 584q0 -21 7 -40t20.5 -33.5t31.5 -23.5t41 -9t41.5 9
t32 23.5t20.5 33.5t7 40q0 20 -7 38.5t-20.5 33t-32 23.5t-41.5 9t-41 -9t-31.5 -23.5t-20.5 -33t-7 -38.5zM541 185q0 40 15 75t42 61.5t64 42t81 15.5t81 -15.5t64 -42t42 -61.5t15 -75q0 -39 -15 -74.5t-42 -61.5t-64 -41.5t-81 -15.5t-81 15.5t-64 41.5t-42 61.5
t-15 74.5zM643 185q0 -20 7 -38.5t20.5 -33t31.5 -23.5t41 -9t41.5 9t32 23.5t20.5 33t7 38.5t-7 39t-20.5 33.5t-32 23.5t-41.5 9t-41 -9t-31.5 -23.5t-20.5 -33.5t-7 -39z" />
    <glyph glyph-name="cid7" unicode="&#x26;" horiz-adv-x="806" 
d="M562 77q-45 -42 -104 -66t-131 -24q-57 0 -105 17t-82.5 46t-54 69t-19.5 86q0 71 39 125t105 96q-47 50 -67 88.5t-20 82.5q0 40 16.5 73.5t45 58.5t66.5 39t82 14q80 0 135.5 -36.5t78.5 -98.5l-96 -38q-14 39 -45 62t-73 23q-46 0 -75 -28.5t-29 -67.5q0 -17 6 -33.5
t18.5 -35t32.5 -40t49 -49.5l215 -211q20 38 32.5 81t17.5 89l102 -15q-6 -63 -25 -121.5t-51 -108.5l158 -154h-143zM327 79q48 0 88.5 18.5t74.5 51.5l-213 210q-50 -32 -77 -69t-27 -78q0 -28 11.5 -52t32 -42t48.5 -28.5t62 -10.5z" />
    <glyph glyph-name="cid8" unicode="'" horiz-adv-x="343" 
d="M117 770h108l-8 -313h-92z" />
    <glyph glyph-name="cid9" unicode="(" horiz-adv-x="459" 
d="M129 335q0 73 14.5 144t41 136.5t64.5 124t85 106.5l75 -56q-40 -45 -71.5 -98t-53 -111.5t-33 -120.5t-11.5 -125t11.5 -125t33 -120.5t53 -111.5t71.5 -98l-75 -57q-47 48 -85 107t-64.5 124.5t-41 136.5t-14.5 144z" />
    <glyph glyph-name="cid10" unicode=")" horiz-adv-x="459" 
d="M329 335q0 -73 -14.5 -144t-41 -136.5t-64.5 -124.5t-85 -107l-76 57q40 45 71.5 98t53 111.5t33 120.5t11.5 125t-11.5 125t-33 120.5t-53 111.5t-71.5 98l76 56q47 -48 85 -106.5t64.5 -124t41 -136.5t14.5 -144z" />
    <glyph glyph-name="cid11" unicode="*" horiz-adv-x="610" 
d="M116 527l147 -91l-5 173h93l-5 -173l147 91l46 -81l-152 -82l152 -81l-46 -81l-147 90l5 -172h-93l5 172l-147 -90l-46 81l152 81l-152 82z" />
    <glyph glyph-name="cid12" unicode="+" horiz-adv-x="632" 
d="M369 318v-204h-108v204h-197v93h197v204h108v-204h197v-93h-197z" />
    <glyph glyph-name="cid13" unicode="," horiz-adv-x="326" 
d="M88 58q0 31 21.5 52.5t53.5 21.5q34 0 54 -23t20 -62q0 -61 -28.5 -117t-94.5 -104l-42 46q35 26 57 54.5t27 57.5q-32 5 -50 26.5t-18 47.5z" />
    <glyph glyph-name="cid14" unicode="-" horiz-adv-x="444" 
d="M64 314v101h315v-101h-315z" />
    <glyph glyph-name="cid15" unicode="." horiz-adv-x="326" 
d="M88 58q0 31 21.5 52.5t53.5 21.5t53 -21.5t21 -52.5q0 -32 -21 -53t-53 -21t-53.5 21t-21.5 53z" />
    <glyph glyph-name="cid16" unicode="/" horiz-adv-x="507" 
d="M122 -154h-114l377 978h113z" />
    <glyph glyph-name="cid17" unicode="0" horiz-adv-x="614" 
d="M44 385q0 84 16 156.5t49 126t82 84t115 30.5t115 -30.5t82 -84t49 -126t16 -156.5t-16 -157t-49 -126.5t-82 -84t-115 -30.5t-115 30.5t-82 84t-49 126.5t-16 157zM154 385q0 -66 9 -120.5t27.5 -94.5t47 -62t68.5 -22t69 22t47.5 62t27.5 94.5t9 120.5q0 65 -9 120
t-27.5 94.5t-47.5 61.5t-69 22t-68.5 -22t-47 -61.5t-27.5 -94.5t-9 -120z" />
    <glyph glyph-name="cid18" unicode="1" horiz-adv-x="514" 
d="M351 770v-770h-109v661l-145 -79l-45 80l200 108h99z" />
    <glyph glyph-name="cid19" unicode="2" horiz-adv-x="614" 
d="M225 94h326v-94h-469v89l274 303q45 49 64.5 88t19.5 81q0 56 -37.5 91t-96.5 35q-51 0 -88 -30t-55 -84l-93 38q11 37 32.5 68.5t51.5 54t68.5 35.5t84.5 13q52 0 96 -15.5t76 -44t50.5 -69t18.5 -89.5q0 -61 -26.5 -116.5t-79.5 -113.5z" />
    <glyph glyph-name="cid20" unicode="3" horiz-adv-x="614" 
d="M436 227q0 31 -12.5 58t-35 46.5t-55 30.5t-71.5 11h-81v92h82q62 0 100 32t38 81q0 24 -10 44t-27 35t-41 23t-51 8q-43 0 -77 -19.5t-60 -49.5l-66 67q38 46 90.5 71.5t120.5 25.5q49 0 91 -15.5t72.5 -42.5t47.5 -64t17 -79q0 -53 -32 -96t-82 -64q33 -12 60.5 -31.5
t47.5 -45t31.5 -56.5t11.5 -66q0 -50 -20.5 -93t-56.5 -75t-84.5 -50t-104.5 -18q-76 0 -139 33t-101 91l71 67q29 -44 71.5 -70.5t96.5 -26.5q34 0 63 11t50 30.5t33 46.5t12 58z" />
    <glyph glyph-name="cid21" unicode="4" horiz-adv-x="614" 
d="M22 251l349 519h107v-517h91v-99h-91v-154h-108v154h-348v97zM370 252v344l-231 -344h231z" />
    <glyph glyph-name="cid22" unicode="5" horiz-adv-x="614" 
d="M102 362v408h424v-97h-322v-215q22 14 49.5 22t58.5 8q52 0 96.5 -18t77 -52t50.5 -81.5t18 -105.5q0 -47 -18.5 -91t-52 -78t-82 -54.5t-108.5 -20.5q-84 0 -141.5 30t-103.5 88l73 67q35 -45 75.5 -68t88.5 -23q33 0 62.5 11.5t51 31.5t34 47.5t12.5 60.5q0 78 -47 122
t-123 44q-39 0 -75 -15t-64 -40z" />
    <glyph glyph-name="cid23" unicode="6" horiz-adv-x="614" 
d="M263 480l1 -1q11 5 24 8.5t28 3.5q51 0 97.5 -18t82 -51t57 -79t21.5 -102t-22 -102.5t-59 -80t-85.5 -52.5t-101.5 -19q-54 0 -102.5 19t-85.5 52.5t-59 80t-22 102.5q0 32 9.5 68t28.5 65l254 396h123zM465 241q0 34 -12.5 63t-34 50.5t-51 33.5t-62.5 12t-62 -12
t-51 -33.5t-34.5 -50.5t-12.5 -63t12.5 -63.5t34.5 -51t51 -33.5t62 -12t62.5 12t51 33.5t34 51t12.5 63.5z" />
    <glyph glyph-name="cid24" unicode="7" horiz-adv-x="614" 
d="M546 770v-92l-285 -678h-122l284 673h-351v97h474z" />
    <glyph glyph-name="cid25" unicode="8" horiz-adv-x="614" 
d="M306 -13q-56 0 -104 18t-83.5 50t-56 75.5t-20.5 94.5q0 68 37.5 121t104.5 76q-45 20 -74 63.5t-29 94.5q0 42 16.5 79t46.5 64.5t71.5 43.5t90.5 16t90.5 -16t71.5 -43.5t47 -64.5t17 -79q0 -51 -29 -94.5t-75 -63.5q68 -23 105 -76t37 -121q0 -51 -20.5 -94.5
t-56 -75.5t-83.5 -50t-104 -18zM306 373q-33 0 -61.5 -11.5t-49.5 -31.5t-33 -46.5t-12 -56.5t12 -57t33 -47t49.5 -31.5t61.5 -11.5t61.5 11.5t49.5 31.5t33 47t12 57t-12 56.5t-33 46.5t-49.5 31.5t-61.5 11.5zM306 464q26 0 48 9t38.5 24.5t25.5 36t9 43.5t-9 43.5
t-25.5 35.5t-38.5 24t-48 9t-47.5 -9t-38 -24t-25.5 -35.5t-9 -43.5t9 -43.5t25.5 -36t38 -24.5t47.5 -9z" />
    <glyph glyph-name="cid26" unicode="9" horiz-adv-x="614" 
d="M350 289q0 1 -1 1q-22 -11 -52 -11q-51 0 -97.5 18t-82 50.5t-57 78.5t-21.5 103q0 55 22 102t59 80.5t85 52.5t101 19q54 0 103 -19t86 -52.5t59 -80.5t22 -102q0 -34 -10 -69t-28 -64l-254 -396h-123zM148 529q0 -34 12.5 -63t34 -50.5t50.5 -34t62 -12.5t62.5 12.5
t51.5 34t34.5 50.5t12.5 63t-12.5 63t-34.5 50.5t-51.5 34t-62.5 12.5t-62 -12.5t-50.5 -34t-34 -50.5t-12.5 -63z" />
    <glyph glyph-name="cid27" unicode=":" horiz-adv-x="326" 
d="M88 58q0 31 21.5 52.5t53.5 21.5t53 -21.5t21 -52.5q0 -32 -21 -53t-53 -21t-53.5 21t-21.5 53zM88 509q0 31 21.5 52.5t53.5 21.5t53 -21.5t21 -52.5q0 -32 -21 -53t-53 -21t-53.5 21t-21.5 53z" />
    <glyph glyph-name="cid28" unicode=";" horiz-adv-x="326" 
d="M88 509q0 31 21.5 52.5t53.5 21.5t53 -21.5t21 -52.5q0 -32 -21 -53t-53 -21t-53.5 21t-21.5 53zM88 58q0 31 21.5 52.5t53.5 21.5q34 0 54 -23t20 -62q0 -61 -28.5 -117t-94.5 -104l-42 46q35 26 57 54.5t27 57.5q-32 5 -50 26.5t-18 47.5z" />
    <glyph glyph-name="cid29" unicode="&#x3c;" horiz-adv-x="632" 
d="M547 58q-120 67 -238.5 134t-238.5 135v75q120 67 238.5 134t238.5 135v-121l-341 -186q85 -45 171 -92t170 -93v-121z" />
    <glyph glyph-name="cid30" unicode="=" horiz-adv-x="632" 
d="M64 443v93h502v-93h-502zM64 193v93h502v-93h-502z" />
    <glyph glyph-name="cid31" unicode="&#x3e;" horiz-adv-x="632" 
d="M561 327l-478 -269v121l341 185l-341 186v121l478 -269v-75z" />
    <glyph glyph-name="cid32" unicode="?" horiz-adv-x="601" 
d="M205 260q0 31 4.5 55t16 44t31.5 39t51 39q30 20 51.5 37t35 33.5t20 33.5t6.5 37q0 21 -9 40.5t-26.5 34.5t-44 23.5t-61.5 8.5q-50 0 -92.5 -17.5t-89.5 -55.5l-55 77q60 49 119.5 71.5t121.5 22.5q55 0 101 -15t79 -41.5t51.5 -62.5t18.5 -78q0 -34 -9 -62t-27.5 -54
t-48.5 -51t-72 -52q-35 -23 -48 -46t-13 -60v-40h-111v39zM189 58q0 30 21 50.5t51 20.5q31 0 52 -20.5t21 -50.5q0 -31 -21 -51t-52 -20q-30 0 -51 20t-21 51z" />
    <glyph glyph-name="cid33" unicode="@" horiz-adv-x="1056" 
d="M288 295q0 49 16.5 92t46 75t69 50.5t85.5 18.5q43 0 80.5 -17.5t66.5 -46.5v52h91v-309q0 -33 17 -51t44 -18q25 0 47 12.5t38.5 36t26.5 58t10 78.5q0 80 -31.5 149t-86 120t-127.5 80t-155 29q-83 0 -155.5 -31t-126.5 -85.5t-85 -128t-31 -157.5t31 -157.5t86 -127.5
t130 -85t163 -31q76 0 139.5 23t120.5 61l44 -73q-68 -42 -142.5 -66t-161.5 -24q-107 0 -198 36.5t-158 101t-105 152t-38 190.5t38.5 190.5t104.5 152t154.5 101t189.5 36.5q105 0 194.5 -34.5t155 -96t102.5 -145t37 -180.5q0 -62 -16.5 -111t-45.5 -83.5t-68 -53
t-85 -18.5q-45 0 -80 19.5t-52 60.5q-30 -37 -72 -58.5t-91 -21.5q-46 0 -85.5 18.5t-69 50.5t-46 74.5t-16.5 91.5zM380 295q0 -32 10.5 -59.5t28.5 -48.5t43 -33t54 -12t53.5 12t43 32t29 47.5t10.5 58.5v6q-1 31 -11.5 58.5t-28.5 47.5t-42.5 32t-53.5 12t-54 -12
t-43 -33t-28.5 -49t-10.5 -59z" />
    <glyph glyph-name="cid34" unicode="A" horiz-adv-x="750" 
d="M534 195h-320l-69 -195h-120l288 770h123l289 -770h-121zM248 290h253l-126 356z" />
    <glyph glyph-name="cid35" unicode="B" horiz-adv-x="677" 
d="M90 0v770h273q52 0 92.5 -14.5t69 -41.5t43.5 -64.5t15 -83.5q0 -60 -28 -100.5t-73 -57.5q30 -7 56 -23.5t46 -40.5t31.5 -55.5t11.5 -68.5q0 -49 -16.5 -89.5t-46.5 -69.5t-73 -45t-95 -16h-306zM473 559q0 56 -33 86t-85 30h-155v-231h155q52 0 85 30t33 85zM515 224
q0 59 -36 93.5t-95 34.5h-184v-258h184q59 0 95 35t36 95z" />
    <glyph glyph-name="cid36" unicode="C" horiz-adv-x="740" 
d="M438 84q59 0 111 22t94 56l59 -82q-53 -44 -121 -68.5t-143 -24.5q-84 0 -154.5 30.5t-120.5 84t-78 126.5t-28 157t28 156.5t78 126.5t120.5 84.5t154.5 30.5q73 0 137 -22.5t118 -64.5q-14 -20 -28 -41.5t-28 -41.5q-45 31 -92.5 51.5t-106.5 20.5t-108 -23.5
t-84.5 -64t-55.5 -95t-20 -117.5t20 -118t55.5 -95.5t84.5 -64t108 -23.5z" />
    <glyph glyph-name="cid37" unicode="D" horiz-adv-x="762" 
d="M343 770q86 0 154.5 -27.5t116 -77.5t73 -121t25.5 -159t-25.5 -159t-73 -121.5t-116 -77.5t-154.5 -27h-253v770h253zM201 672v-575h141q59 0 106.5 18.5t81 55t51.5 90t18 124.5q0 70 -18 123.5t-51.5 90t-81 55t-106.5 18.5h-141z" />
    <glyph glyph-name="cid38" unicode="E" horiz-adv-x="615" 
d="M90 770h458v-96h-347v-234h319v-96h-319v-249h356v-95h-467v770z" />
    <glyph glyph-name="cid39" unicode="F" horiz-adv-x="575" 
d="M90 770h447v-96h-336v-241h308v-96h-308v-337h-111v770z" />
    <glyph glyph-name="cid40" unicode="G" horiz-adv-x="793" 
d="M604 315h-205v94h316v-324q-52 -45 -122 -71.5t-148 -26.5q-84 0 -154.5 30.5t-122 84t-80 126.5t-28.5 157t28.5 156.5t80 126t122 84t154.5 30.5q73 0 137 -22t118 -64l-56 -84q-44 32 -92 52.5t-107 20.5q-60 0 -110 -23.5t-86 -64t-56 -95.5t-20 -118t20 -118
t56 -95.5t86 -64t110 -23.5q42 0 84.5 13t74.5 36v183z" />
    <glyph glyph-name="cid41" unicode="H" horiz-adv-x="754" 
d="M90 770h111v-330h352v330h111v-770h-111v343h-352v-343h-111v770z" />
    <glyph glyph-name="cid42" unicode="I" horiz-adv-x="321" 
d="M216 770v-770h-111v770h111z" />
    <glyph glyph-name="cid43" unicode="J" horiz-adv-x="508" 
d="M306 770h111v-533q0 -130 -61 -190t-176 -60q-40 0 -82 10t-73 27l34 94q24 -14 55.5 -24t60.5 -10q63 0 97 36.5t34 118.5v531z" />
    <glyph glyph-name="cid44" unicode="K" horiz-adv-x="692" 
d="M201 375l300 395h132l-247 -320l284 -450h-129l-225 360l-115 -150v-210h-111v770h111v-395z" />
    <glyph glyph-name="cid45" unicode="L" horiz-adv-x="562" 
d="M90 770h111v-674h341v-96h-452v770z" />
    <glyph glyph-name="cid46" unicode="M" horiz-adv-x="936" 
d="M423 140l-228 423v-563h-105v769h109l269 -510l269 510h109v-769h-106v563l-227 -423h-90z" />
    <glyph glyph-name="cid47" unicode="N" horiz-adv-x="767" 
d="M90 770h108l372 -582v582h107v-770h-108l-372 581v-581h-107v770z" />
    <glyph glyph-name="cid48" unicode="O" horiz-adv-x="861" 
d="M431 84q57 0 106 23.5t85 64t56 95.5t20 118t-20 117.5t-56 95t-85 64t-106 23.5q-58 0 -107 -23.5t-85 -64t-56 -95t-20 -117.5t20 -118t56 -95.5t85 -64t107 -23.5zM431 783q82 0 152 -30.5t120.5 -84.5t79 -126.5t28.5 -156.5t-28.5 -157t-79 -126.5t-120.5 -84
t-152 -30.5q-83 0 -153 30.5t-120.5 84t-79 126.5t-28.5 157t28.5 156.5t79 126.5t120.5 84.5t153 30.5z" />
    <glyph glyph-name="cid49" unicode="P" horiz-adv-x="647" 
d="M201 287v-287h-111v770h249q61 0 110.5 -17.5t84 -49t53 -76.5t18.5 -99t-18.5 -98.5t-53 -76t-84 -49t-110.5 -17.5h-138zM492 528q0 67 -41.5 107t-117.5 40h-132v-293h132q76 0 117.5 39.5t41.5 106.5z" />
    <glyph glyph-name="cid50" unicode="Q" horiz-adv-x="861" 
d="M431 783q82 0 152 -30.5t120.5 -84.5t79 -126.5t28.5 -156.5q0 -82 -27 -152.5t-75 -124.5l109 -117l-72 -65l-111 119q-44 -28 -95 -43t-109 -15q-83 0 -153 30.5t-120.5 84t-79 126.5t-28.5 157t28.5 156.5t79 126.5t120.5 84.5t153 30.5zM431 84q74 0 133 38l-133 144
l72 66l132 -144q29 40 46 90t17 107q0 63 -20 117.5t-56 95t-85 64t-106 23.5q-58 0 -107 -23.5t-85 -64t-56 -95t-20 -117.5t20 -118t56 -95.5t85 -64t107 -23.5z" />
    <glyph glyph-name="cid51" unicode="R" horiz-adv-x="665" 
d="M201 0h-111v770h249q61 0 110.5 -16t84 -46t53 -73t18.5 -97q0 -81 -39.5 -135.5t-110.5 -78.5l165 -324h-123q-38 77 -75 153t-75 154h-146v-307zM492 538q0 67 -41.5 102t-117.5 35h-132v-273h132q76 0 117.5 34.5t41.5 101.5z" />
    <glyph glyph-name="cid52" unicode="S" horiz-adv-x="655" 
d="M123 186q38 -43 90 -73t110 -30q73 0 119 33.5t46 89.5q0 50 -41.5 87t-138.5 58q-116 25 -176.5 81t-60.5 140q0 46 18 85t50.5 67t77.5 43.5t99 15.5q77 0 138 -26.5t106 -71.5l-64 -79q-37 34 -80 57t-94 23q-62 0 -100 -29.5t-38 -76.5q0 -99 171 -138
q129 -29 187 -88t58 -146q0 -48 -19 -89t-54.5 -70t-86 -45.5t-113.5 -16.5q-80 0 -152 33.5t-120 89.5z" />
    <glyph glyph-name="cid53" unicode="T" horiz-adv-x="597" 
d="M243 673h-213v97h537v-97h-212v-673h-112v673z" />
    <glyph glyph-name="cid54" unicode="U" horiz-adv-x="743" 
d="M652 266q0 -63 -21.5 -114.5t-59.5 -87.5t-89 -56t-110 -20t-110.5 20t-89.5 56t-60 87.5t-22 114.5v504h112v-513q0 -39 13 -71t35.5 -54.5t54 -34.5t67.5 -12t67 12t53.5 34.5t35.5 54.5t13 71v513h111v-504z" />
    <glyph glyph-name="cid55" unicode="V" horiz-adv-x="740" 
d="M370 138l231 632h119l-289 -770h-123l-288 770h119z" />
    <glyph glyph-name="cid56" unicode="W" horiz-adv-x="1035" 
d="M573 770l168 -609l158 609h116l-214 -770h-112l-171 616l-172 -616h-111l-215 770h117l158 -609l167 609h111z" />
    <glyph glyph-name="cid57" unicode="X" horiz-adv-x="699" 
d="M22 0l261 391l-250 379h122l194 -298l196 298h121l-249 -379l260 -391h-122l-206 311l-205 -311h-122z" />
    <glyph glyph-name="cid58" unicode="Y" horiz-adv-x="709" 
d="M355 421l209 349h120l-274 -456v-314h-111v314l-274 456h120z" />
    <glyph glyph-name="cid59" unicode="Z" horiz-adv-x="660" 
d="M454 673h-376v97h509v-94l-392 -580h403v-96h-536v93z" />
    <glyph glyph-name="cid60" unicode="[" horiz-adv-x="459" 
d="M125 824h306v-97h-194v-785h194v-96h-306v978z" />
    <glyph glyph-name="cid61" unicode="\" horiz-adv-x="941" 
d="M1 442h89l-83 328h118l73 -328h135l82 328h111l82 -328h134l74 328h117l-84 -328h91v-87h-112l-90 -355h-111l-90 355h-133l-90 -355h-111l-90 355h-112v87zM263 161l48 194h-94zM679 161l44 194h-93zM426 442h88l-44 174z" />
    <glyph glyph-name="cid62" unicode="]" horiz-adv-x="459" 
d="M333 -154h-307v96h195v785h-195v97h307v-978z" />
    <glyph glyph-name="cid63" unicode="^" horiz-adv-x="676" 
d="M393 770l225 -343h-120l-161 246l-160 -246h-120l225 343h111z" />
    <glyph glyph-name="cid64" unicode="_" horiz-adv-x="525" 
d="M-1 -106h525v-86h-525v86z" />
    <glyph glyph-name="cid65" unicode="`" horiz-adv-x="459" 
d="M327 616h-106l-154 187h109z" />
    <glyph glyph-name="cid66" unicode="a" horiz-adv-x="694" 
d="M511 73q-37 -40 -86.5 -63t-107.5 -23q-59 0 -108.5 23.5t-86 63.5t-57 94t-20.5 116q0 61 20.5 115.5t57 95t86 64t108.5 23.5q58 0 107.5 -23.5t86.5 -63.5v74h108v-569h-108v73zM154 284q0 -42 13.5 -78.5t37.5 -63.5t56.5 -43t71.5 -16q38 0 70.5 16t56.5 43
t37.5 63.5t13.5 78.5t-13.5 79t-37.5 64t-56.5 43t-70.5 16q-39 0 -71.5 -16t-56.5 -43t-37.5 -64t-13.5 -79z" />
    <glyph glyph-name="cid67" unicode="b" horiz-adv-x="694" 
d="M183 495q36 40 85.5 63.5t108.5 23.5q58 0 108 -23.5t86.5 -64t57 -95t20.5 -115.5q0 -62 -20.5 -116t-57 -94t-86.5 -63.5t-108 -23.5q-59 0 -108.5 23t-85.5 63v-73h-108v803h108v-308zM539 284q0 42 -13.5 79t-37.5 64t-56.5 43t-70.5 16t-70 -15t-55.5 -41.5
t-37.5 -62t-15 -75.5v-8q0 -42 13.5 -78.5t37 -63.5t56 -43t71.5 -16q38 0 70.5 16t56.5 43t37.5 63.5t13.5 78.5z" />
    <glyph glyph-name="cid68" unicode="c" horiz-adv-x="584" 
d="M333 -13q-64 0 -117 23.5t-91 64t-59 94.5t-21 116q0 61 21 115.5t59 94.5t91 63.5t117 23.5q62 0 113 -20.5t93 -55.5l-54 -83q-32 27 -69.5 45t-82.5 18q-40 0 -73 -16t-56.5 -43t-36.5 -63.5t-13 -78.5t13 -79t36.5 -64.5t56.5 -43.5t73 -16q45 0 84.5 20t70.5 49
l63 -78q-42 -40 -97 -63t-121 -23z" />
    <glyph glyph-name="cid69" unicode="d" horiz-adv-x="694" 
d="M511 73q-37 -40 -86.5 -63t-107.5 -23q-59 0 -108.5 23.5t-86 63.5t-57 94t-20.5 116q0 61 20.5 115.5t57 95t86 64t108.5 23.5q58 0 107.5 -23.5t86.5 -63.5v308h108v-803h-108v73zM154 284q0 -42 13.5 -78.5t37.5 -63.5t56.5 -43t71.5 -16q38 0 70.5 16t56.5 43
t37.5 63.5t13.5 78.5t-13.5 79t-37.5 64t-56.5 43t-70.5 16q-39 0 -71.5 -16t-56.5 -43t-37.5 -64t-13.5 -79z" />
    <glyph glyph-name="cid70" unicode="e" horiz-adv-x="654" 
d="M156 251q5 -42 22.5 -74.5t42 -54.5t55 -33t62.5 -11q48 0 91 21.5t76 59.5l71 -67q-48 -52 -105.5 -78.5t-130.5 -26.5q-67 0 -121.5 23t-93 63.5t-59.5 95t-21 116.5q0 61 21 115.5t59 94.5t90.5 63.5t115.5 23.5q62 0 113.5 -22.5t88 -61.5t56.5 -91t20 -111
q0 -20 -5 -45h-448zM331 490q-29 0 -56.5 -10.5t-51 -30.5t-40.5 -48.5t-24 -64.5h338q-6 34 -20.5 62t-35.5 48.5t-49 32t-61 11.5z" />
    <glyph glyph-name="cid71" unicode="f" horiz-adv-x="414" 
d="M387 706q-11 2 -25.5 2.5t-25.5 0.5q-58 0 -83 -27t-25 -81v-31h159v-95h-159v-475h-108v475h-96v95h96v32q0 101 50.5 150.5t156.5 49.5q15 0 32 -1.5t28 -3.5v-91z" />
    <glyph glyph-name="cid72" unicode="g" horiz-adv-x="694" 
d="M45 284q0 61 20.5 115.5t57 95t86 64t108.5 23.5q58 0 107.5 -23.5t86.5 -63.5v75h108v-551q0 -61 -19 -111.5t-56 -86.5t-91 -56t-123 -20q-79 0 -146 31t-114 82l68 71q35 -39 83 -65t107 -26q41 0 75 12t58 34.5t37 54.5t13 73v61q-37 -40 -86.5 -63t-107.5 -23
q-59 0 -108.5 23.5t-86 63.5t-57 94t-20.5 116zM154 284q0 -42 13.5 -78.5t37.5 -63.5t56.5 -43t71.5 -16q38 0 70.5 16t56.5 43t37.5 63.5t13.5 78.5v8q-2 40 -16 75.5t-37.5 62t-55.5 41.5t-69 15q-39 0 -71.5 -16t-56.5 -43t-37.5 -64t-13.5 -79z" />
    <glyph glyph-name="cid73" unicode="h" horiz-adv-x="666" 
d="M182 0h-107v803h107v-311q30 38 76 64t105 26q50 0 92 -17t72 -47.5t47 -73t17 -93.5v-351h-108v343q0 31 -10 57t-29 45t-45 30t-57 11q-30 0 -59 -13t-51.5 -35.5t-36 -53t-13.5 -64.5v-320z" />
    <glyph glyph-name="cid74" unicode="i" horiz-adv-x="309" 
d="M100 570h108v-570h-108v570zM85 726q0 29 20 49t49 20t49.5 -20t20.5 -49t-20.5 -48.5t-49.5 -19.5t-49 19.5t-20 48.5z" />
    <glyph glyph-name="cid75" unicode="j" horiz-adv-x="309" 
d="M85 726q0 29 20 49t49 20t49.5 -20t20.5 -49t-20.5 -48.5t-49.5 -19.5t-49 19.5t-20 48.5zM100 570h108v-643q0 -96 -43 -139t-128 -43q-11 0 -24.5 0.5t-21.5 1.5v93h32q38 0 57.5 20t19.5 68v642z" />
    <glyph glyph-name="cid76" unicode="k" horiz-adv-x="597" 
d="M184 305l234 265h131l-201 -225l241 -345h-126l-185 266l-94 -105v-161h-108v803h108v-498z" />
    <glyph glyph-name="cid77" unicode="l" horiz-adv-x="293" 
d="M92 803h108v-803h-108v803z" />
    <glyph glyph-name="cid78" unicode="m" horiz-adv-x="1005" 
d="M182 0h-107v569h107v-77q26 39 66 64.5t95 25.5q67 0 115 -30.5t74 -84.5l6 8q32 51 77 79t102 28q49 0 88.5 -17t67 -47.5t42.5 -73t15 -93.5v-351h-108v343q0 62 -32 102.5t-94 40.5q-29 0 -54 -12.5t-44 -34t-30 -50.5t-12 -62v-327h-108v343q0 62 -32 102.5t-94 40.5
q-30 0 -55.5 -13t-44 -35.5t-29.5 -53t-11 -64.5v-320z" />
    <glyph glyph-name="cid79" unicode="n" horiz-adv-x="667" 
d="M183 0h-108v570h108v-78q30 38 75.5 64t105.5 26q50 0 92 -17t72 -47.5t47 -73t17 -93.5v-351h-108v343q0 31 -10 57t-29 45t-45 30t-58 11q-30 0 -59 -13t-51 -35.5t-35.5 -53t-13.5 -64.5v-320z" />
    <glyph glyph-name="cid80" unicode="o" horiz-adv-x="667" 
d="M334 82q39 0 72 16t57 43.5t37 64.5t13 79t-13 78.5t-37 63.5t-57 43t-72 16q-40 0 -73 -16t-57 -43t-37 -63.5t-13 -78.5t13 -79t37 -64.5t57 -43.5t73 -16zM334 582q63 0 116 -23.5t91.5 -63.5t59.5 -94.5t21 -115.5q0 -62 -21 -116t-59.5 -94.5t-91.5 -64t-116 -23.5
q-64 0 -117 23.5t-91.5 64t-59.5 94.5t-21 116q0 61 21 115.5t59.5 94.5t91.5 63.5t117 23.5z" />
    <glyph glyph-name="cid81" unicode="p" horiz-adv-x="694" 
d="M183 495q36 40 85.5 63.5t108.5 23.5q58 0 108 -23.5t86.5 -64t57 -95t20.5 -115.5q0 -62 -20.5 -116t-57 -94t-86.5 -63.5t-108 -23.5q-59 0 -108.5 23t-85.5 63v-318h-108v816h108v-76zM539 284q0 42 -13.5 79t-37.5 64t-56.5 43t-70.5 16t-70 -15t-55.5 -41.5
t-37.5 -62t-15 -75.5v-8q0 -42 13.5 -78.5t37 -63.5t56 -43t71.5 -16q38 0 70.5 16t56.5 43t37.5 63.5t13.5 78.5z" />
    <glyph glyph-name="cid82" unicode="q" horiz-adv-x="694" 
d="M511 73q-37 -40 -86.5 -63t-107.5 -23q-59 0 -108.5 23.5t-86 63.5t-57 94t-20.5 116q0 61 20.5 115.5t57 95t86 64t108.5 23.5q58 0 107.5 -23.5t86.5 -63.5v76h108v-816h-108v318zM154 284q0 -42 13.5 -78.5t37.5 -63.5t56.5 -43t71.5 -16q38 0 70.5 16t56.5 43
t37.5 63.5t13.5 78.5t-13.5 79t-37.5 64t-56.5 43t-70.5 16q-39 0 -71.5 -16t-56.5 -43t-37.5 -64t-13.5 -79z" />
    <glyph glyph-name="cid83" unicode="r" horiz-adv-x="445" 
d="M403 467q-14 9 -30.5 13.5t-32.5 4.5q-30 0 -58 -13t-50.5 -35t-36 -52.5t-13.5 -64.5v-320h-107v570h107v-78q30 39 75.5 64.5t105.5 25.5q43 0 77 -19z" />
    <glyph glyph-name="cid84" unicode="s" horiz-adv-x="529" 
d="M105 153q28 -34 68.5 -55t88.5 -21q53 0 83 22t30 59q0 35 -29 57.5t-95 34.5q-184 37 -184 173q0 34 14 63t40 50.5t62 33.5t81 12q57 0 107.5 -22t85.5 -55l-55 -70q-30 25 -61.5 40.5t-68.5 15.5q-43 0 -71 -19t-28 -50q0 -29 29 -52.5t86 -34.5q94 -20 144 -65
t50 -114q0 -36 -14.5 -67t-41.5 -53.5t-66.5 -35.5t-89.5 -13q-69 0 -127 25.5t-96 68.5z" />
    <glyph glyph-name="cid85" unicode="t" horiz-adv-x="420" 
d="M231 184q0 -53 24.5 -78t81.5 -25q12 0 27 0.5t26 2.5v-92q-13 -3 -30 -4t-34 -1q-203 0 -203 194v294h-101v95h101v155h108v-155h153v-95h-153v-291z" />
    <glyph glyph-name="cid86" unicode="u" horiz-adv-x="667" 
d="M484 570h108v-570h-108v78q-30 -38 -75.5 -64.5t-105.5 -26.5q-50 0 -92 17t-72 47.5t-47 73.5t-17 94v351h108v-344q0 -30 10 -56.5t29 -45.5t45 -30t58 -11q30 0 59 13t51 35.5t35.5 52.5t13.5 65v321z" />
    <glyph glyph-name="cid87" unicode="v" horiz-adv-x="579" 
d="M564 570l-218 -570h-113l-218 570h113l162 -432l161 432h113z" />
    <glyph glyph-name="cid88" unicode="w" horiz-adv-x="860" 
d="M484 570l122 -427l127 427h112l-182 -570h-111l-123 425l-123 -425h-111l-182 570h113l125 -427l123 427h110z" />
    <glyph glyph-name="cid89" unicode="x" horiz-adv-x="576" 
d="M13 0l206 290l-191 280h119l141 -208l140 208h119l-191 -280l206 -290h-119l-155 219l-156 -219h-119z" />
    <glyph glyph-name="cid90" unicode="y" horiz-adv-x="582" 
d="M236 3l-221 567h114l162 -430l163 430h113l-319 -824h-113z" />
    <glyph glyph-name="cid91" unicode="z" horiz-adv-x="555" 
d="M52 91l308 384h-293v95h423v-92l-307 -384h318v-94h-449v91z" />
    <glyph glyph-name="cid92" unicode="{" horiz-adv-x="459" 
d="M79 383q51 1 80.5 27.5t29.5 74.5v166q0 36 14 68t39 55t59 36.5t74 13.5h59v-97h-48q-38 0 -61.5 -24.5t-23.5 -62.5v-173q0 -52 -25.5 -85t-73.5 -47q48 -14 73.5 -47t25.5 -86v-172q0 -38 23.5 -63t61.5 -25h48v-96h-59q-40 0 -74 13.5t-59 36.5t-39 55t-14 68v166
q0 47 -29.5 74t-80.5 28v96z" />
    <glyph glyph-name="cid93" unicode="|" horiz-adv-x="357" 
d="M127 824h103v-978h-103v978z" />
    <glyph glyph-name="cid94" unicode="}" horiz-adv-x="459" 
d="M379 287q-51 -1 -81 -28t-30 -74v-166q0 -36 -14 -68t-39 -55t-58.5 -36.5t-73.5 -13.5h-59v96h47q38 0 62 25t24 63v172q0 53 25 86t73 47q-48 14 -73 47t-25 85v173q0 38 -24 62.5t-62 24.5h-47v97h59q40 0 73.5 -13.5t58.5 -36.5t39 -55t14 -68v-166q0 -48 30 -74.5
t81 -27.5v-96z" />
    <glyph glyph-name="cid95" unicode="~" horiz-adv-x="632" 
d="M299 312q-22 21 -45 39.5t-48 18.5q-29 0 -46 -24.5t-25 -71.5l-102 25q14 79 54.5 123.5t106.5 44.5q40 0 75.5 -17.5t61.5 -42.5q22 -20 45.5 -39t47.5 -19q55 0 72 97l101 -25q-14 -80 -53.5 -124.5t-105.5 -44.5q-42 0 -77.5 17.5t-61.5 42.5z" />
    <glyph glyph-name="cid208" unicode="&#xa1;" horiz-adv-x="344" 
d="M126 353h86l13 -352v-200h-111v200zM94 513q0 32 21.5 53t53.5 21t54 -21t22 -53t-22 -53t-54 -21t-53.5 21t-21.5 53z" />
    <glyph glyph-name="cid143" unicode="&#xa2;" horiz-adv-x="579" 
d="M283 -10q-55 7 -99.5 33t-76.5 65.5t-49.5 89.5t-17.5 107q0 56 17.5 106t49.5 89t76.5 65t99.5 34v85h72v-83q53 -5 97.5 -24.5t81.5 -50.5l-54 -83q-27 23 -58 39.5t-67 21.5v-400q36 5 69 23.5t59 43.5l63 -78q-38 -36 -86 -57.5t-105 -26.5v-85h-72v86zM149 285
q0 -36 9.5 -68t27 -58t42 -44.5t55.5 -26.5v391q-62 -16 -98 -69.5t-36 -124.5z" />
    <glyph glyph-name="cid143" unicode="&#xffe0;" horiz-adv-x="579" 
d="M283 -10q-55 7 -99.5 33t-76.5 65.5t-49.5 89.5t-17.5 107q0 56 17.5 106t49.5 89t76.5 65t99.5 34v85h72v-83q53 -5 97.5 -24.5t81.5 -50.5l-54 -83q-27 23 -58 39.5t-67 21.5v-400q36 5 69 23.5t59 43.5l63 -78q-38 -36 -86 -57.5t-105 -26.5v-85h-72v86zM149 285
q0 -36 9.5 -68t27 -58t42 -44.5t55.5 -26.5v391q-62 -16 -98 -69.5t-36 -124.5z" />
    <glyph glyph-name="cid144" unicode="&#xa3;" horiz-adv-x="632" 
d="M75 307v87h73q-17 32 -32.5 77.5t-15.5 90.5q0 46 18.5 86.5t50.5 70.5t75 47t93 17q41 0 76.5 -11.5t64 -30.5t49 -45t31.5 -54l-98 -52q-17 42 -47.5 66.5t-75.5 24.5q-25 0 -46.5 -9.5t-37.5 -25.5t-25 -38.5t-9 -47.5q0 -41 17 -82.5t33 -83.5h200v-87h-183
q3 -21 3 -42q0 -51 -20.5 -92t-55.5 -71h360v-102h-495v98q44 29 69 72.5t25 94.5q0 11 -1 21t-3 21h-93z" />
    <glyph glyph-name="cid144" unicode="&#xffe1;" horiz-adv-x="632" 
d="M75 307v87h73q-17 32 -32.5 77.5t-15.5 90.5q0 46 18.5 86.5t50.5 70.5t75 47t93 17q41 0 76.5 -11.5t64 -30.5t49 -45t31.5 -54l-98 -52q-17 42 -47.5 66.5t-75.5 24.5q-25 0 -46.5 -9.5t-37.5 -25.5t-25 -38.5t-9 -47.5q0 -41 17 -82.5t33 -83.5h200v-87h-183
q3 -21 3 -42q0 -51 -20.5 -92t-55.5 -71h360v-102h-495v98q44 29 69 72.5t25 94.5q0 11 -1 21t-3 21h-93z" />
    <glyph glyph-name="cid214" unicode="&#xa4;" horiz-adv-x="690" 
d="M93 359q0 38 11.5 72.5t32.5 63.5l-99 100l69 68l104 -103q59 37 134 37q74 0 134 -37l103 103l69 -68l-99 -100q20 -29 32 -63.5t12 -72.5q0 -40 -12 -74.5t-32 -63.5l99 -100l-69 -68l-103 103q-60 -37 -134 -37q-75 0 -134 37l-104 -103l-69 68l99 100
q-21 29 -32.5 63.5t-11.5 74.5zM201 359q0 -30 11 -57t30.5 -46.5t46 -31t56.5 -11.5t56.5 11.5t46 31t30.5 46.5t11 57t-11 56t-30.5 45.5t-46 31t-56.5 11.5t-56.5 -11.5t-46 -31t-30.5 -45.5t-11 -56z" />
    <glyph glyph-name="cid145" unicode="&#xa5;" horiz-adv-x="710" 
d="M296 256v57l-7 12h-195v68h155l-225 377h126l205 -345l204 345h126l-225 -377h156v-68h-196l-7 -12v-57h203v-68h-203v-188h-117v188h-202v68h202z" />
    <glyph glyph-name="cid145" unicode="&#xffe5;" horiz-adv-x="710" 
d="M296 256v57l-7 12h-195v68h155l-225 377h126l205 -345l204 345h126l-225 -377h156v-68h-196l-7 -12v-57h203v-68h-203v-188h-117v188h-202v68h202z" />
    <glyph glyph-name="cid155" unicode="&#xa7;" horiz-adv-x="555" 
d="M521 312q0 -51 -30 -91t-82 -60q30 -23 49.5 -54.5t19.5 -73.5q0 -37 -16 -68.5t-43.5 -55t-65.5 -36.5t-82 -13q-37 0 -70.5 9.5t-60.5 27.5t-46 44t-26 59l100 23q8 -34 36 -53t67 -19q44 0 73 23.5t29 58.5q0 27 -17 46.5t-43 30.5l-137 60q-71 31 -107 79.5
t-36 105.5q0 51 30 90.5t82 59.5q-31 23 -49.5 55t-18.5 74q0 37 15.5 69t43.5 55t65.5 36.5t81.5 13.5q37 0 71 -10t61 -28.5t45.5 -44.5t25.5 -58l-100 -23q-8 33 -36 52.5t-67 19.5q-43 0 -72 -23.5t-29 -58.5q0 -28 17 -47t42 -30l138 -60q70 -30 106 -78.5t36 -106.5z
M245 453q-46 -2 -76.5 -29.5t-30.5 -68.5q0 -32 21.5 -59t65.5 -46l84 -36q46 2 77 29.5t31 68.5q0 32 -22 59t-66 46z" />
    <glyph glyph-name="cid107" unicode="&#xa8;" horiz-adv-x="420" 
d="M42 646q0 28 19 47t47 19t47 -19t19 -47t-19 -47t-47 -19t-47 19t-19 47zM246 646q0 28 19 47t47 19t47 -19t19 -47t-19 -47t-47 -19t-47 19t-19 47z" />
    <glyph glyph-name="cid98" unicode="&#xa9;" 
d="M72 359q0 83 31 155.5t85 126.5t126.5 85t155.5 31t155.5 -31t126.5 -85t85 -126.5t31 -155.5t-31 -155.5t-85 -126.5t-126.5 -85t-155.5 -31t-155.5 31t-126.5 85t-85 126.5t-31 155.5zM122 359q0 -74 27 -138t74 -111.5t110.5 -75t136.5 -27.5t136.5 27.5t110.5 75
t74 111.5t27 138q0 73 -27 137.5t-74 111.5t-110.5 74.5t-136.5 27.5t-136.5 -27.5t-110.5 -74.5t-74 -111.5t-27 -137.5zM481 144q-47 0 -85 17t-65.5 46t-42.5 68t-15 84t15 84t42.5 68t65.5 46t85 17q45 0 82 -14.5t67 -40.5l-39 -65q-23 20 -50.5 33t-59.5 13
q-27 0 -50 -10.5t-39.5 -29.5t-25.5 -45t-9 -56t9 -56t25.5 -44.5t39.5 -29.5t50 -11q32 0 60.5 14.5t51.5 35.5l45 -62q-30 -29 -69.5 -45.5t-87.5 -16.5z" />
    <glyph glyph-name="cid668" unicode="&#xaa;" horiz-adv-x="502" 
d="M39 570q0 43 14 81t39.5 66t60.5 44t76 16q74 0 122 -51v44h95v-400h-95v43q-48 -51 -122 -51q-41 0 -76 16t-60.5 44t-39.5 66t-14 82zM134 569q0 -25 8.5 -47.5t23 -39t34.5 -26t43 -9.5t42.5 9.5t34 26t23 38t8.5 46.5v4q0 25 -8.5 47t-23 38.5t-34 26t-42.5 9.5
t-43 -9.5t-34.5 -26.5t-23 -39.5t-8.5 -47.5z" />
    <glyph glyph-name="cid176" unicode="&#xab;" horiz-adv-x="758" 
d="M60 387l342 269v-112l-234 -191l234 -189v-113l-342 269v67zM350 387l342 269v-112l-234 -191l234 -189v-113l-342 269v67z" />
    <glyph glyph-name="cid176" unicode="&#x226a;" horiz-adv-x="758" 
d="M60 387l342 269v-112l-234 -191l234 -189v-113l-342 269v67zM350 387l342 269v-112l-234 -191l234 -189v-113l-342 269v67z" />
    <glyph glyph-name="cid194" unicode="&#xac;" 
d="M739 387h-725v99h835v-316h-110v217z" />
    <glyph glyph-name="cid194" unicode="&#xffe2;" 
d="M739 387h-725v99h835v-316h-110v217z" />
    <glyph glyph-name="cid109" unicode="&#xad;" horiz-adv-x="539" 
d="M58 308v86h415v-86h-415z" />
    <glyph glyph-name="cid109" unicode="&#x2013;" horiz-adv-x="539" 
d="M58 308v86h415v-86h-415z" />
    <glyph glyph-name="cid18352" unicode="&#xae;" 
d="M72 359q0 83 31 155.5t85 126.5t126.5 85t155.5 31t155.5 -31t126.5 -85t85 -126.5t31 -155.5t-31 -155.5t-85 -126.5t-126.5 -85t-155.5 -31t-155.5 31t-126.5 85t-85 126.5t-31 155.5zM122 359q0 -74 27 -138t74 -111.5t110.5 -75t136.5 -27.5t136.5 27.5t110.5 75
t74 111.5t27 138q0 73 -27 137.5t-74 111.5t-110.5 74.5t-136.5 27.5t-136.5 -27.5t-110.5 -74.5t-74 -111.5t-27 -137.5zM418 153h-83v420h151q33 0 60 -10t46.5 -28t30.5 -42.5t11 -53.5q0 -46 -25 -78.5t-67 -46.5l103 -161h-91l-95 150h-41v-150zM552 435q0 29 -20.5 47
t-52.5 18h-61v-130h61q32 0 52.5 18t20.5 47z" />
    <glyph glyph-name="cid138" unicode="&#xb0;" horiz-adv-x="400" 
d="M137 577q0 -26 17.5 -44.5t45.5 -18.5q27 0 45 18.5t18 44.5q0 27 -18 45t-45 18q-28 0 -45.5 -18t-17.5 -45zM63 577q0 28 10.5 52t29 42t43.5 28t54 10t54 -10t43.5 -28t29 -42t10.5 -52t-10.5 -52t-29 -42t-43.5 -28t-54 -10t-54 10t-43.5 28t-29 42t-10.5 52z" />
    <glyph glyph-name="cid130" unicode="&#xb1;" horiz-adv-x="633" 
d="M260 365h-195v97h195v196h112v-196h196v-97h-196v-197h-112v197zM65 0v97h503v-97h-503z" />
    <glyph glyph-name="cid843" unicode="&#xb2;" horiz-adv-x="443" 
d="M188 336h191v-82h-319v75l176 193q27 29 38.5 52t11.5 48q0 31 -19.5 50.5t-51.5 19.5q-56 0 -80 -70l-85 32q16 55 59 88t107 33q36 0 66.5 -10.5t53 -30t35.5 -47t13 -61.5q0 -42 -17.5 -78t-54.5 -76z" />
    <glyph glyph-name="cid844" unicode="&#xb3;" horiz-adv-x="443" 
d="M61 704q28 33 65.5 52t85.5 19q36 0 65.5 -11t50.5 -30t32.5 -44.5t11.5 -54.5q0 -33 -21 -61t-50 -43q41 -18 67.5 -50t26.5 -76q0 -35 -13.5 -65t-38 -51.5t-58 -34t-73.5 -12.5q-54 0 -98.5 23.5t-71.5 64.5l63 57q19 -29 44.5 -45.5t59.5 -16.5q38 0 63 23.5t25 59.5
q0 37 -27.5 59t-72.5 22h-56v79h57q35 0 56 18.5t21 45.5q0 24 -20 42.5t-51 18.5q-26 0 -46 -13.5t-37 -32.5z" />
    <glyph glyph-name="cid199" unicode="&#xb4;" horiz-adv-x="460" 
d="M277 803h115l-153 -186h-110z" />
    <glyph glyph-name="cid244" unicode="&#xb6;" horiz-adv-x="647" 
d="M282 299q-51 0 -95.5 18t-77 50t-51.5 74.5t-19 92.5t19 93.5t51.5 75.5t77 50t95.5 18h279v-917h-92v828h-62v-828h-92v445h-33z" />
    <glyph glyph-name="cid104" unicode="&#xb7;" horiz-adv-x="524" 
d="M187 334q0 32 21.5 53t53.5 21t53 -21t21 -53t-21 -53t-53 -21t-53.5 21t-21.5 53z" />
    <glyph glyph-name="cid104" unicode="&#x30fb;" horiz-adv-x="524" 
d="M187 334q0 32 21.5 53t53.5 21t53 -21t21 -53t-21 -53t-53 -21t-53.5 21t-21.5 53z" />
    <glyph glyph-name="cid206" unicode="&#xb8;" horiz-adv-x="460" 
d="M200 -117q-16 0 -29 -3l-20 22l49 98h83q-9 -16 -18.5 -31.5t-18.5 -32.5q48 -9 75.5 -39t27.5 -68q0 -25 -11 -46t-30 -36.5t-45.5 -24t-56.5 -8.5q-61 0 -103 33l35 52q13 -10 29.5 -15.5t32.5 -5.5q29 0 47 15t18 37q0 21 -18 37t-47 16z" />
    <glyph glyph-name="cid842" unicode="&#xb9;" horiz-adv-x="443" 
d="M300 764v-510h-98v413l-86 -46l-38 70l136 73h86z" />
    <glyph glyph-name="cid675" unicode="&#xba;" horiz-adv-x="502" 
d="M39 570q0 43 16 81.5t44.5 66.5t67.5 44.5t84 16.5t83.5 -16.5t67 -44.5t44.5 -66.5t16 -81.5q0 -44 -16 -82t-44.5 -66.5t-67 -44.5t-83.5 -16t-84 16t-67.5 44.5t-44.5 66.5t-16 82zM134 570q0 -26 8.5 -49t24 -39.5t37 -26t47.5 -9.5q25 0 46.5 9.5t36.5 26t23.5 39.5
t8.5 49t-8.5 48t-23.5 38.5t-36.5 26t-46.5 9.5q-52 0 -84.5 -35t-32.5 -87z" />
    <glyph glyph-name="cid177" unicode="&#xbb;" horiz-adv-x="758" 
d="M697 320l-342 -269v113l234 189l-234 191v112l342 -269v-67zM407 320l-342 -269v113l234 189l-234 191v112l342 -269v-67z" />
    <glyph glyph-name="cid177" unicode="&#x226b;" horiz-adv-x="758" 
d="M697 320l-342 -269v113l234 189l-234 191v112l342 -269v-67zM407 320l-342 -269v113l234 189l-234 191v112l342 -269v-67z" />
    <glyph glyph-name="cid751" unicode="&#xbc;" 
d="M253 764v-510h-98v413l-86 -46l-38 70l136 73h86zM617 770h83l-375 -770h-83zM535 179l226 336h93v-331h56v-84h-56v-96h-96v96h-223v79zM758 183v186l-124 -186h124z" />
    <glyph glyph-name="cid748" unicode="&#xbd;" 
d="M722 87h191v-82h-319v75l176 192q27 30 38.5 53t11.5 47q0 32 -19.5 51t-51.5 19q-57 0 -80 -69l-85 31q16 56 59 89t107 33q36 0 66.5 -10.5t53 -30t35.5 -47.5t13 -62q0 -43 -17.5 -78t-54.5 -75zM247 764v-510h-99v413l-86 -46l-38 70l137 73h86zM596 770h83
l-375 -770h-83z" />
    <glyph glyph-name="cid752" unicode="&#xbe;" 
d="M535 179l226 336h93v-331h56v-84h-56v-96h-96v96h-223v79zM758 183v186l-124 -186h124zM643 770h83l-375 -770h-83zM43 705q27 33 64.5 52t85.5 19q36 0 65.5 -11t50.5 -30t32.5 -44.5t11.5 -54.5q0 -33 -20.5 -61t-49.5 -43q41 -18 67.5 -50t26.5 -76q0 -35 -13.5 -65
t-38 -51.5t-58.5 -34t-74 -12.5q-54 0 -98 23.5t-71 64.5l62 57q19 -29 45 -45.5t59 -16.5q38 0 63.5 23.5t25.5 59.5q0 37 -27 59t-74 22h-56v79h57q35 0 56 18.5t21 45.5q0 25 -20 43t-51 18q-26 0 -46 -13.5t-36 -32.5z" />
    <glyph glyph-name="cid209" unicode="&#xbf;" horiz-adv-x="608" 
d="M401 310q0 -31 -4.5 -55t-16 -44.5t-31.5 -39t-51 -39.5q-30 -20 -51.5 -37t-35 -33.5t-20 -33.5t-6.5 -36q0 -22 9 -41.5t26.5 -34t44 -23t61.5 -8.5q50 0 92.5 17t89.5 56l55 -77q-60 -50 -119.5 -72t-121.5 -22q-55 0 -101 15t-79 41.5t-51.5 62.5t-18.5 78q0 33 9 61
t27.5 54.5t48.5 51.5t72 52q35 23 48 45.5t13 60.5v40h111v-39zM417 512q0 -30 -21 -50.5t-51 -20.5q-31 0 -52 20.5t-21 50.5t21 50.5t52 20.5q30 0 51 -20.5t21 -50.5z" />
    <glyph glyph-name="cid666" unicode="&#xc6;" horiz-adv-x="1019" 
d="M10 0l438 770h499v-100h-335v-234h308v-99h-308v-237h345v-100h-460v192h-251l-106 -192h-130zM497 642l-199 -353h199v353z" />
    <glyph glyph-name="cid667" unicode="&#xd0;" horiz-adv-x="760" 
d="M341 770q86 0 154.5 -27.5t116 -77.5t73 -121t25.5 -159t-25.5 -159t-73 -121.5t-116 -77.5t-154.5 -27h-253v343h-73v83h73v344h253zM199 672v-246h192v-83h-192v-246h140q59 0 106.5 18.5t81.5 55t52 90t18 124.5q0 70 -18 123.5t-52 90t-81.5 55t-106.5 18.5h-140z
" />
    <glyph glyph-name="cid131" unicode="&#xd7;" horiz-adv-x="633" 
d="M556 528l-165 -166l165 -166l-75 -75l-165 166l-165 -166l-74 75l164 166l-164 166l74 75l165 -166l165 166z" />
    <glyph glyph-name="cid673" unicode="&#xd8;" horiz-adv-x="861" 
d="M50 385q0 84 28.5 156.5t79 126.5t120.5 84.5t153 30.5q58 0 109.5 -16t96.5 -45l61 81h99l-99 -130q54 -54 83.5 -128t29.5 -160q0 -84 -28.5 -157t-79 -126.5t-120.5 -84t-152 -30.5q-119 0 -208 60l-61 -80h-99l98 129q-53 54 -82 127.5t-29 161.5zM698 385
q0 58 -17.5 109t-48.5 90l-346 -454q30 -22 66.5 -34t78.5 -12q57 0 106 23.5t85 64t56 95.5t20 118zM163 385q0 -59 17 -109.5t48 -90.5l346 454q-30 22 -66.5 34t-76.5 12q-58 0 -107 -23.5t-85 -64t-56 -95t-20 -117.5z" />
    <glyph glyph-name="cid676" unicode="&#xde;" horiz-adv-x="647" 
d="M207 142v-142h-117v770h117v-143h135q61 0 110.5 -17.5t84 -49t53 -76.5t18.5 -99q0 -55 -18.5 -99.5t-53 -76.5t-84 -49.5t-110.5 -17.5h-135zM491 385q0 66 -41 105t-115 39h-128v-289h128q74 0 115 39.5t41 105.5z" />
    <glyph glyph-name="cid768" unicode="&#xdf;" horiz-adv-x="670" 
d="M83 563q0 49 17.5 89.5t48 69.5t72.5 45t91 16q48 0 89.5 -15.5t72 -42.5t48 -63t17.5 -77q0 -29 -9.5 -55t-27 -48t-41.5 -39t-52 -27q46 -7 85 -25.5t67.5 -46t44.5 -63.5t16 -78q0 -46 -19 -85.5t-52.5 -68.5t-79.5 -45.5t-100 -16.5q-35 0 -69 8.5t-60 23.5l26 98
q20 -14 46.5 -23t52.5 -9q29 0 54.5 9.5t44 25.5t29 38t10.5 48q0 67 -58.5 110.5t-164.5 45.5v95q30 2 56.5 11.5t45.5 25.5t30 37t11 47q0 22 -9 41.5t-24 33.5t-35.5 22.5t-44.5 8.5q-50 0 -82.5 -33t-32.5 -85v-566h-114v563z" />
    <glyph glyph-name="cid757" unicode="&#xe6;" horiz-adv-x="1110" 
d="M506 75q-37 -41 -86.5 -64.5t-107.5 -23.5q-59 0 -108.5 23.5t-86 63.5t-57 94t-20.5 116q0 61 20.5 115.5t57 95t86 64t108.5 23.5q58 0 107.5 -24t86.5 -65v76h108v-71q33 39 81 61.5t110 22.5q58 0 107 -22.5t84 -61.5t54.5 -91t19.5 -111q0 -20 -5 -45h-448
q5 -42 22 -74.5t41.5 -54t55.5 -33t63 -11.5q48 0 91 21.5t76 59.5l71 -67q-48 -52 -103 -78.5t-121 -26.5t-115.5 22.5t-83.5 62.5v-72h-108v75zM149 284q0 -42 13.5 -78.5t37.5 -63.5t56.5 -43t71.5 -16q38 0 70.5 16t56.5 43t37.5 63.5t13.5 78.5t-13.5 79t-37.5 64
t-56.5 43t-70.5 16q-39 0 -71.5 -16t-56.5 -43t-37.5 -64t-13.5 -79zM792 490q-29 0 -56.5 -10.5t-51 -30.5t-40.5 -48.5t-24 -64.5h338q-6 34 -20.5 62t-35.5 48.5t-49 32t-61 11.5z" />
    <glyph glyph-name="cid759" unicode="&#xf0;" horiz-adv-x="664" 
d="M133 629l130 61q-23 17 -48 30.5t-52 26.5l50 71q38 -16 75.5 -37t72.5 -44l121 58l31 -63l-90 -43q95 -83 147 -191.5t52 -229.5q0 -59 -22 -110.5t-61 -89.5t-92.5 -59.5t-116.5 -21.5q-62 0 -115.5 21.5t-92.5 59t-61.5 88t-22.5 109.5q0 58 22.5 108.5t60.5 87.5
t88.5 58t106.5 21q43 0 82.5 -15.5t65.5 -44.5q-25 48 -57.5 89t-77.5 76l-165 -78zM152 267q0 -38 13.5 -71t37.5 -57t56.5 -38t71.5 -14t72 14t57 38t37.5 57t13.5 71t-13.5 71t-37.5 57.5t-57 38.5t-72 14t-71.5 -14t-56.5 -38.5t-37.5 -57.5t-13.5 -71z" />
    <glyph glyph-name="cid132" unicode="&#xf7;" horiz-adv-x="633" 
d="M65 315v98h503v-98h-503zM243 576q0 31 20.5 52t52.5 21t52.5 -21t20.5 -52t-20.5 -52t-52.5 -21t-52.5 21t-20.5 52zM243 153q0 31 20.5 52t52.5 21t52.5 -21t20.5 -52t-20.5 -51.5t-52.5 -20.5t-52.5 20.5t-20.5 51.5z" />
    <glyph glyph-name="cid766" unicode="&#xf8;" horiz-adv-x="657" 
d="M40 285q0 61 21 115.5t59.5 94.5t91.5 63.5t117 23.5q42 0 80 -11t70 -31l49 63h94l-85 -109q38 -41 59 -94.5t21 -114.5q0 -62 -21 -116t-59.5 -94.5t-91.5 -64t-116 -23.5q-44 0 -82 10.5t-70 30.5l-48 -61h-95l84 109q-38 41 -58 94t-20 115zM508 285q0 35 -10 66
t-27 57l-233 -300q20 -12 42.5 -19t48.5 -7q39 0 72 16t57 43.5t37 64.5t13 79zM149 285q0 -73 35 -123l233 298q-38 26 -88 26q-40 0 -73 -16t-57 -43t-37 -63.5t-13 -78.5z" />
    <glyph glyph-name="cid769" unicode="&#xfe;" horiz-adv-x="697" 
d="M183 499q36 39 86 61.5t109 22.5q61 0 113 -23.5t90 -64t59 -95t21 -115.5t-21 -115.5t-59 -95t-90 -64t-113 -23.5q-59 0 -109 22t-86 61v-326h-106v1059h106v-304zM553 285q0 42 -14 78.5t-39.5 64.5t-60.5 44t-77 16q-34 0 -63.5 -11.5t-52.5 -31t-39.5 -46.5
t-23.5 -58v-110q7 -32 23 -59t39 -47t52.5 -31.5t64.5 -11.5q42 0 77 16t60.5 43.5t39.5 64.5t14 79z" />
    <glyph glyph-name="cid758" unicode="&#x111;" horiz-adv-x="689" 
d="M300 716h206v87h108v-87h64v-73h-64v-643h-108v75q-37 -41 -86.5 -64.5t-107.5 -23.5q-59 0 -108.5 23.5t-86 63.5t-57 94t-20.5 116q0 61 20.5 115.5t57 95t86 64t108.5 23.5q58 0 107.5 -24t86.5 -65v150h-206v73zM149 284q0 -42 13.5 -78.5t37.5 -63.5t56.5 -43
t71.5 -16q38 0 70 15.5t56 42.5t37.5 63t14.5 77v7q-1 41 -14.5 77t-37.5 63t-56 42.5t-70 15.5q-39 0 -71.5 -16t-56.5 -43t-37.5 -64t-13.5 -79z" />
    <glyph glyph-name="cid669" unicode="&#x126;" horiz-adv-x="750" 
d="M88 574h-71v80h71v116h111v-116h351v116h112v-116h70v-80h-70v-574h-112v343h-351v-343h-111v574zM550 440v134h-351v-134h351z" />
    <glyph glyph-name="cid760" unicode="&#x127;" horiz-adv-x="666" 
d="M10 716h65v87h107v-87h205v-73h-205v-151q30 38 76 64t105 26q50 0 92 -17t72 -47.5t47 -73t17 -93.5v-351h-108v343q0 31 -10 57t-29 45t-45 30t-57 11q-30 0 -59 -13t-51.5 -35.5t-36 -53t-13.5 -64.5v-320h-107v643h-65v73z" />
    <glyph glyph-name="cid761" unicode="&#x131;" horiz-adv-x="309" 
d="M100 570h108v-570h-108v570z" />
    <glyph glyph-name="cid670" unicode="&#x132;" horiz-adv-x="807" 
d="M216 770v-770h-110v770h110zM611 770h110v-533q0 -129 -61 -189.5t-175 -60.5q-41 0 -83 10t-72 27l34 92q24 -14 55.5 -23.5t60.5 -9.5q63 0 97 37t34 118v532z" />
    <glyph glyph-name="cid762" unicode="&#x133;" horiz-adv-x="573" 
d="M97 570h106v-570h-106v570zM81 728q0 29 20 48.5t49 19.5t49 -19.5t20 -48.5t-20 -48.5t-49 -19.5t-49 19.5t-20 48.5zM353 728q0 29 20 48.5t49 19.5t49 -19.5t20 -48.5t-20 -48.5t-49 -19.5t-49 19.5t-20 48.5zM369 570h106v-644q0 -96 -42.5 -138.5t-127.5 -42.5
q-13 0 -25 0.5t-21 1.5v91h32q38 0 58 20t20 69v643z" />
    <glyph glyph-name="cid763" unicode="&#x138;" horiz-adv-x="597" 
d="M184 306l234 264h131l-202 -225l242 -345h-126l-187 265l-92 -104v-161h-108v570h108v-264z" />
    <glyph glyph-name="cid671" unicode="&#x13f;" horiz-adv-x="564" 
d="M88 770h110v-675h341v-95h-451v770zM339 416q0 28 19 47t48 19q28 0 47.5 -19t19.5 -47q0 -29 -19.5 -48t-47.5 -19q-29 0 -48 19t-19 48z" />
    <glyph glyph-name="cid764" unicode="&#x140;" horiz-adv-x="452" 
d="M92 803h106v-803h-106v803zM293 413q0 28 19 47.5t48 19.5q28 0 47.5 -19.5t19.5 -47.5q0 -29 -19.5 -48t-47.5 -19q-29 0 -48 19t-19 48z" />
    <glyph glyph-name="cid672" unicode="&#x141;" horiz-adv-x="573" 
d="M97 293l-70 -36v89l70 36v388h110v-332l217 111v-88l-217 -112v-254h341v-95h-451v293z" />
    <glyph glyph-name="cid765" unicode="&#x142;" horiz-adv-x="310" 
d="M101 349l-97 -48v83l97 49v370h107v-317l98 48v-83l-98 -49v-402h-107v349z" />
    <glyph glyph-name="cid772" unicode="&#x149;" horiz-adv-x="713" 
d="M232 0h-107v570h107v-78q30 38 76 64t105 26q50 0 92 -17t72 -47.5t47 -73t17 -93.5v-351h-108v343q0 31 -10 57t-29 45t-45 30t-57 11q-30 0 -59 -13t-51.5 -35.5t-36 -53t-13.5 -64.5v-320zM3 616q33 25 53.5 51.5t25.5 53.5q-30 5 -47 24.5t-17 44.5q0 29 20 49t50 20
q31 0 50 -21.5t19 -57.5q0 -57 -27 -109.5t-88 -97.5z" />
    <glyph glyph-name="cid678" unicode="&#x14a;" horiz-adv-x="762" 
d="M88 770h107l373 -584v584h106v-827q0 -98 -53 -148t-157 -50q-32 0 -57 5v92q11 -1 25 -1.5t26 -0.5q110 0 110 105v52l-374 587v-584h-106v770z" />
    <glyph glyph-name="cid771" unicode="&#x14b;" horiz-adv-x="665" 
d="M485 343q0 31 -10 57t-29 45t-45 30t-58 11q-30 0 -59 -13t-51 -35.5t-35.5 -53t-13.5 -64.5v-320h-108v570h108v-78q30 38 75.5 64t105.5 26q50 0 92 -17t72 -47.5t47 -73t17 -93.5v-409q0 -101 -47 -149t-144 -48q-14 0 -28.5 1t-24.5 2v92q9 -1 19 -1.5t21 -0.5
q51 0 73.5 26t22.5 80v399z" />
    <glyph glyph-name="cid674" unicode="&#x152;" horiz-adv-x="989" 
d="M464 101v567h-8q-63 0 -117.5 -21.5t-95 -60t-63.5 -90t-23 -111.5t23 -112t63.5 -90.5t95 -60t117.5 -21.5h8zM456 0q-87 0 -163 29.5t-132 81t-88.5 122t-32.5 152.5q0 81 32.5 151.5t88.5 122.5t132 81.5t163 29.5h459v-100h-335v-234h307v-99h-307v-236h345v-101
h-469z" />
    <glyph glyph-name="cid767" unicode="&#x153;" horiz-adv-x="1105" 
d="M40 285q0 61 21 115.5t59.5 94.5t91.5 63.5t117 23.5q76 0 136 -33t97 -89q38 56 97.5 89t135.5 33q62 0 113.5 -22.5t88 -61.5t56.5 -91t20 -111q0 -10 -1.5 -22t-4.5 -23h-448q5 -42 22.5 -74.5t42 -54t55 -33t62.5 -11.5q48 0 91 21.5t76 59.5l72 -67
q-48 -52 -105.5 -78.5t-131.5 -26.5q-80 0 -141.5 33t-99.5 89q-37 -57 -97 -89.5t-136 -32.5q-64 0 -117 23.5t-91.5 64t-59.5 94.5t-21 116zM149 285q0 -42 13 -79t37 -64.5t57 -43.5t73 -16q39 0 71.5 15.5t56 42.5t37 63.5t14.5 77.5v7q-1 41 -14.5 77t-37 63t-56 42.5
t-71.5 15.5q-40 0 -73 -16t-57 -43t-37 -63.5t-13 -78.5zM795 490q-29 0 -57 -10.5t-51.5 -30.5t-40.5 -48.5t-24 -64.5h339q-12 68 -56 111t-110 43z" />
    <glyph glyph-name="cid677" unicode="&#x166;" horiz-adv-x="602" 
d="M246 341h-145v82h145v251h-214v96h538v-96h-214v-251h145v-82h-145v-341h-110v341z" />
    <glyph glyph-name="cid770" unicode="&#x167;" horiz-adv-x="420" 
d="M30 333h94v143h-102v94h102v156l106 4v-160h153v-94h-153v-143h138v-73h-138v-76q0 -53 25 -78.5t83 -25.5q13 0 27.5 0.5t24.5 2.5v-91q-11 -2 -28.5 -3.5t-34.5 -1.5q-110 0 -156.5 51.5t-46.5 157.5v64h-94v73z" />
    <glyph glyph-name="cid201" unicode="&#x2c7;" horiz-adv-x="460" 
d="M270 616h-81l-160 185h110l91 -106l91 106h110z" />
    <glyph glyph-name="cid210" unicode="&#x2d0;" horiz-adv-x="356" 
d="M274 657l-100 -174l-99 174h199zM75 84l99 173l100 -173h-199z" />
    <glyph glyph-name="cid210" unicode="&#x2236;" horiz-adv-x="356" 
d="M274 657l-100 -174l-99 174h199zM75 84l99 173l100 -173h-199z" />
    <glyph glyph-name="cid202" unicode="&#x2d8;" horiz-adv-x="460" 
d="M230 620q-37 0 -69.5 12.5t-57.5 35t-40 54t-16 68.5h96q2 -38 25.5 -64t61.5 -26t61 26t24 64h98q-2 -37 -17 -68.5t-39.5 -54t-57.5 -35t-69 -12.5z" />
    <glyph glyph-name="cid205" unicode="&#x2d9;" horiz-adv-x="400" 
d="M274 695q0 -34 -21 -54t-54 -20q-35 0 -54.5 21.5t-19.5 52.5q0 30 19.5 51.5t54.5 21.5q32 0 53.5 -20t21.5 -53z" />
    <glyph glyph-name="cid204" unicode="&#x2da;" horiz-adv-x="395" 
d="M189 702q0 -18 11 -29.5t30 -11.5q17 0 29 10.5t12 30.5q0 17 -11.5 29t-29.5 12q-20 0 -30.5 -12.5t-10.5 -28.5zM343 702q0 -23 -9 -42t-24 -33t-35.5 -22t-44.5 -8q-48 0 -80.5 29.5t-32.5 75.5q0 22 8.5 41.5t23.5 33.5t36 22.5t45 8.5t45 -8.5t36 -22.5t23.5 -33.5
t8.5 -41.5z" />
    <glyph glyph-name="cid207" unicode="&#x2db;" horiz-adv-x="460" 
d="M305 0q-40 -33 -66.5 -64.5t-26.5 -63.5q0 -26 17 -41.5t41 -15.5q29 0 50 15l23 -57q-17 -12 -40.5 -18.5t-48.5 -6.5q-27 0 -50 8.5t-40 23.5t-26.5 35.5t-9.5 44.5q0 41 27.5 76t69.5 64h80z" />
    <glyph glyph-name="cid200" unicode="&#x2dc;" horiz-adv-x="632" 
d="M299 312q-22 21 -45 39.5t-48 18.5q-29 0 -46 -24.5t-25 -71.5l-102 25q14 79 54.5 123.5t106.5 44.5q40 0 75.5 -17.5t61.5 -42.5q22 -21 45.5 -39.5t47.5 -18.5q55 0 72 97l101 -25q-14 -80 -53.5 -124.5t-105.5 -44.5q-42 0 -77.5 17.5t-61.5 42.5z" />
    <glyph glyph-name="cid203" unicode="&#x2dd;" horiz-adv-x="457" 
d="M165 801h112l-150 -188h-106zM356 801h112l-149 -188h-106z" />
    <glyph glyph-name="cid471" unicode="&#x391;" horiz-adv-x="750" 
d="M535 195h-321l-69 -195h-120l288 770h123l289 -770h-121zM247 290h255l-127 356z" />
    <glyph glyph-name="cid472" unicode="&#x392;" horiz-adv-x="674" 
d="M88 0v770h273q52 0 92.5 -14.5t69 -41.5t43.5 -64.5t15 -83.5q0 -60 -28.5 -100.5t-73.5 -57.5q30 -7 56.5 -23.5t46 -40.5t31 -55.5t11.5 -68.5q0 -49 -16.5 -89.5t-46.5 -69.5t-73 -45t-95 -16h-305zM470 559q0 56 -32.5 86t-85.5 30h-154v-231h154q53 0 85.5 30
t32.5 85zM512 224q0 59 -36 93.5t-94 34.5h-184v-258h184q58 0 94 35t36 95z" />
    <glyph glyph-name="cid473" unicode="&#x393;" horiz-adv-x="568" 
d="M90 770h453v-95h-343v-675h-110v770z" />
    <glyph glyph-name="cid474" unicode="&#x394;" horiz-adv-x="750" 
d="M25 0l288 770h123l289 -770h-700zM375 646l-196 -549h391z" />
    <glyph glyph-name="cid475" unicode="&#x395;" horiz-adv-x="615" 
d="M90 770h458v-96h-347v-234h319v-96h-319v-249h356v-95h-467v770z" />
    <glyph glyph-name="cid476" unicode="&#x396;" horiz-adv-x="660" 
d="M454 673h-376v97h509v-94l-392 -580h403v-96h-536v93z" />
    <glyph glyph-name="cid477" unicode="&#x397;" horiz-adv-x="755" 
d="M90 770h111v-330h352v330h111v-770h-111v343h-352v-343h-111v770z" />
    <glyph glyph-name="cid478" unicode="&#x398;" horiz-adv-x="861" 
d="M273 433h314v-97h-314v97zM431 84q57 0 106 23.5t85 64t56 95.5t20 118t-20 117.5t-56 95t-85 64t-106 23.5q-58 0 -107 -23.5t-85 -64t-56 -95t-20 -117.5t20 -118t56 -95.5t85 -64t107 -23.5zM431 783q82 0 152 -30.5t120.5 -84.5t79 -126.5t28.5 -156.5t-28.5 -157
t-79 -126.5t-120.5 -84t-152 -30.5q-83 0 -153 30.5t-120.5 84t-79 126.5t-28.5 157t28.5 156.5t79 126.5t120.5 84.5t153 30.5z" />
    <glyph glyph-name="cid479" unicode="&#x399;" horiz-adv-x="321" 
d="M216 770v-770h-111v770h111z" />
    <glyph glyph-name="cid480" unicode="&#x39a;" horiz-adv-x="690" 
d="M198 374l301 396h132l-248 -321l284 -449h-128l-225 359l-116 -150v-209h-110v770h110v-396z" />
    <glyph glyph-name="cid481" unicode="&#x39b;" horiz-adv-x="750" 
d="M375 646l-230 -646h-120l288 770h123l289 -770h-121z" />
    <glyph glyph-name="cid482" unicode="&#x39c;" horiz-adv-x="931" 
d="M431 140l-238 428v-568h-105v769h109l269 -490l268 490h109v-769h-105v568l-237 -428h-70z" />
    <glyph glyph-name="cid483" unicode="&#x39d;" horiz-adv-x="762" 
d="M88 770h108l372 -582v582h106v-770h-108l-372 581v-581h-106v770z" />
    <glyph glyph-name="cid484" unicode="&#x39e;" horiz-adv-x="641" 
d="M72 770h497v-95h-497v95zM61 95h518v-95h-518v95zM101 339v94h433v-94h-433z" />
    <glyph glyph-name="cid485" unicode="&#x39f;" horiz-adv-x="861" 
d="M431 84q57 0 106 23.5t85 64t56 95.5t20 118t-20 117.5t-56 95t-85 64t-106 23.5q-58 0 -107 -23.5t-85 -64t-56 -95t-20 -117.5t20 -118t56 -95.5t85 -64t107 -23.5zM431 783q82 0 152 -30.5t120.5 -84.5t79 -126.5t28.5 -156.5t-28.5 -157t-79 -126.5t-120.5 -84
t-152 -30.5q-83 0 -153 30.5t-120.5 84t-79 126.5t-28.5 157t28.5 156.5t79 126.5t120.5 84.5t153 30.5z" />
    <glyph glyph-name="cid486" unicode="&#x3a0;" horiz-adv-x="739" 
d="M650 0h-110v675h-342v-675h-110v770h562v-770z" />
    <glyph glyph-name="cid487" unicode="&#x3a1;" horiz-adv-x="671" 
d="M199 287v-287h-111v770h249q61 0 110.5 -17.5t84 -49t53 -76.5t18.5 -99t-18.5 -98.5t-53 -76t-84 -49t-110.5 -17.5h-138zM490 528q0 67 -41.5 107t-117.5 40h-132v-293h132q76 0 117.5 39.5t41.5 106.5z" />
    <glyph glyph-name="cid488" unicode="&#x3a3;" horiz-adv-x="638" 
d="M293 386l-227 284v100h507v-95h-377l213 -264v-50l-214 -266h378v-95h-507v99z" />
    <glyph glyph-name="cid489" unicode="&#x3a4;" horiz-adv-x="597" 
d="M243 673h-213v97h537v-97h-212v-673h-112v673z" />
    <glyph glyph-name="cid490" unicode="&#x3a5;" horiz-adv-x="709" 
d="M355 421l209 349h120l-274 -456v-314h-111v314l-274 456h120z" />
    <glyph glyph-name="cid491" unicode="&#x3a6;" horiz-adv-x="836" 
d="M361 562q-44 0 -82 -14t-66 -38t-44 -56.5t-16 -69.5q0 -38 16 -70.5t44 -56.5t66 -38t82 -14v357zM361 0v106q-68 0 -126.5 21.5t-102.5 59t-69 88t-25 109.5q0 58 25 109t69 88.5t102.5 59t126.5 21.5v108h114v-108q67 0 126 -21.5t102.5 -59t68.5 -88.5t25 -109
q0 -59 -25 -109.5t-68.5 -88t-102.5 -59t-126 -21.5v-106h-114zM475 205q43 0 81 14t66 38t44 56.5t16 70.5q0 37 -16 69.5t-44 56.5t-66 38t-81 14v-357z" />
    <glyph glyph-name="cid492" unicode="&#x3a7;" horiz-adv-x="699" 
d="M22 0l261 391l-250 379h122l194 -298l196 298h121l-249 -379l260 -391h-122l-206 311l-205 -311h-122z" />
    <glyph glyph-name="cid493" unicode="&#x3a8;" horiz-adv-x="761" 
d="M436 284q30 7 56.5 24t46 41.5t31 56.5t11.5 70v294h110v-299q0 -57 -19 -106.5t-53 -88t-81 -64t-102 -34.5v-178h-111v178q-55 9 -102 34.5t-81 64t-53 88t-19 106.5v299h111v-294q0 -38 11 -70t30.5 -56.5t45.5 -41.5t57 -24v486h111v-486z" />
    <glyph glyph-name="cid494" unicode="&#x3a9;" horiz-adv-x="852" 
d="M687 404q0 59 -19.5 111t-54.5 90.5t-83 61t-105 22.5t-105 -22.5t-82.5 -61t-54 -90.5t-19.5 -111q0 -47 11 -91.5t34.5 -84t61 -74t91.5 -60.5v-94h-302v97h182q-99 61 -145 141.5t-46 175.5q0 78 28 145.5t78 118t118.5 79.5t149.5 29t150 -29t119.5 -79.5t78.5 -118
t28 -145.5q0 -95 -46.5 -175.5t-146.5 -141.5h183v-97h-302v94q53 26 90.5 60.5t61.5 74t35 84t11 91.5z" />
    <glyph glyph-name="cid495" unicode="&#x3b1;" horiz-adv-x="725" 
d="M40 284q0 61 20 115.5t56 95t85.5 64t108.5 23.5q58 0 108.5 -24t87.5 -66v77h108v-402q0 -32 17.5 -50t49.5 -18h28v-98q-8 -1 -19.5 -1h-23.5q-66 0 -102.5 20.5t-47.5 65.5q-38 -48 -91 -73.5t-114 -25.5q-59 0 -108.5 23.5t-85.5 64t-56.5 94.5t-20.5 115zM150 284
q0 -42 13.5 -78.5t37.5 -63.5t56.5 -43t70.5 -16q39 0 71.5 16t56 43t37 63.5t13.5 78.5t-13.5 79t-37 64t-56 43t-71.5 16q-38 0 -70.5 -16t-56.5 -43t-37.5 -64t-13.5 -79z" />
    <glyph glyph-name="cid496" unicode="&#x3b2;" horiz-adv-x="661" 
d="M85 571q0 46 17.5 84.5t49 67t73.5 44.5t92 16q49 0 91.5 -15.5t73.5 -43t48.5 -64.5t17.5 -79q0 -53 -38.5 -96.5t-101.5 -63.5q42 -7 80 -25t66.5 -45.5t45 -63.5t16.5 -78q0 -48 -18 -88.5t-50 -70t-75 -46.5t-93 -17q-60 0 -110 25.5t-75 68.5v-338h-110v828z
M195 255q0 -18 1 -35.5t3 -34.5q22 -49 61 -77t92 -28q32 0 59.5 10.5t48 28.5t32 43t11.5 54q0 69 -56 108.5t-155 40.5v91q72 2 108.5 37t36.5 83q0 24 -9.5 45.5t-25.5 37t-38.5 24.5t-47.5 9q-54 0 -87.5 -37t-33.5 -95v-305z" />
    <glyph glyph-name="cid497" unicode="&#x3b3;" horiz-adv-x="583" 
d="M238 -1l-220 570h112l163 -437l162 437h112l-221 -570v-256h-108v256z" />
    <glyph glyph-name="cid498" unicode="&#x3b4;" horiz-adv-x="619" 
d="M39 243q0 56 21.5 101t57.5 77t83.5 50t100.5 21l-189 190v88h388v-95h-259l259 -259q33 -33 52 -79.5t19 -93.5q0 -56 -21.5 -102.5t-58 -81t-85 -53.5t-103.5 -19q-54 0 -102 19t-84 53.5t-57.5 81t-21.5 102.5zM148 243q0 -35 12 -64.5t33 -51.5t50 -34.5t63 -12.5
t62.5 12.5t49.5 34.5t33 51.5t12 64.5q0 34 -12 64t-33 52t-49.5 34.5t-62.5 12.5t-63 -12.5t-50 -34.5t-33 -52t-12 -64z" />
    <glyph glyph-name="cid499" unicode="&#x3b5;" horiz-adv-x="524" 
d="M270 74q47 0 83 17.5t62 49.5l74 -57q-33 -47 -88.5 -72t-129.5 -25q-49 0 -91.5 13t-73.5 36.5t-48.5 55t-17.5 67.5q0 27 10.5 50.5t28 42.5t41 33t49.5 21q-51 17 -78.5 50.5t-27.5 72.5q0 32 15.5 60t43 48.5t65 32.5t81.5 12q69 0 119.5 -26.5t76.5 -71.5l-85 -50
q-15 29 -44 44.5t-66 15.5q-42 0 -71 -20.5t-29 -52.5t28.5 -53t71.5 -21h84v-85h-81q-26 0 -48.5 -7.5t-39.5 -20t-27 -30t-10 -37.5t9.5 -37t26 -29.5t39 -19.5t48.5 -7z" />
    <glyph glyph-name="cid500" unicode="&#x3b6;" horiz-adv-x="515" 
d="M40 201q0 58 29.5 108.5t70.5 99.5l219 266h-264v95h387v-90q-10 -13 -30 -37.5t-45.5 -55.5t-53.5 -65.5t-53.5 -65.5t-45.5 -56t-30 -38q-31 -39 -53 -78t-22 -81q0 -44 26 -75.5t72 -52.5l130 -60q48 -23 76 -58.5t28 -81.5q0 -38 -14.5 -71t-34.5 -61h-104
q20 26 32 56.5t12 59.5q0 27 -20 50t-49 37l-117 52q-69 31 -107.5 82.5t-38.5 120.5z" />
    <glyph glyph-name="cid501" unicode="&#x3b7;" horiz-adv-x="665" 
d="M184 0h-108v570h108v-78q30 38 75.5 64t105.5 26q50 0 92 -17t72 -47.5t47 -73t17 -93.5v-608h-108v600q0 31 -10 57t-29 45t-45 30t-58 11q-30 0 -59 -13t-51 -35.5t-35.5 -53t-13.5 -64.5v-320z" />
    <glyph glyph-name="cid502" unicode="&#x3b8;" horiz-adv-x="701" 
d="M40 385q0 82 23 154.5t64 126.5t98.5 85.5t126.5 31.5t126.5 -31.5t98.5 -85.5t64 -126.5t23 -154.5t-23 -154.5t-64 -126.5t-98.5 -85.5t-126.5 -31.5t-126.5 31.5t-98.5 85.5t-64 126.5t-23 154.5zM352 689q-41 0 -75.5 -20t-61 -55.5t-43 -82.5t-21.5 -101h401
q-5 54 -21 101t-42.5 82.5t-61 55.5t-75.5 20zM352 80q41 0 75.5 20t61 55.5t42.5 83t21 101.5h-401q5 -54 21.5 -101.5t43 -83t61 -55.5t75.5 -20z" />
    <glyph glyph-name="cid503" unicode="&#x3b9;" horiz-adv-x="311" 
d="M93 569h108v-410q0 -65 63 -65h21v-93q-8 -1 -19 -1h-23q-77 0 -113.5 33.5t-36.5 96.5v439z" />
    <glyph glyph-name="cid504" unicode="&#x3ba;" horiz-adv-x="573" 
d="M184 306l234 264h131l-202 -225l242 -345h-126l-187 265l-92 -104v-161h-108v570h108v-264z" />
    <glyph glyph-name="cid505" unicode="&#x3bb;" horiz-adv-x="582" 
d="M141 804h112l313 -804h-112l-162 423l-162 -423h-112l220 560z" />
    <glyph glyph-name="cid506" unicode="&#x3bc;" horiz-adv-x="665" 
d="M76 -255v824h108v-343q0 -30 10 -56.5t29 -45.5t45 -30t58 -11q30 0 59 13t51 35.5t35.5 52.5t13.5 65v321h108v-570h-108v78q-30 -38 -75.5 -64t-105.5 -26q-35 0 -65 8.5t-55 24.5v-276h-108z" />
    <glyph glyph-name="cid507" unicode="&#x3bd;" horiz-adv-x="578" 
d="M564 570l-218 -570h-113l-219 570h114l161 -432l162 432h113z" />
    <glyph glyph-name="cid508" unicode="&#x3be;" horiz-adv-x="521" 
d="M153 205q0 -105 116 -148l99 -36q55 -20 87 -57.5t32 -86.5q0 -39 -14.5 -73t-34.5 -61h-106q22 26 35 56t13 59q0 26 -19 48.5t-53 35.5l-93 34q-41 15 -72.5 38t-53 52t-33 62.5t-11.5 69.5q0 37 12 71t34 63t52.5 51t67.5 35q-61 24 -96.5 70.5t-35.5 103.5
q0 40 16.5 75t46 61t69 40.5t85.5 14.5q57 0 102 -20t76 -56l-67 -71q-21 26 -48 42.5t-62 16.5q-24 0 -44.5 -9t-35.5 -24.5t-23.5 -36.5t-8.5 -46q0 -50 32.5 -83.5t82.5 -33.5h116v-88h-96q-35 0 -65.5 -13t-53 -35.5t-35.5 -53.5t-13 -67z" />
    <glyph glyph-name="cid509" unicode="&#x3bf;" horiz-adv-x="657" 
d="M329 82q39 0 72 16t57 43.5t37 64.5t13 79t-13 78.5t-37 63.5t-57 43t-72 16q-40 0 -73 -16t-57 -43t-37 -63.5t-13 -78.5t13 -79t37 -64.5t57 -43.5t73 -16zM329 582q63 0 116 -23.5t91.5 -63.5t59.5 -94.5t21 -115.5q0 -62 -21 -116t-59.5 -94.5t-91.5 -64t-116 -23.5
q-64 0 -117 23.5t-91.5 64t-59.5 94.5t-21 116q0 61 21 115.5t59.5 94.5t91.5 63.5t117 23.5z" />
    <glyph glyph-name="cid510" unicode="&#x3c0;" horiz-adv-x="631" 
d="M226 0h-107v473h-91v96h577v-96h-91v-473h-108v473h-180v-473z" />
    <glyph glyph-name="cid511" unicode="&#x3c1;" horiz-adv-x="693" 
d="M178 214q22 -61 67.5 -96.5t108.5 -35.5q41 0 75.5 15.5t59 42.5t38.5 64t14 80q0 42 -13 79t-36.5 64.5t-57 43t-74.5 15.5t-74.5 -15.5t-57.5 -43t-37 -64.5t-13 -79v-70zM370 -13q-62 0 -108.5 26.5t-83.5 72.5v-343h-107v541q0 62 21 116.5t59 95t91.5 63.5t118.5 23
q64 0 117.5 -23t91 -63.5t58.5 -95t21 -116.5t-20.5 -116t-57.5 -94t-88.5 -63.5t-112.5 -23.5z" />
    <glyph glyph-name="cid512" unicode="&#x3c3;" horiz-adv-x="686" 
d="M667 569v-96h-157q48 -35 77 -89t29 -117q0 -57 -21.5 -108t-59.5 -89.5t-91 -60.5t-117 -22q-63 0 -116.5 22.5t-92.5 61.5t-60.5 92t-21.5 114t21.5 114.5t60.5 93t92.5 62t116.5 22.5h340zM144 277q0 -41 13.5 -77t37.5 -62t57.5 -41t74.5 -15q40 0 74 15t58 41
t37.5 62t13.5 77t-13.5 77t-37.5 62.5t-58 41.5t-74 15q-41 0 -74.5 -15t-57.5 -41.5t-37.5 -62.5t-13.5 -77z" />
    <glyph glyph-name="cid513" unicode="&#x3c4;" horiz-adv-x="536" 
d="M209 473h-183v96h486v-96h-195v-294q0 -48 19.5 -67.5t58.5 -19.5h28v-93q-9 -1 -20.5 -1h-23.5q-89 0 -129.5 41t-40.5 134v300z" />
    <glyph glyph-name="cid514" unicode="&#x3c5;" horiz-adv-x="631" 
d="M315 -13q-53 0 -98.5 18t-78.5 50t-52 74.5t-19 92.5v348h108v-347q0 -30 11 -56t29.5 -44.5t44 -29.5t55.5 -11q29 0 54.5 11t44.5 29.5t30 44.5t11 56v347h107v-348q0 -50 -18.5 -92.5t-51.5 -74.5t-78.5 -50t-98.5 -18z" />
    <glyph glyph-name="cid515" unicode="&#x3c6;" horiz-adv-x="764" 
d="M219 448q-34 -31 -54 -73t-20 -90q0 -40 14.5 -75t39.5 -62t59.5 -44t74.5 -21v501h81q67 0 124.5 -23t99.5 -63.5t66 -95t24 -117.5q0 -60 -22 -112.5t-61 -92t-92.5 -64t-116.5 -28.5v-246h-103v246q-63 4 -117 28t-93 64t-61 92.5t-22 112.5q0 73 29.5 132t77.5 99z
M623 285q0 39 -14.5 74t-39.5 62t-59 44t-74 22v-404q40 4 74 21t59 44t39.5 62t14.5 75z" />
    <glyph glyph-name="cid516" unicode="&#x3c7;" horiz-adv-x="574" 
d="M450 -257l-162 321l-162 -321h-116l214 423l-203 403h116l151 -302l151 302h116l-203 -403l214 -423h-116z" />
    <glyph glyph-name="cid517" unicode="&#x3c8;" horiz-adv-x="754" 
d="M431 88q33 7 61 24.5t48.5 42t31.5 55.5t11 66v293h105v-299q0 -54 -19.5 -101t-54 -84t-81.5 -61.5t-102 -32.5v-248h-104v248q-56 8 -103 32.5t-81.5 61.5t-54 84t-19.5 101v299h104v-293q0 -35 11.5 -66t32 -55.5t48.5 -42t62 -24.5v481h104v-481z" />
    <glyph glyph-name="cid518" unicode="&#x3c9;" horiz-adv-x="876" 
d="M439 115q-12 -27 -30 -50t-40.5 -40.5t-50 -27.5t-57.5 -10q-47 0 -87 22.5t-70 61.5t-47 92t-17 115q0 45 9 86t23.5 78t31.5 69t34 58h107q-18 -30 -35.5 -64t-30.5 -71t-21 -76.5t-8 -79.5q0 -42 9 -77.5t25.5 -62t38 -41.5t47.5 -15q24 0 45.5 14.5t37 39t24.5 58
t9 71.5v183h108v-183q0 -38 9 -71.5t24.5 -58t36.5 -39t45 -14.5q26 0 48 15t38 41.5t25 62t9 77.5q0 40 -8 79.5t-21 76.5t-30 71t-35 64h107q16 -26 33.5 -58t31.5 -69t23 -78t9 -86q0 -62 -17 -115t-47 -92t-70.5 -61.5t-87.5 -22.5q-30 0 -56.5 10t-49.5 27.5
t-41.5 40.5t-30.5 50z" />
    <glyph glyph-name="cid1026" unicode="&#x401;" horiz-adv-x="619" 
d="M152 916q0 27 19 46t48 19q28 0 47 -19t19 -46q0 -29 -19 -48t-47 -19q-29 0 -48 19t-19 48zM354 916q0 27 19 46t48 19q28 0 47 -19t19 -46q0 -29 -19 -48t-47 -19q-29 0 -48 19t-19 48zM88 770h458v-96h-347v-234h319v-96h-319v-249h356v-95h-467v770z" />
    <glyph glyph-name="cid1020" unicode="&#x410;" horiz-adv-x="750" 
d="M535 195h-321l-69 -195h-120l288 770h123l289 -770h-121zM247 290h255l-127 356z" />
    <glyph glyph-name="cid1021" unicode="&#x411;" horiz-adv-x="656" 
d="M338 492q61 0 111.5 -18t85.5 -51t54.5 -78.5t19.5 -99.5t-19.5 -99t-54.5 -77.5t-85.5 -50.5t-111.5 -18h-250v770h458v-93h-349v-185h141zM491 245q0 33 -11 61.5t-32 49t-51 32t-67 11.5h-133v-307h133q37 0 67 11.5t51 32t32 48.5t11 61z" />
    <glyph glyph-name="cid1022" unicode="&#x412;" horiz-adv-x="674" 
d="M88 0v770h273q52 0 92.5 -14.5t69 -41.5t43.5 -64.5t15 -83.5q0 -60 -28.5 -100.5t-73.5 -57.5q30 -7 56.5 -23.5t46 -40.5t31 -55.5t11.5 -68.5q0 -49 -16.5 -89.5t-46.5 -69.5t-73 -45t-95 -16h-305zM470 559q0 56 -32.5 86t-85.5 30h-154v-231h154q53 0 85.5 30
t32.5 85zM512 224q0 59 -36 93.5t-94 34.5h-184v-258h184q58 0 94 35t36 95z" />
    <glyph glyph-name="cid1023" unicode="&#x413;" horiz-adv-x="567" 
d="M90 770h453v-95h-343v-675h-110v770z" />
    <glyph glyph-name="cid1024" unicode="&#x414;" horiz-adv-x="728" 
d="M697 -156h-110v156h-443v-156h-110v250h59q28 65 46.5 138.5t30 150t16 154.5t4.5 152v80h436v-675h71v-250zM516 94v581h-217q0 -72 -5 -148.5t-16 -152t-27.5 -147t-40.5 -133.5h306z" />
    <glyph glyph-name="cid1025" unicode="&#x415;" horiz-adv-x="618" 
d="M88 770h458v-96h-347v-234h319v-96h-319v-249h356v-95h-467v770z" />
    <glyph glyph-name="cid1027" unicode="&#x416;" horiz-adv-x="1009" 
d="M560 378l285 392h132l-244 -327l281 -443h-129l-220 352l-105 -140v-212h-111v212l-105 140l-220 -352h-127l279 443l-244 327h132l285 -392v392h111v-392z" />
    <glyph glyph-name="cid1028" unicode="&#x417;" horiz-adv-x="582" 
d="M70 693q75 90 204 90q49 0 90.5 -15.5t71.5 -42.5t46.5 -63.5t16.5 -78.5q0 -53 -33 -96t-87 -66q34 -12 63.5 -31.5t51 -45.5t33.5 -57t12 -66q0 -50 -20.5 -92.5t-56.5 -74t-84.5 -49.5t-105.5 -18q-73 0 -136 31t-101 88l68 67q28 -43 71 -69t97 -26q34 0 63 11.5
t50 31.5t33 47t12 58q0 32 -13 59t-36 47t-55 31t-70 11h-78v90h80q61 0 99 33t38 82q0 24 -10 44.5t-27 36t-41 24t-51 8.5q-40 0 -72.5 -16.5t-58.5 -46.5z" />
    <glyph glyph-name="cid1029" unicode="&#x418;" horiz-adv-x="762" 
d="M674 0h-106v581l-372 -581h-108v770h106v-582l372 582h108v-770z" />
    <glyph glyph-name="cid1030" unicode="&#x419;" horiz-adv-x="762" 
d="M381 819q-37 0 -69.5 12.5t-57.5 35t-40 54t-16 68.5h96q2 -38 25.5 -64t61.5 -26t61 26t24 64h98q-2 -37 -17 -68.5t-39.5 -54t-57.5 -35t-69 -12.5zM674 0h-106v581l-372 -581h-108v770h106v-582l372 582h108v-770z" />
    <glyph glyph-name="cid1031" unicode="&#x41a;" horiz-adv-x="690" 
d="M198 374l301 396h132l-248 -321l284 -449h-128l-225 359l-116 -150v-209h-110v770h110v-396z" />
    <glyph glyph-name="cid1032" unicode="&#x41b;" horiz-adv-x="776" 
d="M252 181q0 -183 -184 -183h-22t-20 1v95q4 -1 14.5 -1h15.5q41 0 62.5 22t21.5 74v581h548v-770h-112v674h-324v-493z" />
    <glyph glyph-name="cid1033" unicode="&#x41c;" horiz-adv-x="931" 
d="M431 140l-238 428v-568h-105v769h109l269 -490l268 490h109v-769h-105v568l-237 -428h-70z" />
    <glyph glyph-name="cid1034" unicode="&#x41d;" horiz-adv-x="750" 
d="M88 770h111v-330h351v330h112v-770h-112v343h-351v-343h-111v770z" />
    <glyph glyph-name="cid1035" unicode="&#x41e;" horiz-adv-x="861" 
d="M163 385q0 -63 20 -118t56 -95.5t85 -64t107 -23.5q57 0 106 23.5t85 64t56 95.5t20 118t-20 117.5t-56 95t-85 64t-106 23.5q-58 0 -107 -23.5t-85 -64t-56 -95t-20 -117.5zM50 385q0 84 28.5 156.5t79 126.5t120.5 84.5t153 30.5q82 0 152 -30.5t120.5 -84.5t79 -126.5
t28.5 -156.5t-28.5 -157t-79 -126.5t-120.5 -84t-152 -30.5q-83 0 -153 30.5t-120.5 84t-79 126.5t-28.5 157z" />
    <glyph glyph-name="cid1036" unicode="&#x41f;" horiz-adv-x="738" 
d="M650 0h-110v675h-342v-675h-110v770h562v-770z" />
    <glyph glyph-name="cid1037" unicode="&#x420;" horiz-adv-x="648" 
d="M199 287v-287h-111v770h249q61 0 110 -17.5t83.5 -49t53 -76.5t18.5 -99t-18.5 -98.5t-53 -76t-83.5 -49t-110 -17.5h-138zM490 528q0 67 -41.5 107t-118.5 40h-131v-293h131q77 0 118.5 39.5t41.5 106.5z" />
    <glyph glyph-name="cid1038" unicode="&#x421;" horiz-adv-x="732" 
d="M430 -13q-84 0 -154 30.5t-120 84t-78 126.5t-28 157t28 156.5t78 126.5t120 84.5t154 30.5q73 0 137 -22.5t118 -64.5l-56 -83q-44 31 -92 51.5t-107 20.5t-108 -23.5t-84 -64t-55 -95t-20 -117.5t20 -118t55 -95.5t84 -64t108 -23.5t111 22t94 56l60 -82
q-54 -44 -121.5 -68.5t-143.5 -24.5z" />
    <glyph glyph-name="cid1039" unicode="&#x422;" horiz-adv-x="597" 
d="M243 673h-213v97h537v-97h-212v-673h-112v673z" />
    <glyph glyph-name="cid1040" unicode="&#x423;" horiz-adv-x="710" 
d="M359 107q-26 -51 -64.5 -79t-98.5 -28h-82v95h63q29 0 49 14t34 42l40 77l-273 542h119l213 -433l207 433h120z" />
    <glyph glyph-name="cid1041" unicode="&#x424;" horiz-adv-x="822" 
d="M356 106q-67 0 -125 21.5t-101 59t-67.5 88t-24.5 109.5q0 58 24.5 109t67.5 88.5t101 59t125 21.5v108h109v-108q67 0 125 -21.5t101 -59t67.5 -88.5t24.5 -109q0 -59 -24.5 -109.5t-67.5 -88t-101 -59t-125 -21.5v-106h-109v106zM672 384q0 37 -16 69.5t-44 56.5
t-66 38t-81 14v-357q43 0 81 14t66 38t44 56.5t16 70.5zM148 384q0 -38 16 -70.5t44 -56.5t66 -38t82 -14v357q-44 0 -82 -14t-66 -38t-44 -56.5t-16 -69.5z" />
    <glyph glyph-name="cid1042" unicode="&#x425;" horiz-adv-x="699" 
d="M555 0l-206 311l-205 -311h-122l261 391l-250 379h122l194 -298l196 298h121l-249 -379l260 -391h-122z" />
    <glyph glyph-name="cid1043" unicode="&#x426;" horiz-adv-x="754" 
d="M92 0v770h112v-675h337v675h112v-675h70v-250h-109v155h-522z" />
    <glyph glyph-name="cid1044" unicode="&#x427;" horiz-adv-x="682" 
d="M481 774h113v-774h-113v323q-30 -38 -75.5 -64t-104.5 -26q-50 0 -92.5 17t-73.5 47.5t-48 73t-17 93.5v310h112v-302q0 -31 10 -57t28.5 -45t44 -30t57.5 -11q30 0 59 13t51 35.5t35.5 52.5t13.5 65v279z" />
    <glyph glyph-name="cid1045" unicode="&#x428;" horiz-adv-x="1062" 
d="M863 770h112v-770h-884v770h112v-675h274v675h112v-675h274v675z" />
    <glyph glyph-name="cid1046" unicode="&#x429;" horiz-adv-x="1073" 
d="M91 0v770h112v-675h274v675h112v-675h274v675h111v-675h70v-250h-109v155h-844z" />
    <glyph glyph-name="cid1047" unicode="&#x42a;" horiz-adv-x="784" 
d="M477 490q61 0 110.5 -18t85 -50.5t55 -78t19.5 -99.5t-19.5 -98.5t-55 -77t-85 -50.5t-110.5 -18h-250v676h-193v94h305v-280h138zM634 244q0 69 -44 110.5t-121 41.5h-130v-303h130q77 0 121 41.5t44 109.5z" />
    <glyph glyph-name="cid1048" unicode="&#x42b;" horiz-adv-x="910" 
d="M203 770v-280h138q61 0 111 -18t85 -50.5t54.5 -78t19.5 -99.5t-19.5 -98.5t-54.5 -77t-85 -50.5t-111 -18h-250v770h112zM499 244q0 69 -44.5 110.5t-121.5 41.5h-130v-303h130q77 0 121.5 41.5t44.5 109.5zM822 770v-770h-112v770h112z" />
    <glyph glyph-name="cid1049" unicode="&#x42c;" horiz-adv-x="650" 
d="M204 773v-281h138q61 0 111.5 -18t85.5 -51t54.5 -78.5t19.5 -99.5t-19.5 -99t-54.5 -77.5t-85.5 -50.5t-111.5 -18h-250v773h112zM500 245q0 69 -44.5 110.5t-121.5 41.5h-130v-303h130q78 0 122 41t44 110z" />
    <glyph glyph-name="cid1050" unicode="&#x42d;" horiz-adv-x="731" 
d="M300 -13q-78 0 -144.5 24t-120.5 68l59 82q42 -34 94 -56t112 -22q54 0 101.5 19.5t84 54t60 81.5t29.5 102h-372v93h372q-7 54 -30.5 100.5t-60 80.5t-83.5 53t-101 19q-60 0 -107.5 -20t-92.5 -52l-55 82q54 42 117.5 64.5t137.5 22.5q85 0 157 -30.5t124 -84.5
t81 -126.5t29 -156.5t-29 -157t-81 -126.5t-124 -84t-157 -30.5z" />
    <glyph glyph-name="cid1051" unicode="&#x42e;" horiz-adv-x="1097" 
d="M200 434h89q8 75 39 138.5t81 110.5t115.5 73.5t142.5 26.5q83 0 152.5 -30.5t120 -84.5t79 -126.5t28.5 -156.5t-28.5 -157t-79 -126.5t-120 -84t-152.5 -30.5q-77 0 -143 26.5t-115.5 73.5t-81 111t-38.5 140h-89v-338h-112v770h112v-336zM400 385q0 -63 20 -118
t55.5 -95.5t84.5 -64t107 -23.5t107 23.5t84.5 64t55.5 95.5t20 118t-20 117.5t-55.5 95t-84.5 64t-107 23.5t-107 -23.5t-84.5 -64t-55.5 -95t-20 -117.5z" />
    <glyph glyph-name="cid1052" unicode="&#x42f;" horiz-adv-x="662" 
d="M60 538q0 54 18.5 97t53 73t83.5 46t110 16h249v-770h-111v307h-145l-151 -307h-122l165 324q-71 24 -110.5 78.5t-39.5 135.5zM172 538q0 -67 41.5 -101.5t118.5 -34.5h131v273h-131q-77 0 -118.5 -35t-41.5 -102z" />
    <glyph glyph-name="cid1053" unicode="&#x430;" horiz-adv-x="705" 
d="M506 75q-37 -41 -86.5 -64.5t-107.5 -23.5q-59 0 -108.5 23.5t-86 63.5t-57 94t-20.5 116q0 61 20.5 115.5t57 95t86 64t108.5 23.5q58 0 107.5 -24t86.5 -65v76h108v-569h-108v75zM149 284q0 -42 13.5 -78.5t37.5 -63.5t56.5 -43t71.5 -16q38 0 70.5 16t56.5 43.5
t37.5 64t13.5 77.5t-13.5 77.5t-37.5 64.5t-56.5 44t-70.5 16q-39 0 -71.5 -16t-56.5 -43t-37.5 -64t-13.5 -79z" />
    <glyph glyph-name="cid1054" unicode="&#x431;" horiz-adv-x="670" 
d="M171 435q15 15 34.5 30t43.5 27t53 19.5t63 7.5q56 0 104.5 -20.5t84.5 -56.5t56.5 -84.5t20.5 -104.5q0 -57 -21.5 -105.5t-60 -84.5t-91.5 -56t-116 -20q-62 0 -115 21.5t-92 62.5t-61 101t-22 137q0 128 22 218t72 148t132.5 88.5t204.5 40.5l16 -96
q-93 -9 -153.5 -27.5t-97.5 -50.5t-54 -80t-23 -115zM161 312q0 -55 13 -98t37 -72t57.5 -44.5t73.5 -15.5q39 0 72 13t57 36t38 54t14 67t-13.5 67.5t-37 54.5t-55.5 36t-69 13q-60 0 -107.5 -31.5t-79.5 -79.5z" />
    <glyph glyph-name="cid1055" unicode="&#x432;" horiz-adv-x="559" 
d="M77 0v569h225q40 0 74 -11.5t59 -32t39 -48t14 -59.5q0 -39 -26 -70.5t-67 -48.5q25 -6 47 -19.5t38 -32t25 -41t9 -46.5q0 -34 -15 -63t-41 -50.5t-61.5 -34t-76.5 -12.5h-243zM180 252v-166h130q43 0 71 23.5t28 58.5t-28 59.5t-71 24.5h-130zM294 333q38 0 64.5 22
t26.5 52q0 32 -26.5 53.5t-64.5 21.5h-114v-149h114z" />
    <glyph glyph-name="cid1056" unicode="&#x433;" horiz-adv-x="448" 
d="M185 473v-473h-108v569h348v-96h-240z" />
    <glyph glyph-name="cid1057" unicode="&#x434;" horiz-adv-x="609" 
d="M583 -118h-104v118h-348v-118h-103v205h57q47 97 64.5 218.5t18.5 263.5h343v-482h72v-205zM409 87v394h-142q0 -48 -4.5 -100t-13.5 -103.5t-22 -100t-31 -90.5h213z" />
    <glyph glyph-name="cid1058" unicode="&#x435;" horiz-adv-x="644" 
d="M151 251q5 -42 22 -74.5t41.5 -54t55.5 -33t63 -11.5q48 0 91 21.5t76 59.5l71 -67q-48 -52 -105.5 -78.5t-130.5 -26.5q-67 0 -121.5 23t-93 63.5t-59.5 95t-21 116.5q0 61 21 115.5t59 94.5t90.5 63.5t115.5 23.5q62 0 113.5 -22.5t88 -61.5t56.5 -91t20 -111
q0 -20 -5 -45h-448zM326 490q-29 0 -56.5 -10.5t-51 -30.5t-40.5 -48.5t-24 -64.5h338q-6 34 -20.5 62t-35.5 48.5t-49 32t-61 11.5z" />
    <glyph glyph-name="cid1060" unicode="&#x436;" horiz-adv-x="928" 
d="M410 570h108v-264l234 264h131l-202 -225l242 -345h-126l-187 265l-92 -104v-161h-108v161l-92 104l-187 -265h-126l242 345l-202 225h131l234 -264v264z" />
    <glyph glyph-name="cid1061" unicode="&#x437;" horiz-adv-x="528" 
d="M377 167q0 41 -35.5 68t-88.5 27h-80v85h83q43 0 71.5 21t28.5 53t-29 52.5t-71 20.5q-37 0 -66 -15.5t-44 -44.5l-84 50q26 45 76 71.5t118 26.5q44 0 81.5 -12t65.5 -32.5t43.5 -48.5t15.5 -60q0 -39 -27.5 -72.5t-78.5 -50.5q26 -8 49.5 -21.5t41 -32.5t28 -42.5
t10.5 -50.5q0 -36 -18 -67.5t-49 -55t-73.5 -36.5t-91.5 -13q-72 0 -127.5 25.5t-89.5 71.5l74 57q26 -32 62.5 -49.5t81.5 -17.5q53 0 88 26.5t35 66.5z" />
    <glyph glyph-name="cid1062" unicode="&#x438;" horiz-adv-x="672" 
d="M595 0h-105v419l-313 -419h-100v569h104v-420l313 420h101v-569z" />
    <glyph glyph-name="cid1063" unicode="&#x439;" horiz-adv-x="673" 
d="M596 0h-109v409l-306 -409h-104v570h109v-410l306 410h104v-570zM336 641q-37 0 -69.5 12.5t-57 35t-39.5 54t-17 68.5h97q2 -38 25 -64t61 -26t61 26t25 64h97q-2 -37 -17 -68.5t-39.5 -54t-57 -35t-69.5 -12.5z" />
    <glyph glyph-name="cid1064" unicode="&#x43a;" horiz-adv-x="573" 
d="M184 306l234 264h131l-202 -225l242 -345h-126l-187 265l-92 -104v-161h-108v570h108v-264z" />
    <glyph glyph-name="cid1065" unicode="&#x43b;" horiz-adv-x="674" 
d="M597 0h-108v474h-255v-281q0 -42 -9.5 -78t-30 -62t-51 -41t-72.5 -15q-12 0 -25 0.5t-24 2.5v93h27q33 0 54.5 21t21.5 58v397h472v-569z" />
    <glyph glyph-name="cid1066" unicode="&#x43c;" horiz-adv-x="743" 
d="M371 268l196 303h99v-571h-103v398l-159 -240h-65l-159 240v-398h-103v571h100z" />
    <glyph glyph-name="cid1067" unicode="&#x43d;" horiz-adv-x="674" 
d="M597 0h-109v247h-303v-247h-108v571h108v-228h303v228h109v-571z" />
    <glyph glyph-name="cid1068" unicode="&#x43e;" horiz-adv-x="657" 
d="M40 285q0 61 21 115.5t59.5 94.5t91.5 63.5t117 23.5q63 0 116 -23.5t91.5 -63.5t59.5 -94.5t21 -115.5q0 -62 -21 -116t-59.5 -94.5t-91.5 -64t-116 -23.5q-64 0 -117 23.5t-91.5 64t-59.5 94.5t-21 116zM149 285q0 -42 13 -79t37 -64.5t57 -43.5t73 -16q39 0 72 16
t57 43.5t37 64.5t13 79t-13 78.5t-37 63.5t-57 43t-72 16q-40 0 -73 -16t-57 -43t-37 -63.5t-13 -78.5z" />
    <glyph glyph-name="cid1069" unicode="&#x43f;" horiz-adv-x="672" 
d="M595 0h-108v474h-302v-474h-108v569h518v-569z" />
    <glyph glyph-name="cid1070" unicode="&#x440;" horiz-adv-x="689" 
d="M183 493q35 41 84.5 65t109.5 24q58 0 108 -23.5t86.5 -64t57 -95t20.5 -115.5q0 -62 -20.5 -116t-57 -94t-86.5 -63.5t-108 -23.5q-60 0 -109.5 23.5t-84.5 64.5v-319h-108v815h108v-78zM539 284q0 42 -13.5 79t-37.5 64t-56.5 43t-70.5 16t-70.5 -16t-56.5 -43
t-37.5 -63t-13.5 -76q0 -42 13.5 -79t37 -65t56 -44.5t71.5 -16.5q38 0 70.5 16t56.5 43t37.5 63.5t13.5 78.5z" />
    <glyph glyph-name="cid1071" unicode="&#x441;" horiz-adv-x="579" 
d="M328 -13q-64 0 -117 23.5t-91 64t-59 94.5t-21 116q0 61 21 115.5t59 94.5t91 63.5t117 23.5q62 0 113 -20.5t93 -55.5l-54 -83q-32 27 -69.5 45t-82.5 18q-40 0 -73 -16t-56.5 -43t-36.5 -63.5t-13 -78.5t13 -79t36.5 -64.5t56.5 -43.5t73 -16q45 0 84.5 20t70.5 49
l63 -78q-42 -40 -97 -63t-121 -23z" />
    <glyph glyph-name="cid1072" unicode="&#x442;" horiz-adv-x="522" 
d="M26 473v96h471v-96h-181v-473h-109v473h-181z" />
    <glyph glyph-name="cid1073" unicode="&#x443;" horiz-adv-x="577" 
d="M132 -254l101 257l-221 567h114l162 -430l163 430h113l-319 -824h-113z" />
    <glyph glyph-name="cid1074" unicode="&#x444;" horiz-adv-x="1135" 
d="M506 75q-37 -41 -86.5 -64.5t-107.5 -23.5q-59 0 -108.5 23.5t-86 63.5t-57 94t-20.5 116q0 61 20.5 115.5t57 95t86 64t108.5 23.5q58 0 107.5 -24t86.5 -65v310h108v-310q36 41 85.5 65t108.5 24q58 0 108 -23.5t86.5 -64t57 -95t20.5 -115.5q0 -62 -20.5 -116t-57 -94
t-86.5 -63.5t-108 -23.5q-59 0 -108.5 23.5t-85.5 64.5v-333h-108v333zM970 284q0 42 -13.5 79t-37.5 64t-56.5 43t-70.5 16q-39 0 -71.5 -16t-56 -43t-37 -64t-13.5 -79t13.5 -78.5t37 -63.5t56 -43t71.5 -16q38 0 70.5 16t56.5 43t37.5 63.5t13.5 78.5zM149 284
q0 -42 13.5 -78.5t37.5 -63.5t56.5 -43t71.5 -16q38 0 70.5 16t56.5 43t37.5 63.5t13.5 78.5v4q-1 41 -14.5 77t-37.5 63t-56 42.5t-70 15.5q-39 0 -71.5 -16t-56.5 -43t-37.5 -64t-13.5 -79z" />
    <glyph glyph-name="cid1075" unicode="&#x445;" horiz-adv-x="576" 
d="M443 0l-155 219l-156 -219h-119l206 290l-191 280h119l141 -208l140 208h119l-191 -280l206 -290h-119z" />
    <glyph glyph-name="cid1076" unicode="&#x446;" horiz-adv-x="692" 
d="M598 94h68v-249h-104v155h-482v569h108v-475h302v475h108v-475z" />
    <glyph glyph-name="cid1077" unicode="&#x447;" horiz-adv-x="606" 
d="M420 246q-28 -39 -68 -63.5t-90 -24.5q-44 0 -82 16.5t-66.5 45.5t-45 68t-16.5 84v197h109v-192q0 -26 9 -48.5t25 -39.5t38.5 -26.5t48.5 -9.5q24 0 47 9.5t42 26t32 38.5t17 46v196h108v-569h-108v246z" />
    <glyph glyph-name="cid1078" unicode="&#x448;" horiz-adv-x="865" 
d="M788 0h-711v569h105v-475h197v475h106v-475h197v475h106v-569z" />
    <glyph glyph-name="cid1079" unicode="&#x449;" horiz-adv-x="881" 
d="M77 0v569h106v-475h196v475h106v-475h197v475h107v-475h68v-249h-105v155h-675z" />
    <glyph glyph-name="cid1080" unicode="&#x44a;" horiz-adv-x="659" 
d="M521 192q0 22 -9 41.5t-24.5 34t-36 22.5t-44.5 8h-117v-212h117q24 0 44.5 8t36 22t24.5 33.5t9 42.5zM627 192q0 -41 -16 -76t-43.5 -60.5t-65.5 -40.5t-82 -15h-236v478h-158v91h264v-184h130q44 0 82 -15t65.5 -41.5t43.5 -61.5t16 -75z" />
    <glyph glyph-name="cid1081" unicode="&#x44b;" horiz-adv-x="787" 
d="M413 192q0 22 -9 41.5t-24 34t-36 22.5t-45 8h-117v-212h117q24 0 45 8t36 22t24 33.5t9 42.5zM519 192q0 -41 -16 -76t-43.5 -60.5t-65.5 -40.5t-82 -15h-235v569h105v-184h130q44 0 82 -15t65.5 -41.5t43.5 -61.5t16 -75zM603 569h107v-569h-107v569z" />
    <glyph glyph-name="cid1082" unicode="&#x44c;" horiz-adv-x="546" 
d="M413 192q0 22 -9 41.5t-24 34t-36 22.5t-45 8h-117v-212h117q24 0 45 8t36 22t24 33.5t9 42.5zM519 192q0 -41 -16 -76t-43.5 -60.5t-65.5 -40.5t-82 -15h-235v569h105v-184h130q44 0 82 -15t65.5 -41.5t43.5 -61.5t16 -75z" />
    <glyph glyph-name="cid1083" unicode="&#x44d;" horiz-adv-x="590" 
d="M254 -13q-66 0 -121 22.5t-97 63.5l63 77q32 -31 70.5 -50t84.5 -19q36 0 67.5 12.5t56.5 34.5t41.5 52t22.5 65h-266v82h265q-6 34 -22.5 63.5t-41 51t-56 34t-67.5 12.5q-45 0 -82.5 -18t-69.5 -46l-53 82q40 35 91 56t114 21q65 0 120 -23.5t94.5 -64t62 -95
t22.5 -115.5q0 -62 -22.5 -116t-62 -94.5t-94.5 -64t-120 -23.5z" />
    <glyph glyph-name="cid1084" unicode="&#x44e;" horiz-adv-x="876" 
d="M183 332h80q7 53 31 98.5t61 79.5t86 53t107 19q63 0 116 -23.5t91.5 -63.5t59.5 -94.5t21 -115.5q0 -62 -21 -116t-59.5 -94.5t-91.5 -64t-116 -23.5q-58 0 -107 19t-86 52.5t-61 79.5t-32 99h-79v-237h-106v569h106v-237zM368 285q0 -42 13 -79t37 -64.5t57 -43.5
t73 -16q39 0 72 16t57 43.5t37 64.5t13 79t-13 78.5t-37 63.5t-57 43t-72 16q-40 0 -73 -16t-57 -43t-37 -63.5t-13 -78.5z" />
    <glyph glyph-name="cid1085" unicode="&#x44f;" horiz-adv-x="599" 
d="M50 386q0 39 16 72t44.5 58t67 39t83.5 14h262v-569h-106v201h-107l-157 -201h-115l164 209q-68 17 -110 64.5t-42 112.5zM269 482q-21 0 -41 -7.5t-36 -21t-26 -31t-10 -36.5q0 -42 32.5 -70t80.5 -28h148v194h-148z" />
    <glyph glyph-name="cid1059" unicode="&#x451;" horiz-adv-x="644" 
d="M154 737q0 27 19 46t48 19q28 0 47 -19t19 -46q0 -29 -19 -48t-47 -19q-29 0 -48 19t-19 48zM356 737q0 27 19 46t48 19q28 0 47 -19t19 -46q0 -29 -19 -48t-47 -19q-29 0 -48 19t-19 48zM151 251q5 -42 22 -74.5t41.5 -54t55.5 -33t63 -11.5q48 0 91 21.5t76 59.5
l71 -67q-48 -52 -105.5 -78.5t-130.5 -26.5q-67 0 -121.5 23t-93 63.5t-59.5 95t-21 116.5q0 61 21 115.5t59 94.5t90.5 63.5t115.5 23.5q62 0 113.5 -22.5t88 -61.5t56.5 -91t20 -111q0 -20 -5 -45h-448zM326 490q-29 0 -56.5 -10.5t-51 -30.5t-40.5 -48.5t-24 -64.5h338
q-6 34 -20.5 62t-35.5 48.5t-49 32t-61 11.5z" />
    <glyph glyph-name="cid110" unicode="&#x2014;" 
d="M28 304v83h870v-83h-870z" />
    <glyph glyph-name="cid110" unicode="&#x2015;" 
d="M28 304v83h870v-83h-870z" />
    <glyph glyph-name="cid111" unicode="&#x2016;" horiz-adv-x="510" 
d="M104 825h102v-979h-102v979zM303 825h102v-979h-102v979z" />
    <glyph glyph-name="cid114" unicode="&#x2018;" horiz-adv-x="325" 
d="M255 841q-35 -26 -57.5 -54.5t-27.5 -57.5q32 -5 50 -26.5t18 -47.5q0 -32 -21 -53t-53 -21q-34 0 -54.5 22.5t-20.5 61.5q0 62 29 118t94 104z" />
    <glyph glyph-name="cid115" unicode="&#x2019;" horiz-adv-x="325" 
d="M70 565q35 26 57.5 54.5t27.5 57.5q-32 5 -50 26.5t-18 47.5q0 31 21 52.5t53 21.5q34 0 54.5 -23t20.5 -62q0 -62 -29 -118t-94 -104z" />
    <glyph glyph-name="cid116" unicode="&#x201c;" horiz-adv-x="532" 
d="M461 841q-35 -26 -57 -54.5t-27 -57.5q32 -5 50 -26.5t18 -47.5q0 -32 -21.5 -53t-53.5 -21q-34 0 -54 22.5t-20 61.5q0 62 28.5 118t94.5 104zM255 841q-35 -26 -57.5 -54.5t-27.5 -57.5q32 -5 50 -26.5t18 -47.5q0 -32 -21 -53t-53 -21q-34 0 -54.5 22.5t-20.5 61.5
q0 62 29 118t94 104z" />
    <glyph glyph-name="cid117" unicode="&#x201d;" horiz-adv-x="532" 
d="M276 565q35 26 57.5 54.5t27.5 57.5q-32 5 -50 26.5t-18 47.5q0 31 21 52.5t53 21.5q34 0 54.5 -23t20.5 -62q0 -62 -29 -118t-94 -104zM70 565q35 26 57.5 54.5t27.5 57.5q-32 5 -50 26.5t-18 47.5q0 31 21 52.5t53 21.5q34 0 54.5 -23t20.5 -62q0 -62 -29 -118
t-94 -104z" />
    <glyph glyph-name="cid245" unicode="&#x2020;" horiz-adv-x="617" 
d="M250 530h-179v100h179v193h116v-193h179v-100h-179v-674h-116v674z" />
    <glyph glyph-name="cid246" unicode="&#x2021;" horiz-adv-x="617" 
d="M250 530h-179v100h179v193h116v-193h179v-100h-179v-382h179v-100h-179v-192h-116v192h-179v100h179v382z" />
    <glyph glyph-name="cid105" unicode="&#x2025;" horiz-adv-x="600" 
d="M75 73q0 31 21.5 52.5t53.5 21.5t53 -21.5t21 -52.5q0 -32 -21 -53t-53 -21t-53.5 21t-21.5 53zM375 73q0 31 21.5 52.5t53.5 21.5t53 -21.5t21 -52.5q0 -32 -21 -53t-53 -21t-53.5 21t-21.5 53z" />
    <glyph glyph-name="cid106" unicode="&#x2026;" horiz-adv-x="900" 
d="M75 362q0 31 21.5 52.5t53.5 21.5t53 -21.5t21 -52.5q0 -32 -21 -53t-53 -21t-53.5 21t-21.5 53zM375 362q0 31 21.5 52.5t53.5 21.5t53 -21.5t21 -52.5q0 -32 -21 -53t-53 -21t-53.5 21t-21.5 53zM675 362q0 31 21.5 52.5t53.5 21.5t53 -21.5t21 -52.5q0 -32 -21 -53
t-53 -21t-53.5 21t-21.5 53z" />
    <glyph glyph-name="cid106" unicode="&#x22ef;" horiz-adv-x="900" 
d="M75 362q0 31 21.5 52.5t53.5 21.5t53 -21.5t21 -52.5q0 -32 -21 -53t-53 -21t-53.5 21t-21.5 53zM375 362q0 31 21.5 52.5t53.5 21.5t53 -21.5t21 -52.5q0 -32 -21 -53t-53 -21t-53.5 21t-21.5 53zM675 362q0 31 21.5 52.5t53.5 21.5t53 -21.5t21 -52.5q0 -32 -21 -53
t-53 -21t-53.5 21t-21.5 53z" />
    <glyph glyph-name="cid216" unicode="&#x2030;" 
d="M434 770h87l-320 -770h-87zM109 580q0 -18 2.5 -35.5t7.5 -31.5t13.5 -22.5t20.5 -8.5t20.5 8.5t14.5 22.5t8.5 31.5t2.5 35.5t-2.5 36t-8.5 32t-14.5 22.5t-20.5 8.5t-20.5 -8.5t-13.5 -22.5t-7.5 -32t-2.5 -36zM18 580q0 41 9.5 77t26.5 63t42 43t57 16t57 -16
t42.5 -43t27 -63t9.5 -77t-9.5 -77t-27 -63t-42.5 -43t-57 -16t-57 16t-42 43t-26.5 63t-9.5 77zM437 190q0 -18 2.5 -35.5t7.5 -31t13.5 -22t20.5 -8.5t20.5 8.5t14.5 22t8.5 31t2.5 35.5t-2.5 36t-8.5 32t-14.5 22.5t-20.5 8.5t-20.5 -8.5t-13.5 -22.5t-7.5 -32t-2.5 -36z
M346 190q0 41 9.5 77.5t26.5 63.5t42 43t57 16q31 0 56.5 -16t43 -43t27 -63.5t9.5 -77.5t-9.5 -77t-27 -63t-43 -42.5t-56.5 -15.5q-32 0 -57 15.5t-42 42.5t-26.5 63t-9.5 77zM736 190q0 -18 2.5 -35.5t8.5 -31t14.5 -22t20.5 -8.5t20.5 8.5t14 22t8 31t2.5 35.5t-2.5 36
t-8 32t-14 22.5t-20.5 8.5t-20.5 -8.5t-14.5 -22.5t-8.5 -32t-2.5 -36zM646 190q0 41 9.5 77.5t27 63.5t42.5 43t57 16q31 0 56 -16t42.5 -43t27 -63.5t9.5 -77.5t-9.5 -77t-27 -63t-42.5 -42.5t-56 -15.5q-32 0 -57 15.5t-42.5 42.5t-27 63t-9.5 77z" />
    <glyph glyph-name="cid139" unicode="&#x2032;" horiz-adv-x="280" 
d="M139 700h99l-98 -186h-88z" />
    <glyph glyph-name="cid140" unicode="&#x2033;" horiz-adv-x="452" 
d="M139 700h99l-98 -186h-88zM309 700h99l-98 -186h-88z" />
    <glyph glyph-name="cid156" unicode="&#x203b;" 
d="M111 48l315 315l-314 311l45 45l313 -314l312 314l45 -45l-314 -311l315 -315l-45 -44q-78 79 -156.5 157.5t-156.5 158.5l-314 -316zM398 655q0 32 19.5 51.5t52.5 19.5q32 0 51.5 -19.5t19.5 -51.5q0 -33 -20 -52.5t-51 -19.5q-32 0 -52 19.5t-20 52.5zM398 65
q0 32 19.5 51.5t52.5 19.5q32 0 51.5 -19.5t19.5 -51.5t-19.5 -51.5t-51.5 -19.5q-33 0 -52.5 19.5t-19.5 51.5zM691 360q0 32 19.5 51.5t52.5 19.5q32 0 51.5 -19.5t19.5 -51.5q0 -33 -20 -52.5t-51 -19.5q-32 0 -52 19.5t-20 52.5zM105 360q0 32 19.5 51.5t51.5 19.5
t52 -19.5t20 -51.5q0 -33 -20 -52.5t-52 -19.5t-51.5 19.5t-19.5 52.5z" />
    <glyph glyph-name="cid845" unicode="&#x2074;" horiz-adv-x="443" 
d="M30 428l226 336h93v-331h56v-84h-56v-95h-96v95h-223v79zM253 433v185l-124 -185h124z" />
    <glyph glyph-name="cid846" unicode="&#x207f;" horiz-adv-x="443" 
d="M152 250h-94v366h94v-37q17 21 40 33t52 12q31 0 57.5 -11t45 -31t29 -48t10.5 -61v-223h-94v213q0 33 -16.5 55t-49.5 22q-29 0 -51.5 -24t-22.5 -66v-200z" />
    <glyph glyph-name="cid847" unicode="&#x2081;" horiz-adv-x="432" 
d="M300 371v-510h-98v413l-86 -46l-38 70l136 73h86z" />
    <glyph glyph-name="cid848" unicode="&#x2082;" horiz-adv-x="443" 
d="M188 -57h191v-82h-319v75l176 193q27 29 38.5 52t11.5 48q0 31 -19.5 50.5t-51.5 19.5q-56 0 -80 -70l-85 32q16 55 59 88t107 33q36 0 66.5 -10.5t53 -30t35.5 -47t13 -61.5q0 -42 -17.5 -78t-54.5 -76z" />
    <glyph glyph-name="cid849" unicode="&#x2083;" horiz-adv-x="443" 
d="M61 311q28 33 65.5 52t85.5 19q36 0 65.5 -11t50.5 -30t32.5 -44.5t11.5 -54.5q0 -33 -21 -61t-50 -43q41 -18 67.5 -50t26.5 -76q0 -35 -13.5 -65t-38 -51.5t-58 -34t-73.5 -12.5q-54 0 -98.5 23.5t-71.5 64.5l63 57q19 -29 44.5 -45.5t59.5 -16.5q38 0 63 23.5t25 59.5
q0 37 -27.5 59t-72.5 22h-56v79h57q35 0 56 18.5t21 45.5q0 24 -20 42.5t-51 18.5q-26 0 -46 -13.5t-37 -32.5z" />
    <glyph glyph-name="cid850" unicode="&#x2084;" horiz-adv-x="443" 
d="M30 35l226 336h93v-331h56v-84h-56v-95h-96v95h-223v79zM253 40v185l-124 -185h124z" />
    <glyph glyph-name="cid96" unicode="&#x20a9;" 
d="M1 442h89l-83 328h118l73 -328h135l82 328h111l82 -328h134l74 328h117l-84 -328h91v-87h-112l-90 -355h-111l-90 355h-133l-90 -355h-111l-90 355h-112v87zM263 161l48 194h-94zM679 161l44 194h-93zM426 442h88l-44 174z" />
    <glyph glyph-name="cid18353" unicode="&#x20ac;" horiz-adv-x="732" 
d="M57 340q-1 11 -1.5 22.5t-0.5 22.5v21.5t1 21.5h-56v77h70q17 61 50.5 112t81 88t106.5 57.5t127 20.5q73 0 137 -22.5t118 -64.5q-3 -3 -11 -15.5t-17 -26t-17 -26t-11 -15.5q-44 31 -92 51.5t-107 20.5q-44 0 -82.5 -13t-70 -37t-55.5 -57t-39 -73h358l-20 -77h-356
q-2 -11 -2 -21.5v-21.5v-23t2 -22h339l-20 -76h-301q15 -40 39 -73t55.5 -57t70 -37t82.5 -13q59 0 111 22t94 56l60 -82q-54 -44 -121.5 -68.5t-143.5 -24.5q-68 0 -127.5 20.5t-106.5 57t-80.5 87.5t-50.5 112h-70v76h57z" />
    <glyph glyph-name="cid141" unicode="&#x2103;" horiz-adv-x="877" 
d="M586 -13q-84 0 -154.5 30.5t-120.5 84t-78 126.5t-28 157t28 156.5t78 126.5t120.5 84.5t154.5 30.5q73 0 137 -22.5t118 -64.5l-56 -83q-45 31 -92.5 51.5t-106.5 20.5t-108 -23.5t-84.5 -64t-55.5 -95t-20 -117.5t20 -118t55.5 -95.5t84.5 -64t108 -23.5t111 22t94 56
l59 -82q-53 -44 -121 -68.5t-143 -24.5zM87 721q0 -20 14 -33.5t34 -13.5q21 0 34.5 13.5t13.5 33.5t-13.5 34t-34.5 14q-20 0 -34 -14t-14 -34zM25 721q0 44 31 73.5t79 29.5q47 0 78.5 -29.5t31.5 -73.5t-31.5 -73t-78.5 -29q-48 0 -79 29t-31 73z" />
    <glyph glyph-name="cid215" unicode="&#x2109;" horiz-adv-x="780" 
d="M302 770h446v-95h-336v-243h308v-95h-308v-337h-110v770zM87 722q0 -20 14 -33.5t34 -13.5q21 0 34.5 13.5t13.5 33.5t-13.5 34t-34.5 14q-20 0 -34 -14t-14 -34zM25 722q0 44 31 73.5t79 29.5q47 0 78.5 -29.5t31.5 -73.5t-31.5 -73t-78.5 -29q-48 0 -79 29t-31 73z" />
    <glyph glyph-name="cid590" unicode="&#x2113;" horiz-adv-x="618" 
d="M39 240q32 11 62.5 23.5t57.5 24.5v300q0 41 16 76.5t44 62t65.5 41.5t80.5 15t80.5 -15t65.5 -41.5t44 -62t16 -76.5v-27q0 -97 -76.5 -177t-223.5 -152v-46q0 -21 7.5 -39t20.5 -31.5t30 -21.5t36 -8q38 0 69 22t49 65l90 -53q-28 -62 -82.5 -97.5t-124.5 -35.5
q-46 0 -83 15t-63 41t-41.5 62t-18.5 77q-22 -9 -44.5 -17.5t-45.5 -17.5zM271 344q94 51 141 103t47 120v13q0 46 -27 76t-67 30t-67 -29.5t-27 -75.5v-237z" />
    <glyph glyph-name="cid258" unicode="&#x2116;" 
d="M41 770h111l209 -548v548h110v-770h-113l-209 547v-547h-108v770zM533 0v94h381v-94h-381zM627 395q0 -50 26 -83.5t70 -33.5q45 0 70.5 33.5t25.5 83.5q0 51 -25.5 84.5t-70.5 33.5q-44 0 -70 -33.5t-26 -84.5zM522 395q0 45 15 83.5t41.5 67t63.5 44.5t81 16t81 -16
t64 -44.5t42 -67t15 -83.5q0 -44 -15 -82.5t-41.5 -67t-63.5 -44.5t-82 -16q-44 0 -81 16t-63.5 44.5t-41.5 67t-15 82.5z" />
    <glyph glyph-name="cid263" unicode="&#x2121;" 
d="M148 669h-125v101h355v-101h-124v-669h-106v669zM800 803h99v-803h-99v803zM421 250q1 -39 11 -70.5t26 -53t37.5 -33.5t46.5 -12q30 0 60.5 22t52.5 58q18 -16 36 -31l36 -30q-38 -54 -82.5 -83.5t-101.5 -29.5q-54 0 -95.5 23t-70 63.5t-43.5 95t-15 116.5
q0 61 15 115.5t43 94.5t68 63.5t91 23.5q50 0 89 -22.5t66 -61.5t41.5 -91t14.5 -111q0 -11 -1 -23t-3 -23h-322zM536 487q-47 0 -77 -41t-36 -109h221q-3 32 -11 59.5t-21.5 47.5t-32.5 31.5t-43 11.5z" />
    <glyph glyph-name="cid260" unicode="&#x2122;" horiz-adv-x="849" 
d="M139 699h-107v71h300v-71h-107v-336h-86v336zM553 485l-95 144v-266h-84v407h76l129 -195l129 195h75v-407h-81v265l-96 -143h-53z" />
    <glyph glyph-name="cid643" unicode="&#x2126;" horiz-adv-x="766" 
d="M604 402q0 58 -16 109t-45 88.5t-70 59.5t-90 22q-50 0 -90.5 -22t-69.5 -59.5t-45 -88.5t-16 -109q0 -93 43 -172.5t134 -132.5v-97h-271v102h148q-79 57 -118 136.5t-39 173.5q0 77 24 144.5t66.5 118t102 79.5t131.5 29t131.5 -29t102 -79.5t66.5 -118t24 -144.5
q0 -94 -39 -173.5t-119 -136.5h149v-102h-271v97q90 53 133.5 132.5t43.5 172.5z" />
    <glyph glyph-name="cid142" unicode="&#x212b;" horiz-adv-x="758" 
d="M264 839q0 44 31.5 73.5t79.5 29.5q47 0 78.5 -29.5t31.5 -73.5q0 -27 -14 -48.5t-35 -34.5h5l283 -756h-119l-69 195h-323l-69 -195h-119l283 756h4q-21 13 -34.5 34.5t-13.5 48.5zM375 649l-130 -361h258zM326 839q0 -20 14 -33.5t35 -13.5q20 0 34 13.5t14 33.5
t-14 34t-34 14q-21 0 -35 -14t-14 -34z" />
    <glyph glyph-name="cid749" unicode="&#x2153;" 
d="M247 764v-510h-99v413l-86 -46l-38 70l137 73h86zM596 770h83l-375 -770h-83zM581 451q28 33 65.5 52t85.5 19q36 0 65.5 -11t50.5 -29.5t32.5 -44t11.5 -54.5q0 -33 -21 -61.5t-50 -43.5q41 -17 67.5 -49.5t26.5 -76.5q0 -35 -13.5 -64.5t-38 -51t-58 -34t-73.5 -12.5
q-54 0 -98.5 23t-71.5 65l63 57q19 -29 44.5 -46t59.5 -17q38 0 63 23.5t25 59.5q0 37 -27.5 59t-72.5 22h-56v79h57q35 0 56 18.5t21 46.5q0 23 -20.5 42t-50.5 19q-26 0 -46 -13.5t-37 -33.5z" />
    <glyph glyph-name="cid750" unicode="&#x2154;" 
d="M275 472q-62 -66 -124 -136h190v-82h-318v75l176 193q26 29 37.5 52t11.5 48q0 29 -20 49.5t-51 20.5q-55 0 -80 -70l-84 32q15 55 58 88t108 33q36 0 66.5 -10.5t53 -30t35 -47t12.5 -61.5q0 -42 -17.5 -78t-53.5 -76zM621 770h83l-375 -770h-83zM583 451q27 33 64.5 52
t85.5 19q36 0 65.5 -11t50.5 -29.5t32.5 -44t11.5 -54.5q0 -33 -20.5 -61.5t-49.5 -43.5q41 -17 67.5 -49.5t26.5 -76.5q0 -35 -13.5 -64.5t-38 -51t-58.5 -34t-74 -12.5q-54 0 -98 23t-71 65l62 57q19 -29 45 -46t59 -17q38 0 63.5 23.5t25.5 59.5q0 37 -27 59t-74 22h-56
v79h57q35 0 56 18.5t21 46.5q0 24 -20.5 42.5t-50.5 18.5q-26 0 -46 -13.5t-36 -33.5z" />
    <glyph glyph-name="cid753" unicode="&#x215b;" 
d="M268 764v-510h-99v413l-86 -46l-38 70l137 73h86zM643 156q0 -35 24.5 -59.5t60.5 -24.5q37 0 61.5 24.5t24.5 59.5t-24.5 59.5t-61.5 24.5q-36 0 -60.5 -24.5t-24.5 -59.5zM886 384q0 -32 -16.5 -59.5t-43.5 -42.5q40 -17 62.5 -51t22.5 -76q0 -35 -14 -65t-39 -51.5
t-58 -34t-72 -12.5q-38 0 -71.5 12.5t-58 34t-38.5 51.5t-14 65q0 42 22.5 76t62.5 51q-26 15 -43 42.5t-17 59.5q0 29 11.5 55t32.5 45t50 30t63 11t63 -11t50 -30t33 -45t12 -55zM664 382q0 -26 18.5 -44.5t45.5 -18.5q29 0 47 18.5t18 44.5t-18 44t-47 18
q-27 0 -45.5 -18t-18.5 -44zM602 770h83l-375 -770h-83z" />
    <glyph glyph-name="cid754" unicode="&#x215c;" 
d="M647 156q0 -35 25 -59.5t61 -24.5q37 0 61 24.5t24 59.5t-24 59.5t-61 24.5q-36 0 -61 -24.5t-25 -59.5zM890 384q0 -32 -16.5 -59.5t-43.5 -42.5q41 -17 63.5 -51t22.5 -76q0 -35 -14 -65t-39 -51.5t-58 -34t-72 -12.5t-72 12.5t-57.5 34t-38.5 51.5t-14 65q0 42 22 76
t63 51q-26 15 -43 42.5t-17 59.5q0 29 11.5 55t32.5 45t49.5 30t63.5 11q34 0 63 -11t50 -30t32.5 -45t11.5 -55zM668 382q0 -26 19 -44.5t46 -18.5q28 0 46.5 18.5t18.5 44.5t-18.5 44t-46.5 18q-27 0 -46 -18t-19 -44zM620 770h83l-375 -770h-83zM43 705q27 33 64.5 52
t85.5 19q36 0 65.5 -11t50.5 -30t32.5 -44.5t11.5 -54.5q0 -33 -20.5 -61t-49.5 -43q41 -18 67.5 -50t26.5 -76q0 -35 -13.5 -65t-38 -51.5t-58.5 -34t-74 -12.5q-54 0 -98 23.5t-71 64.5l62 57q19 -29 45 -45.5t59 -16.5q38 0 63.5 23.5t25.5 59.5q0 37 -27 59t-74 22h-56
v79h57q35 0 56 18.5t21 45.5q0 25 -20 43t-51 18q-26 0 -46 -13.5t-36 -32.5z" />
    <glyph glyph-name="cid755" unicode="&#x215d;" 
d="M196 243q-57 0 -99 22t-72 64l66 58q22 -29 46 -45t53 -16q38 0 64 25.5t26 64.5q0 42 -26.5 68.5t-65.5 26.5q-32 0 -55.5 -10t-44.5 -28l-28 12v280h294v-84h-199v-108q25 15 59 15q36 0 66 -12t52 -34.5t34.5 -54.5t12.5 -71q0 -36 -13 -67.5t-36.5 -55t-57.5 -37
t-76 -13.5zM647 156q0 -35 25 -59.5t61 -24.5q37 0 61 24.5t24 59.5t-24 59.5t-61 24.5q-36 0 -61 -24.5t-25 -59.5zM890 384q0 -32 -16.5 -59.5t-43.5 -42.5q41 -17 63.5 -51t22.5 -76q0 -35 -14 -65t-39 -51.5t-58 -34t-72 -12.5t-72 12.5t-57.5 34t-38.5 51.5t-14 65
q0 42 22 76t63 51q-26 15 -43 42.5t-17 59.5q0 29 11.5 55t32.5 45t49.5 30t63.5 11q34 0 63 -11t50 -30t32.5 -45t11.5 -55zM668 382q0 -26 19 -44.5t46 -18.5q28 0 46.5 18.5t18.5 44.5t-18.5 44t-46.5 18q-27 0 -46 -18t-19 -44zM622 770h83l-375 -770h-83z" />
    <glyph glyph-name="cid756" unicode="&#x215e;" 
d="M368 766v-76l-182 -435h-109l181 426h-219v85h329zM643 156q0 -35 25 -59.5t61 -24.5q37 0 61 24.5t24 59.5t-24 59.5t-61 24.5q-36 0 -61 -24.5t-25 -59.5zM886 384q0 -32 -16.5 -59.5t-43.5 -42.5q41 -17 63.5 -51t22.5 -76q0 -35 -14 -65t-39 -51.5t-58 -34t-72 -12.5
t-72 12.5t-57.5 34t-38.5 51.5t-14 65q0 42 22 76t63 51q-26 15 -43 42.5t-17 59.5q0 29 11.5 55t32.5 45t49.5 30t63.5 11q34 0 63 -11t50 -30t32.5 -45t11.5 -55zM664 382q0 -26 19 -44.5t46 -18.5q28 0 46.5 18.5t18.5 44.5t-18.5 44t-46.5 18q-27 0 -46 -18t-19 -44z
M590 770h83l-375 -770h-83z" />
    <glyph glyph-name="cid461" unicode="&#x2160;" 
d="M332 770h275v-98h-82v-574h82v-98h-275v98h82v574h-82v98z" />
    <glyph glyph-name="cid462" unicode="&#x2161;" 
d="M218 770h503v-94h-72v-577h72v-99h-503v99h72v577h-72v94zM400 676v-577h139v577h-139z" />
    <glyph glyph-name="cid463" unicode="&#x2162;" 
d="M123 770h693v-94h-72v-582h72v-94h-693v94h72v582h-72v94zM524 94h109v582h-109v-582zM415 94v582h-109v-582h109z" />
    <glyph glyph-name="cid464" unicode="&#x2163;" 
d="M902 770l-212 -770h-119l-211 770h117l154 -622l154 622h117zM72 770h269v-94h-79v-582h79v-94h-269v94h79v582h-79v94z" />
    <glyph glyph-name="cid465" unicode="&#x2164;" 
d="M526 0h-113l-279 769h117l219 -631l219 631h117z" />
    <glyph glyph-name="cid466" unicode="&#x2165;" 
d="M250 0l-212 769h117l154 -621l154 621h117l-212 -769h-118zM868 675h-80v-581h80v-94h-270v94h80v581h-80v94h270v-94z" />
    <glyph glyph-name="cid467" unicode="&#x2166;" 
d="M890 675h-58v-581h58v-94h-387v94h58v581h-58v94h387v-94zM58 769h103l112 -620l111 620h103l-162 -769h-105zM656 94h81v581h-81v-581z" />
    <glyph glyph-name="cid468" unicode="&#x2167;" 
d="M165 0l-139 770h98l92 -621l91 621h98l-139 -770h-101zM904 676h-54v-582h54v-94h-489v94h50v582h-50v94h489v-94zM553 94h61v582h-61v-582zM701 94h61v582h-61v-582z" />
    <glyph glyph-name="cid469" unicode="&#x2168;" 
d="M74 770h269v-94h-79v-582h79v-94h-269v94h79v582h-79v94zM488 0h-121l201 393l-188 377h121l136 -290l137 290h121l-188 -377l201 -393h-121l-150 305z" />
    <glyph glyph-name="cid470" unicode="&#x2169;" 
d="M142 0l261 391l-250 379h122l194 -298l196 298h121l-249 -379l260 -391h-122l-206 311l-205 -311h-122z" />
    <glyph glyph-name="cid451" unicode="&#x2170;" 
d="M415 570h108v-570h-108v570zM400 726q0 29 20 49t49 20t49.5 -20t20.5 -49t-20.5 -48.5t-49.5 -19.5t-49 19.5t-20 48.5z" />
    <glyph glyph-name="cid452" unicode="&#x2171;" 
d="M275 570h108v-570h-108v570zM260 726q0 29 20 49t49 20t49.5 -20t20.5 -49t-20.5 -48.5t-49.5 -19.5t-49 19.5t-20 48.5zM555 570h108v-570h-108v570zM540 726q0 29 20 49t49 20t49.5 -20t20.5 -49t-20.5 -48.5t-49.5 -19.5t-49 19.5t-20 48.5z" />
    <glyph glyph-name="cid453" unicode="&#x2172;" 
d="M415 570h108v-570h-108v570zM400 726q0 29 20 49t49 20t49.5 -20t20.5 -49t-20.5 -48.5t-49.5 -19.5t-49 19.5t-20 48.5zM175 570h108v-570h-108v570zM160 726q0 29 20 49t49 20t49.5 -20t20.5 -49t-20.5 -48.5t-49.5 -19.5t-49 19.5t-20 48.5zM655 570h108v-570h-108
v570zM640 726q0 29 20 49t49 20t49.5 -20t20.5 -49t-20.5 -48.5t-49.5 -19.5t-49 19.5t-20 48.5z" />
    <glyph glyph-name="cid454" unicode="&#x2173;" 
d="M843 570l-208 -570h-113l-209 570h114l151 -432l152 432h113zM162 570h108v-570h-108v570zM147 726q0 29 20 49t49 20t49 -20t20 -49t-20 -48.5t-49 -19.5t-49 19.5t-20 48.5z" />
    <glyph glyph-name="cid455" unicode="&#x2174;" 
d="M744 570l-218 -570h-113l-218 570h113l162 -432l161 432h113z" />
    <glyph glyph-name="cid456" unicode="&#x2175;" 
d="M783 0h-108v570h108v-570zM798 726q0 -29 -20 -48.5t-49 -19.5t-49.5 19.5t-20.5 48.5t20.5 49t49.5 20t49 -20t20 -49zM310 0l-208 570h113l151 -432l152 432h113l-208 -570h-113z" />
    <glyph glyph-name="cid457" unicode="&#x2176;" 
d="M650 0h-108v570h108v-570zM665 726q0 -29 -20 -48.5t-49 -19.5t-49 19.5t-20 48.5t20 49t49 20t49 -20t20 -49zM227 0l-158 570h113l102 -432l101 432h114l-159 -570h-113zM840 0h-108v570h108v-570zM855 726q0 -29 -20 -48.5t-49 -19.5t-49 19.5t-20 48.5t20 49t49 20
t49 -20t20 -49z" />
    <glyph glyph-name="cid458" unicode="&#x2177;" 
d="M528 0h-94v570h94v-570zM541 726q0 -29 -17 -48.5t-43 -19.5t-43.5 19.5t-17.5 48.5t17.5 49t43.5 20t43 -20t17 -49zM172 0l-124 570h99l74 -432l75 432h99l-124 -570h-99zM688 0h-94v570h94v-570zM701 726q0 -29 -17 -48.5t-43 -19.5t-43.5 19.5t-17.5 48.5t17.5 49
t43.5 20t43 -20t17 -49zM848 0h-94v570h94v-570zM861 726q0 -29 -17 -48.5t-43 -19.5t-43.5 19.5t-17.5 48.5t17.5 49t43.5 20t43 -20t17 -49z" />
    <glyph glyph-name="cid459" unicode="&#x2178;" 
d="M162 570h108v-570h-108v570zM147 726q0 29 20 49t49 20t49 -20t20 -49t-20 -48.5t-49 -19.5t-49 19.5t-20 48.5zM303 0l207 290l-192 280h119l141 -208l141 208h119l-192 -280l207 -290h-120l-155 219l-155 -219h-120z" />
    <glyph glyph-name="cid460" unicode="&#x2179;" 
d="M195 0l206 290l-191 280h119l141 -208l140 208h119l-191 -280l206 -290h-119l-155 219l-156 -219h-119z" />
    <glyph glyph-name="cid171" unicode="&#x2190;" horiz-adv-x="903" 
d="M865 309h-627v-107l-200 146l200 147v-108h627v-78z" />
    <glyph glyph-name="cid172" unicode="&#x2191;" horiz-adv-x="903" 
d="M412 -10v587h-107l146 200l147 -200h-108v-587h-78z" />
    <glyph glyph-name="cid170" unicode="&#x2192;" horiz-adv-x="903" 
d="M38 387h627v108l200 -147l-200 -146v107h-627v78z" />
    <glyph glyph-name="cid173" unicode="&#x2193;" horiz-adv-x="903" 
d="M490 777v-587h108l-147 -200l-146 200h107v587h78z" />
    <glyph glyph-name="cid174" unicode="&#x2194;" horiz-adv-x="903" 
d="M238 395h427v108l200 -147l-200 -146v107h-427v-107l-200 146l200 147v-108z" />
    <glyph glyph-name="cid247" unicode="&#x2195;" 
d="M422 159v431h-111l157 206l156 -206h-110v-431h110l-156 -206l-156 206h110z" />
    <glyph glyph-name="cid250" unicode="&#x2196;" 
d="M813 -13l-622 619l-81 -80l-36 265l263 -38l-80 -80l623 -619z" />
    <glyph glyph-name="cid248" unicode="&#x2197;" 
d="M84 52l602 599l-77 78l255 37l-34 -256l-78 77l-603 -600z" />
    <glyph glyph-name="cid251" unicode="&#x2198;" 
d="M149 759l603 -600l78 78l35 -257l-256 37l77 77l-602 600z" />
    <glyph glyph-name="cid249" unicode="&#x2199;" 
d="M859 694l-602 -600l77 -76l-255 -37l35 256l77 -78l603 600z" />
    <glyph glyph-name="cid195" unicode="&#x21d2;" 
d="M754 298l62 61l-62 62h-726v65h663l-84 84l49 48l251 -259l-251 -258l-49 47l84 85h-663v65h726z" />
    <glyph glyph-name="cid196" unicode="&#x21d4;" 
d="M277 618l49 -48l-84 -84h448l-83 84l49 48l251 -259l-251 -258l-49 47l83 85h-448l84 -85l-49 -47l-251 258zM754 421h-576l-61 -62l61 -61h576l62 61z" />
    <glyph glyph-name="cid197" unicode="&#x2200;" horiz-adv-x="750" 
d="M604 770h121l-289 -770h-123l-288 770h120l69 -195h321zM375 123l127 357h-255z" />
    <glyph glyph-name="cid151" unicode="&#x2202;" horiz-adv-x="672" 
d="M311 501q63 0 112.5 -26.5t81.5 -61.5q-3 61 -16 110.5t-37.5 84.5t-60 54.5t-82.5 19.5q-46 0 -87 -19t-75 -52l-47 88q42 43 96 63.5t114 20.5q74 0 132 -29t98 -81.5t61 -126.5t21 -163q0 -96 -23 -169.5t-63.5 -124t-96 -76.5t-120.5 -26q-59 0 -110 20t-89 54.5
t-59.5 81.5t-21.5 101t22 101t59.5 81.5t86.5 54.5t104 20zM319 87q35 0 66 13t55 39.5t40.5 68t22.5 98.5q-35 44 -82 69.5t-102 25.5q-35 0 -65 -12t-52.5 -33.5t-35 -50t-12.5 -61.5t12.5 -62t35 -50t52.5 -33t65 -12z" />
    <glyph glyph-name="cid198" unicode="&#x2203;" horiz-adv-x="617" 
d="M550 0h-458v96h347v233h-319v96h319v249h-357v96h468v-770z" />
    <glyph glyph-name="cid152" unicode="&#x2207;" horiz-adv-x="750" 
d="M439 0h-128l-287 770h702zM375 127l195 544h-391z" />
    <glyph glyph-name="cid184" unicode="&#x2208;" horiz-adv-x="750" 
d="M328 536q-31 0 -58 -9.5t-49 -26t-37.5 -38.5t-22.5 -47h553v-96h-555q7 -27 22 -50t37 -40t50 -27t60 -10h386v-108h-398q-60 0 -111.5 22t-89 60t-59 89t-21.5 109t21.5 108.5t59 88.5t89 60t111.5 22h398v-107h-386z" />
    <glyph glyph-name="cid185" unicode="&#x220b;" horiz-adv-x="750" 
d="M420 192q32 0 60 10t50 27t37 40t22 50h-554v96h552q-8 25 -23.5 47t-37 38.5t-48.5 26t-58 9.5h-385v107h398q60 0 111.5 -22t89 -60t59 -88.5t21.5 -108.5t-21.5 -109t-59 -89t-89 -60t-111.5 -22h-398v108h385z" />
    <glyph glyph-name="cid213" unicode="&#x220f;" horiz-adv-x="743" 
d="M652 -122h-116v835h-329v-835h-117v936h562v-936z" />
    <glyph glyph-name="cid212" unicode="&#x2211;" horiz-adv-x="716" 
d="M354 352l-287 358v104h581v-101h-444l265 -331v-60l-264 -344h443v-100h-581v103z" />
    <glyph glyph-name="cid178" unicode="&#x221a;" horiz-adv-x="616" 
d="M210 0l-187 413h122l119 -274l210 708h119l-257 -847h-126z" />
    <glyph glyph-name="cid180" unicode="&#x221d;" horiz-adv-x="749" 
d="M696 162q-65 3 -122.5 34t-99.5 81q-45 -59 -95.5 -87.5t-104.5 -28.5q-50 0 -90 15t-69 42.5t-44.5 66t-15.5 85.5q0 41 13 79t40 67t68 46.5t98 17.5q55 0 105 -28.5t95 -88.5q43 54 98.5 83.5t123.5 32.5v-103q-50 -3 -93 -30.5t-71 -75.5q30 -47 73.5 -73.5
t90.5 -31.5v-103zM274 263q36 0 72.5 25.5t70.5 81.5q-31 52 -68.5 80t-74.5 28q-29 0 -49.5 -9.5t-34 -25t-20 -35t-6.5 -38.5q0 -49 31.5 -78t78.5 -29z" />
    <glyph glyph-name="cid136" unicode="&#x221e;" horiz-adv-x="930" 
d="M255 479q-18 0 -35 -8t-30.5 -22t-22 -34.5t-8.5 -44.5t8.5 -44.5t22 -36t30.5 -24t35 -8.5q44 0 82 30.5t67 82.5q-29 51 -63.5 80t-85.5 29zM465 296q-34 -57 -89.5 -94t-128.5 -37q-49 0 -86 18t-61.5 47.5t-37 66t-12.5 73.5t12.5 72.5t37 64t61.5 46t86 17.5
q80 0 132 -35.5t86 -91.5q35 57 90 92t128 35q49 0 86 -17.5t62 -46t37 -64t12 -72.5t-12 -73.5t-37 -66t-62 -47.5t-86 -18q-73 0 -128 37t-90 94zM674 479q-44 0 -81.5 -29t-66.5 -80q29 -52 66.5 -82.5t81.5 -30.5q18 0 35.5 8.5t31 24t22 36t8.5 44.5t-8.5 44.5
t-22 34.5t-31 22t-35.5 8z" />
    <glyph glyph-name="cid148" unicode="&#x2220;" horiz-adv-x="773" 
d="M546 702l62 -55l-402 -521h493v-82h-665z" />
    <glyph glyph-name="cid192" unicode="&#x2227;" horiz-adv-x="746" 
d="M428 698l251 -657h-112l-194 514l-193 -514h-113l251 657h110z" />
    <glyph glyph-name="cid193" unicode="&#x2228;" horiz-adv-x="746" 
d="M318 41l-251 657h113l193 -514l194 514h112l-251 -657h-110z" />
    <glyph glyph-name="cid191" unicode="&#x2229;" horiz-adv-x="703" 
d="M350 577q-33 0 -61.5 -13.5t-50 -37t-33.5 -56t-12 -70.5v-400h-117v408q0 57 21.5 106t58.5 86t87 58t107 21q58 0 108.5 -21t87.5 -58t58 -86t21 -106v-408h-116v400q0 38 -12 70.5t-33.5 56t-50.5 37t-63 13.5z" />
    <glyph glyph-name="cid190" unicode="&#x222a;" horiz-adv-x="703" 
d="M350 95q34 0 63 13.5t50.5 37.5t33.5 56t12 70v401h116v-408q0 -57 -21 -106t-58 -86t-87.5 -58t-108.5 -21q-57 0 -107 21t-87 58t-58.5 86t-21.5 106v408h117v-401q0 -38 12 -70t33.5 -56t50 -37.5t61.5 -13.5z" />
    <glyph glyph-name="cid182" unicode="&#x222b;" horiz-adv-x="470" 
d="M291 -57q0 -198 -208 -198q-16 0 -32.5 1t-28.5 3v93q11 -2 25 -2.5t27 -0.5q57 0 81 26.5t24 78.5v704q0 199 207 199q17 0 33.5 -1.5t27.5 -3.5v-93q-11 2 -24.5 2.5t-26.5 0.5q-57 0 -81 -27t-24 -78v-704z" />
    <glyph glyph-name="cid183" unicode="&#x222c;" horiz-adv-x="767" 
d="M291 -57q0 -198 -208 -198q-16 0 -32.5 1t-28.5 3v93q11 -2 25 -2.5t27 -0.5q57 0 81 26.5t24 78.5v704q0 199 207 199q17 0 33.5 -1.5t27.5 -3.5v-93q-11 2 -24.5 2.5t-26.5 0.5q-57 0 -81 -27t-24 -78v-704zM588 -57q0 -198 -208 -198q-16 0 -32.5 1t-28.5 3v93
q11 -2 25 -2.5t27 -0.5q57 0 81 26.5t24 78.5v704q0 199 207 199q17 0 33.5 -1.5t27.5 -3.5v-93q-11 2 -24.5 2.5t-26.5 0.5q-57 0 -81 -27t-24 -78v-704z" />
    <glyph glyph-name="cid211" unicode="&#x222e;" horiz-adv-x="474" 
d="M291 525q37 -9 69.5 -30t55.5 -50t36.5 -65.5t13.5 -76.5q0 -41 -13.5 -77.5t-36.5 -65.5t-55.5 -50t-69.5 -30v-137q0 -198 -208 -198q-16 0 -32.5 1.5t-28.5 3.5v92q11 -1 25 -1.5t27 -0.5q57 0 81 26.5t24 78.5v135q-38 9 -69.5 30t-54.5 50.5t-36 65.5t-13 77
q0 40 13 76t36 65.5t54.5 50.5t69.5 30v123q0 199 207 199q17 0 33 -1.5t28 -3.5v-93q-11 2 -24.5 2.5t-26.5 0.5q-57 0 -81 -27t-24 -78v-122zM386 303q0 48 -26.5 84.5t-68.5 51.5v-273q42 15 68.5 52t26.5 85zM87 303q0 -48 25 -84.5t67 -51.5v272q-42 -16 -67 -52.5
t-25 -83.5z" />
    <glyph glyph-name="cid137" unicode="&#x2234;" 
d="M160 128q0 32 21.5 53t53.5 21t53 -21t21 -53t-21 -53t-53 -21t-53.5 21t-21.5 53zM630 128q0 32 21.5 53t53.5 21t53 -21t21 -53t-21 -53t-53 -21t-53.5 21t-21.5 53zM395 578q0 32 21.5 53t53.5 21t53 -21t21 -53t-21 -53t-53 -21t-53.5 21t-21.5 53z" />
    <glyph glyph-name="cid181" unicode="&#x2235;" 
d="M395 128q0 31 21.5 52.5t53.5 21.5t53 -21.5t21 -52.5q0 -32 -21 -53t-53 -21t-53.5 21t-21.5 53zM630 578q0 31 21.5 52.5t53.5 21.5t53 -21.5t21 -52.5q0 -32 -21 -53t-53 -21t-53.5 21t-21.5 53zM160 578q0 31 21.5 52.5t53.5 21.5t53 -21.5t21 -52.5q0 -32 -21 -53
t-53 -21t-53.5 21t-21.5 53z" />
    <glyph glyph-name="cid113" unicode="&#x223c;" horiz-adv-x="632" 
d="M299 312q-22 21 -45 39.5t-48 18.5q-29 0 -46 -24.5t-25 -71.5l-102 25q14 79 54.5 123.5t106.5 44.5q40 0 75.5 -17t61.5 -43q21 -21 45 -39.5t48 -18.5q55 0 72 97l101 -25q-14 -80 -53.5 -124.5t-105.5 -44.5q-42 0 -77.5 17t-61.5 43z" />
    <glyph glyph-name="cid113" unicode="&#xff5e;" horiz-adv-x="632" 
d="M299 312q-22 21 -45 39.5t-48 18.5q-29 0 -46 -24.5t-25 -71.5l-102 25q14 79 54.5 123.5t106.5 44.5q40 0 75.5 -17t61.5 -43q21 -21 45 -39.5t48 -18.5q55 0 72 97l101 -25q-14 -80 -53.5 -124.5t-105.5 -44.5q-42 0 -77.5 17t-61.5 43z" />
    <glyph glyph-name="cid179" unicode="&#x223d;" horiz-adv-x="632" 
d="M331 312q-26 -25 -61.5 -42.5t-76.5 -17.5q-66 0 -106 44.5t-54 124.5l101 25q18 -97 73 -97q24 0 47.5 18.5t44.5 39.5q26 26 61.5 43t76.5 17q66 0 106 -44.5t54 -123.5l-101 -25q-8 47 -25.5 71.5t-46.5 24.5q-24 0 -47.5 -18.5t-45.5 -39.5z" />
    <glyph glyph-name="cid154" unicode="&#x2252;" horiz-adv-x="641" 
d="M345 88q0 31 21 52t52 21q32 0 53 -21t21 -52t-21 -51.5t-53 -20.5q-31 0 -52 20.5t-21 51.5zM65 413v97h503v-97h-503zM568 317v-97h-503v97h503zM140 641q0 31 21 52t52 21q32 0 53 -21t21 -52t-21 -51.5t-53 -20.5q-31 0 -52 20.5t-21 51.5z" />
    <glyph glyph-name="cid133" unicode="&#x2260;" horiz-adv-x="633" 
d="M271 190l-78 -151h-87l78 151h-119v97h170l81 156h-251v97h301l73 137h86l-72 -137h115v-97h-165l-82 -156h247v-97h-297z" />
    <glyph glyph-name="cid153" unicode="&#x2261;" horiz-adv-x="633" 
d="M65 501v96h503v-96h-503zM65 132v97h503v-97h-503zM65 316v97h503v-97h-503z" />
    <glyph glyph-name="cid134" unicode="&#x2264;" horiz-adv-x="633" 
d="M69 471l491 212v-106l-351 -150l351 -148v-106l-491 212v86zM65 0v97h503v-97h-503z" />
    <glyph glyph-name="cid135" unicode="&#x2265;" horiz-adv-x="633" 
d="M563 385l-491 -212v106l351 148l-351 150v106l491 -212v-86zM65 0v97h503v-97h-503z" />
    <glyph glyph-name="cid188" unicode="&#x2282;" horiz-adv-x="750" 
d="M151 364q0 -34 13 -65t36.5 -55t56 -38t71.5 -14h386v-108h-398q-60 0 -111.5 22t-89 60t-59 89t-21.5 109t21.5 108.5t59 88.5t89 60t111.5 22h398v-107h-386q-39 0 -71.5 -14.5t-56 -38.5t-36.5 -55t-13 -64z" />
    <glyph glyph-name="cid189" unicode="&#x2283;" horiz-adv-x="750" 
d="M597 364q0 33 -13 64t-36.5 55t-56 38.5t-71.5 14.5h-385v107h398q60 0 111.5 -22t89 -60t59 -88.5t21.5 -108.5t-21.5 -109t-59 -89t-89 -60t-111.5 -22h-398v108h385q39 0 71.5 14t56 38t36.5 55t13 65z" />
    <glyph glyph-name="cid186" unicode="&#x2286;" horiz-adv-x="750" 
d="M151 483q0 -33 13 -62t36 -50t56 -33t72 -12h386v-107h-396q-60 0 -112 19t-90 53.5t-59.5 83t-21.5 108.5t21.5 108.5t59.5 83.5t90 54t112 19h396v-108h-386q-39 0 -72 -12t-56 -33t-36 -50t-13 -62zM65 126h649v-106h-649v106z" />
    <glyph glyph-name="cid187" unicode="&#x2287;" horiz-adv-x="750" 
d="M597 483q0 33 -13 62t-36 50t-55.5 33t-72.5 12h-385v108h395q60 0 112 -19t90.5 -54t60 -83.5t21.5 -108.5t-21.5 -108.5t-60 -83t-90.5 -53.5t-112 -19h-395v107h385q40 0 72.5 12t55.5 33t36 50t13 62zM684 20h-649v106h649v-106z" />
    <glyph glyph-name="cid227" unicode="&#x2299;" 
d="M847 360q0 -87 -31 -155.5t-83 -115.5t-120.5 -72t-142.5 -25q-83 0 -152 28t-119 77.5t-78 116.5t-28 146q0 72 25.5 138.5t74 117.5t118.5 81.5t159 30.5q79 0 148 -27t120 -75.5t80 -116.5t29 -149zM794 360q0 61 -22 118t-64 101t-102 71t-136 27q-69 0 -128.5 -24.5
t-103 -67t-68.5 -100.5t-25 -125q0 -73 26.5 -131.5t71.5 -100t103.5 -63.5t123.5 -22q66 0 125 22.5t103 64t70 100t26 130.5zM663 360q0 -50 -18 -85.5t-46 -58.5t-62 -34t-67 -11q-42 0 -77 14t-61 39t-40.5 60t-14.5 76q0 32 11.5 65.5t35.5 60.5t60 44.5t86 17.5
q39 0 74 -13.5t61.5 -38t42 -59t15.5 -77.5z" />
    <glyph glyph-name="cid227" unicode="&#x25c9;" 
d="M847 360q0 -87 -31 -155.5t-83 -115.5t-120.5 -72t-142.5 -25q-83 0 -152 28t-119 77.5t-78 116.5t-28 146q0 72 25.5 138.5t74 117.5t118.5 81.5t159 30.5q79 0 148 -27t120 -75.5t80 -116.5t29 -149zM794 360q0 61 -22 118t-64 101t-102 71t-136 27q-69 0 -128.5 -24.5
t-103 -67t-68.5 -100.5t-25 -125q0 -73 26.5 -131.5t71.5 -100t103.5 -63.5t123.5 -22q66 0 125 22.5t103 64t70 100t26 130.5zM663 360q0 -50 -18 -85.5t-46 -58.5t-62 -34t-67 -11q-42 0 -77 14t-61 39t-40.5 60t-14.5 76q0 32 11.5 65.5t35.5 60.5t60 44.5t86 17.5
q39 0 74 -13.5t61.5 -38t42 -59t15.5 -77.5z" />
    <glyph glyph-name="cid149" unicode="&#x22a5;" horiz-adv-x="808" 
d="M351 699h94v-573h297v-82h-688v82h297v573z" />
    <glyph glyph-name="cid150" unicode="&#x2312;" horiz-adv-x="708" 
d="M348 292q55 0 102 -22t81.5 -58t54.5 -82.5t20 -95.5v-34h-94v34q0 28 -10.5 58t-31 55.5t-51.5 42t-71 16.5q-42 0 -72.5 -17t-50.5 -43t-29.5 -56t-9.5 -56v-34h-94v34q0 43 17 89t49.5 83.5t80 61.5t109.5 24z" />
    <glyph glyph-name="cid733" unicode="&#x2460;" 
d="M540 682v-613h-92v520l-111 -59l-39 72l153 80h89zM862 370q0 79 -29 151t-81 127t-124 87t-158 32q-87 0 -159.5 -32.5t-124.5 -87.5t-80.5 -127t-28.5 -150q0 -87 31.5 -160t85.5 -125.5t125 -82t151 -29.5q76 0 146.5 28t125 80t87.5 125.5t33 163.5zM910 370
q0 -99 -35.5 -180t-96 -138.5t-140.5 -89.5t-168 -32q-93 0 -173 33.5t-139.5 92.5t-93.5 139.5t-34 174.5q0 95 34.5 175.5t94 139.5t139.5 92t172 33q87 0 167 -32t140.5 -89.5t96.5 -138.5t36 -180z" />
    <glyph glyph-name="cid734" unicode="&#x2461;" 
d="M406 150h253v-80h-369v80l208 228q36 39 53 70.5t17 64.5q0 45 -28 72.5t-73 27.5q-73 0 -108 -81l-79 33q22 57 69 93.5t119 36.5q42 0 77 -12.5t61 -36t40.5 -56.5t14.5 -73q0 -51 -22.5 -95t-66.5 -92zM862 370q0 79 -29 151t-81 127t-124 87t-158 32
q-87 0 -159.5 -32.5t-124.5 -87.5t-80.5 -127t-28.5 -150q0 -87 31.5 -160t85.5 -125.5t125 -82t151 -29.5q76 0 146.5 28t125 80t87.5 125.5t33 163.5zM910 370q0 -99 -35.5 -180t-96 -138.5t-140.5 -89.5t-168 -32q-93 0 -173 33.5t-139.5 92.5t-93.5 139.5t-34 174.5
q0 95 34.5 175.5t94 139.5t139.5 92t172 33q87 0 167 -32t140.5 -89.5t96.5 -138.5t36 -180z" />
    <glyph glyph-name="cid735" unicode="&#x2462;" 
d="M305 620q30 34 71.5 53.5t97.5 19.5q40 0 74 -12.5t58 -34t37.5 -50.5t13.5 -63q0 -38 -24.5 -74.5t-77.5 -53.5q61 -17 95 -61t34 -99q0 -40 -16 -74t-44 -59t-66.5 -39.5t-83.5 -14.5q-62 0 -111 25t-80 67l61 57q23 -32 54 -50.5t75 -18.5q25 0 47 8.5t38.5 23.5
t26 35.5t9.5 44.5q0 51 -37.5 83t-100.5 32h-56v77h57q48 0 79 24.5t31 62.5t-30 60.5t-72 22.5q-34 0 -59 -14.5t-45 -34.5zM862 370q0 79 -29 151t-81 127t-124 87t-158 32q-87 0 -159.5 -32.5t-124.5 -87.5t-80.5 -127t-28.5 -150q0 -87 31.5 -160t85.5 -125.5t125 -82
t151 -29.5q76 0 146.5 28t125 80t87.5 125.5t33 163.5zM910 370q0 -99 -35.5 -180t-96 -138.5t-140.5 -89.5t-168 -32q-93 0 -173 33.5t-139.5 92.5t-93.5 139.5t-34 174.5q0 95 34.5 175.5t94 139.5t139.5 92t172 33q87 0 167 -32t140.5 -89.5t96.5 -138.5t36 -180z" />
    <glyph glyph-name="cid736" unicode="&#x2463;" 
d="M207 269l277 413h90v-413h73v-83h-73v-117h-91v117h-276v83zM483 269v269l-180 -269h180zM862 370q0 79 -29 151t-81 127t-124 87t-158 32q-87 0 -159.5 -32.5t-124.5 -87.5t-80.5 -127t-28.5 -150q0 -87 31.5 -160t85.5 -125.5t125 -82t151 -29.5q76 0 146.5 28t125 80
t87.5 125.5t33 163.5zM910 370q0 -99 -35.5 -180t-96 -138.5t-140.5 -89.5t-168 -32q-93 0 -173 33.5t-139.5 92.5t-93.5 139.5t-34 174.5q0 95 34.5 175.5t94 139.5t139.5 92t172 33q87 0 167 -32t140.5 -89.5t96.5 -138.5t36 -180z" />
    <glyph glyph-name="cid737" unicode="&#x2464;" 
d="M313 353v327h340v-81h-252v-163q39 18 87 18q40 0 74.5 -14.5t60 -41t39.5 -64t14 -84.5q0 -38 -14.5 -73.5t-41.5 -62.5t-65.5 -43.5t-86.5 -16.5q-71 0 -117 24t-84 71l65 56q28 -37 58.5 -53.5t70.5 -16.5q55 0 89.5 31.5t34.5 84.5q0 59 -35.5 94.5t-101.5 35.5
q-31 0 -60.5 -12t-54.5 -29zM862 370q0 79 -29 151t-81 127t-124 87t-158 32q-87 0 -159.5 -32.5t-124.5 -87.5t-80.5 -127t-28.5 -150q0 -87 31.5 -160t85.5 -125.5t125 -82t151 -29.5q76 0 146.5 28t125 80t87.5 125.5t33 163.5zM910 370q0 -99 -35.5 -180t-96 -138.5
t-140.5 -89.5t-168 -32q-93 0 -173 33.5t-139.5 92.5t-93.5 139.5t-34 174.5q0 95 34.5 175.5t94 139.5t139.5 92t172 33q87 0 167 -32t140.5 -89.5t96.5 -138.5t36 -180z" />
    <glyph glyph-name="cid738" unicode="&#x2465;" 
d="M477 681h103l-150 -231q9 5 21.5 6t18.5 1q40 0 77.5 -13.5t66.5 -39t47 -62.5t18 -83q0 -45 -18 -82t-48.5 -64t-69.5 -42t-81 -15q-43 0 -83 15t-70.5 42t-48.5 64t-18 82q0 26 8 54.5t23 51.5zM587 259q0 27 -10 49.5t-27 39t-40 26t-49 9.5q-27 0 -50 -9.5t-40.5 -26
t-27.5 -39t-10 -49.5q0 -26 10 -48.5t27.5 -39t40.5 -26t50 -9.5q26 0 49 9.5t40 26t27 39t10 48.5zM862 370q0 79 -29 151t-81 127t-124 87t-158 32q-87 0 -159.5 -32.5t-124.5 -87.5t-80.5 -127t-28.5 -150q0 -87 31.5 -160t85.5 -125.5t125 -82t151 -29.5q76 0 146.5 28
t125 80t87.5 125.5t33 163.5zM910 370q0 -99 -35.5 -180t-96 -138.5t-140.5 -89.5t-168 -32q-93 0 -173 33.5t-139.5 92.5t-93.5 139.5t-34 174.5q0 95 34.5 175.5t94 139.5t139.5 92t172 33q87 0 167 -32t140.5 -89.5t96.5 -138.5t36 -180z" />
    <glyph glyph-name="cid739" unicode="&#x2466;" 
d="M660 682v-79l-220 -534h-102l222 530h-280v83h380zM862 370q0 79 -29 151t-81 127t-124 87t-158 32q-87 0 -159.5 -32.5t-124.5 -87.5t-80.5 -127t-28.5 -150q0 -87 31.5 -160t85.5 -125.5t125 -82t151 -29.5q76 0 146.5 28t125 80t87.5 125.5t33 163.5zM910 370
q0 -99 -35.5 -180t-96 -138.5t-140.5 -89.5t-168 -32q-93 0 -173 33.5t-139.5 92.5t-93.5 139.5t-34 174.5q0 95 34.5 175.5t94 139.5t139.5 92t172 33q87 0 167 -32t140.5 -89.5t96.5 -138.5t36 -180z" />
    <glyph glyph-name="cid740" unicode="&#x2467;" 
d="M348 249q0 -23 9.5 -44t26 -36.5t38.5 -24.5t48 -9q27 0 49 9t38.5 24.5t25.5 36.5t9 44q0 24 -9 44.5t-25.5 36.5t-38.5 25t-49 9q-26 0 -48 -9t-38.5 -25t-26 -36.5t-9.5 -44.5zM652 530q0 -38 -20.5 -72t-58.5 -54q57 -22 84 -64t27 -93q0 -41 -16.5 -75.5
t-45.5 -59.5t-68 -39.5t-84 -14.5t-84 14.5t-68 39.5t-45.5 59.5t-16.5 75.5q0 51 27.5 93t84.5 64q-38 20 -58.5 54t-20.5 72q0 33 13.5 62.5t37.5 51.5t57 35t73 13t73.5 -13t57.5 -35t37.5 -51.5t13.5 -62.5zM375 528q0 -18 7 -34t20 -28t30.5 -19.5t37.5 -7.5t37.5 7.5
t30.5 19.5t20.5 28t7.5 34t-7.5 33.5t-20.5 27t-30.5 18t-37.5 6.5t-37.5 -6.5t-30.5 -18t-20 -27t-7 -33.5zM862 370q0 79 -29 151t-81 127t-124 87t-158 32q-87 0 -159.5 -32.5t-124.5 -87.5t-80.5 -127t-28.5 -150q0 -87 31.5 -160t85.5 -125.5t125 -82t151 -29.5
q76 0 146.5 28t125 80t87.5 125.5t33 163.5zM910 370q0 -99 -35.5 -180t-96 -138.5t-140.5 -89.5t-168 -32q-93 0 -173 33.5t-139.5 92.5t-93.5 139.5t-34 174.5q0 95 34.5 175.5t94 139.5t139.5 92t172 33q87 0 167 -32t140.5 -89.5t96.5 -138.5t36 -180z" />
    <glyph glyph-name="cid741" unicode="&#x2468;" 
d="M452 67h-103l150 231q-9 -4 -21.5 -5.5t-19.5 -1.5q-39 0 -76.5 13.5t-67 39t-47 62.5t-17.5 83q0 45 18 82.5t48.5 64.5t69.5 42t81 15q43 0 83 -15t70.5 -42t48.5 -64.5t18 -82.5q0 -26 -8 -54.5t-23 -51.5zM341 489q0 -26 10 -48.5t27.5 -39t40.5 -26t49 -9.5
q27 0 50 9.5t40.5 26t27.5 39t10 48.5t-10 49t-27.5 39.5t-40.5 26t-50 9.5q-26 0 -49 -9.5t-40.5 -26t-27.5 -39.5t-10 -49zM862 370q0 79 -29 151t-81 127t-124 87t-158 32q-87 0 -159.5 -32.5t-124.5 -87.5t-80.5 -127t-28.5 -150q0 -87 31.5 -160t85.5 -125.5t125 -82
t151 -29.5q76 0 146.5 28t125 80t87.5 125.5t33 163.5zM910 370q0 -99 -35.5 -180t-96 -138.5t-140.5 -89.5t-168 -32q-93 0 -173 33.5t-139.5 92.5t-93.5 139.5t-34 174.5q0 95 34.5 175.5t94 139.5t139.5 92t172 33q87 0 167 -32t140.5 -89.5t96.5 -138.5t36 -180z" />
    <glyph glyph-name="cid742" unicode="&#x2469;" 
d="M429 375q0 67 10 125t30.5 101t51.5 67.5t73 24.5t73.5 -24.5t52.5 -67.5t31.5 -101t10.5 -125t-10.5 -125t-31.5 -100.5t-52.5 -66.5t-73.5 -24t-73 24t-51.5 66.5t-30.5 100.5t-10 125zM504 375q0 -52 5 -95t16 -73.5t28 -47t41 -16.5q25 0 43 16.5t28.5 47t15.5 73.5
t5 95t-5 94.5t-15.5 73t-28.5 47t-43 16.5q-24 0 -41 -16.5t-28 -47t-16 -73t-5 -94.5zM369 682v-613h-74v527l-90 -59l-32 63l124 82h72zM862 370q0 79 -29 151t-81 127t-124 87t-158 32q-87 0 -159.5 -32.5t-124.5 -87.5t-80.5 -127t-28.5 -150q0 -87 31.5 -160
t85.5 -125.5t125 -82t151 -29.5q76 0 146.5 28t125 80t87.5 125.5t33 163.5zM910 370q0 -99 -35.5 -180t-96 -138.5t-140.5 -89.5t-168 -32q-93 0 -173 33.5t-139.5 92.5t-93.5 139.5t-34 174.5q0 95 34.5 175.5t94 139.5t139.5 92t172 33q87 0 167 -32t140.5 -89.5
t96.5 -138.5t36 -180z" />
    <glyph glyph-name="cid743" unicode="&#x246a;" 
d="M404 682v-613h-74v527l-88 -59l-33 62l122 83h73zM658 682v-613h-73v527l-88 -59l-34 63l123 82h72zM862 370q0 79 -29 151t-81 127t-124 87t-158 32q-87 0 -159.5 -32.5t-124.5 -87.5t-80.5 -127t-28.5 -150q0 -87 31.5 -160t85.5 -125.5t125 -82t151 -29.5
q76 0 146.5 28t125 80t87.5 125.5t33 163.5zM910 370q0 -99 -35.5 -180t-96 -138.5t-140.5 -89.5t-168 -32q-93 0 -173 33.5t-139.5 92.5t-93.5 139.5t-34 174.5q0 95 34.5 175.5t94 139.5t139.5 92t172 33q87 0 167 -32t140.5 -89.5t96.5 -138.5t36 -180z" />
    <glyph glyph-name="cid744" unicode="&#x246b;" 
d="M523 149h195v-79h-287v79l166 230q28 38 42 69t14 65q0 45 -22.5 73t-59.5 28q-61 0 -87 -78l-65 31q17 58 56 93t97 35q33 0 61.5 -12.5t49.5 -36t33.5 -56.5t12.5 -73q0 -53 -18.5 -95.5t-54.5 -91.5zM368 682v-613h-73v527l-88 -59l-31 65l120 80h72zM862 370
q0 79 -29 151t-81 127t-124 87t-158 32q-87 0 -159.5 -32.5t-124.5 -87.5t-80.5 -127t-28.5 -150q0 -87 31.5 -160t85.5 -125.5t125 -82t151 -29.5q76 0 146.5 28t125 80t87.5 125.5t33 163.5zM910 370q0 -99 -35.5 -180t-96 -138.5t-140.5 -89.5t-168 -32q-93 0 -173 33.5
t-139.5 92.5t-93.5 139.5t-34 174.5q0 95 34.5 175.5t94 139.5t139.5 92t172 33q87 0 167 -32t140.5 -89.5t96.5 -138.5t36 -180z" />
    <glyph glyph-name="cid745" unicode="&#x246c;" 
d="M446 620q23 35 59 54.5t80 19.5q32 0 59 -12.5t47 -34t31.5 -50.5t11.5 -63q0 -39 -22 -74.5t-60 -54.5q48 -20 76.5 -63t28.5 -96q0 -40 -13.5 -74t-37 -59t-54.5 -39.5t-67 -14.5q-50 0 -91.5 24.5t-64.5 66.5l48 56q19 -31 45.5 -49.5t61.5 -18.5q20 0 37.5 8.5
t30.5 23.5t20.5 35.5t7.5 44.5q0 51 -29.5 83.5t-80.5 32.5h-48v75h48q40 0 64.5 25t24.5 64q0 37 -24 60t-58 23q-26 0 -47.5 -14t-37.5 -34zM380 682v-613h-73v527l-88 -59l-31 65l121 80h71zM862 370q0 79 -29 151t-81 127t-124 87t-158 32q-87 0 -159.5 -32.5
t-124.5 -87.5t-80.5 -127t-28.5 -150q0 -87 31.5 -160t85.5 -125.5t125 -82t151 -29.5q76 0 146.5 28t125 80t87.5 125.5t33 163.5zM910 370q0 -99 -35.5 -180t-96 -138.5t-140.5 -89.5t-168 -32q-93 0 -173 33.5t-139.5 92.5t-93.5 139.5t-34 174.5q0 95 34.5 175.5
t94 139.5t139.5 92t172 33q87 0 167 -32t140.5 -89.5t96.5 -138.5t36 -180z" />
    <glyph glyph-name="cid746" unicode="&#x246d;" 
d="M401 266l222 416h73v-415h55v-79h-55v-119h-74v119h-221v78zM622 267v274l-146 -274h146zM360 682v-613h-73v527l-88 -59l-31 65l120 80h72zM862 370q0 79 -29 151t-81 127t-124 87t-158 32q-87 0 -159.5 -32.5t-124.5 -87.5t-80.5 -127t-28.5 -150q0 -87 31.5 -160
t85.5 -125.5t125 -82t151 -29.5q76 0 146.5 28t125 80t87.5 125.5t33 163.5zM910 370q0 -99 -35.5 -180t-96 -138.5t-140.5 -89.5t-168 -32q-93 0 -173 33.5t-139.5 92.5t-93.5 139.5t-34 174.5q0 95 34.5 175.5t94 139.5t139.5 92t172 33q87 0 167 -32t140.5 -89.5
t96.5 -138.5t36 -180z" />
    <glyph glyph-name="cid747" unicode="&#x246e;" 
d="M437 356v325h274v-81h-200v-159q16 11 33 14.5t36 3.5q32 0 59.5 -14.5t47.5 -41.5t31.5 -65t11.5 -86q0 -38 -12 -73.5t-33.5 -63t-52.5 -44t-69 -16.5q-57 0 -94 24t-69 73q14 13 26 26t26 26q43 -70 106 -70q42 0 69 33t27 86q0 60 -27.5 96.5t-78.5 36.5
q-27 0 -50.5 -12.5t-43.5 -29.5zM364 682v-613h-73v527l-88 -59l-31 65l120 80h72zM862 370q0 79 -29 151t-81 127t-124 87t-158 32q-87 0 -159.5 -32.5t-124.5 -87.5t-80.5 -127t-28.5 -150q0 -87 31.5 -160t85.5 -125.5t125 -82t151 -29.5q76 0 146.5 28t125 80
t87.5 125.5t33 163.5zM910 370q0 -99 -35.5 -180t-96 -138.5t-140.5 -89.5t-168 -32q-93 0 -173 33.5t-139.5 92.5t-93.5 139.5t-34 174.5q0 95 34.5 175.5t94 139.5t139.5 92t172 33q87 0 167 -32t140.5 -89.5t96.5 -138.5t36 -180z" />
    <glyph glyph-name="cid827" unicode="&#x2474;" 
d="M540 682v-613h-92v520l-111 -59l-39 72l153 80h89zM20 370q0 69 11.5 133.5t32 122t47.5 107t59 87.5l44 -25q-60 -85 -94 -196.5t-34 -228.5t34 -228.5t94 -196.5l-44 -25q-32 38 -59 87t-47.5 107t-32 122.5t-11.5 133.5zM921 370q0 -69 -11.5 -133.5t-32 -122.5
t-48 -107t-58.5 -87l-45 25q60 85 94 196.5t34 228.5t-34 228.5t-94 196.5l45 25q31 -38 58.5 -87.5t48 -107t32 -122t11.5 -133.5z" />
    <glyph glyph-name="cid828" unicode="&#x2475;" 
d="M406 150h253v-80h-369v80l208 228q36 39 53 70.5t17 64.5q0 45 -28 72.5t-73 27.5q-73 0 -108 -81l-79 33q22 57 69 93.5t119 36.5q42 0 77 -12.5t61 -36t40.5 -56.5t14.5 -73q0 -51 -22.5 -95t-66.5 -92zM20 370q0 69 11.5 133.5t32 122t47.5 107t59 87.5l44 -25
q-60 -85 -94 -196.5t-34 -228.5t34 -228.5t94 -196.5l-44 -25q-32 38 -59 87t-47.5 107t-32 122.5t-11.5 133.5zM921 370q0 -69 -11.5 -133.5t-32 -122.5t-48 -107t-58.5 -87l-45 25q60 85 94 196.5t34 228.5t-34 228.5t-94 196.5l45 25q31 -38 58.5 -87.5t48 -107t32 -122
t11.5 -133.5z" />
    <glyph glyph-name="cid829" unicode="&#x2476;" 
d="M305 620q30 34 71.5 53.5t97.5 19.5q40 0 74 -12.5t58 -34t37.5 -50.5t13.5 -63q0 -38 -24.5 -74.5t-77.5 -53.5q61 -17 95 -61t34 -99q0 -40 -16 -74t-44 -59t-66.5 -39.5t-83.5 -14.5q-62 0 -111 25t-80 67l61 57q23 -32 54 -50.5t75 -18.5q25 0 47 8.5t38.5 23.5
t26 35.5t9.5 44.5q0 51 -37.5 83t-100.5 32h-56v77h57q48 0 79 24.5t31 62.5t-30 60.5t-72 22.5q-34 0 -59 -14.5t-45 -34.5zM20 370q0 69 11.5 133.5t32 122t47.5 107t59 87.5l44 -25q-60 -85 -94 -196.5t-34 -228.5t34 -228.5t94 -196.5l-44 -25q-32 38 -59 87t-47.5 107
t-32 122.5t-11.5 133.5zM921 370q0 -69 -11.5 -133.5t-32 -122.5t-48 -107t-58.5 -87l-45 25q60 85 94 196.5t34 228.5t-34 228.5t-94 196.5l45 25q31 -38 58.5 -87.5t48 -107t32 -122t11.5 -133.5z" />
    <glyph glyph-name="cid830" unicode="&#x2477;" 
d="M207 269l277 413h90v-413h73v-83h-73v-117h-91v117h-276v83zM483 269v269l-180 -269h180zM20 370q0 69 11.5 133.5t32 122t47.5 107t59 87.5l44 -25q-60 -85 -94 -196.5t-34 -228.5t34 -228.5t94 -196.5l-44 -25q-32 38 -59 87t-47.5 107t-32 122.5t-11.5 133.5zM921 370
q0 -69 -11.5 -133.5t-32 -122.5t-48 -107t-58.5 -87l-45 25q60 85 94 196.5t34 228.5t-34 228.5t-94 196.5l45 25q31 -38 58.5 -87.5t48 -107t32 -122t11.5 -133.5z" />
    <glyph glyph-name="cid831" unicode="&#x2478;" 
d="M313 353v327h340v-81h-252v-163q39 18 87 18q40 0 74.5 -14.5t60 -41t39.5 -64t14 -84.5q0 -38 -14.5 -73.5t-41.5 -62.5t-65.5 -43.5t-86.5 -16.5q-71 0 -117 24t-84 71l65 56q28 -37 58.5 -53.5t70.5 -16.5q55 0 89.5 31.5t34.5 84.5q0 59 -35.5 94.5t-101.5 35.5
q-31 0 -60.5 -12t-54.5 -29zM20 370q0 69 11.5 133.5t32 122t47.5 107t59 87.5l44 -25q-60 -85 -94 -196.5t-34 -228.5t34 -228.5t94 -196.5l-44 -25q-32 38 -59 87t-47.5 107t-32 122.5t-11.5 133.5zM921 370q0 -69 -11.5 -133.5t-32 -122.5t-48 -107t-58.5 -87l-45 25
q60 85 94 196.5t34 228.5t-34 228.5t-94 196.5l45 25q31 -38 58.5 -87.5t48 -107t32 -122t11.5 -133.5z" />
    <glyph glyph-name="cid832" unicode="&#x2479;" 
d="M477 681h103l-150 -231q9 5 21.5 6t18.5 1q40 0 77.5 -13.5t66.5 -39t47 -62.5t18 -83q0 -45 -18 -82t-48.5 -64t-69.5 -42t-81 -15q-43 0 -83 15t-70.5 42t-48.5 64t-18 82q0 26 8 54.5t23 51.5zM587 259q0 27 -10 49.5t-27 39t-40 26t-49 9.5q-27 0 -50 -9.5t-40.5 -26
t-27.5 -39t-10 -49.5q0 -26 10 -48.5t27.5 -39t40.5 -26t50 -9.5q26 0 49 9.5t40 26t27 39t10 48.5zM20 370q0 69 11.5 133.5t32 122t47.5 107t59 87.5l44 -25q-60 -85 -94 -196.5t-34 -228.5t34 -228.5t94 -196.5l-44 -25q-32 38 -59 87t-47.5 107t-32 122.5t-11.5 133.5z
M921 370q0 -69 -11.5 -133.5t-32 -122.5t-48 -107t-58.5 -87l-45 25q60 85 94 196.5t34 228.5t-34 228.5t-94 196.5l45 25q31 -38 58.5 -87.5t48 -107t32 -122t11.5 -133.5z" />
    <glyph glyph-name="cid833" unicode="&#x247a;" 
d="M660 682v-79l-220 -534h-102l222 530h-280v83h380zM20 370q0 69 11.5 133.5t32 122t47.5 107t59 87.5l44 -25q-60 -85 -94 -196.5t-34 -228.5t34 -228.5t94 -196.5l-44 -25q-32 38 -59 87t-47.5 107t-32 122.5t-11.5 133.5zM921 370q0 -69 -11.5 -133.5t-32 -122.5
t-48 -107t-58.5 -87l-45 25q60 85 94 196.5t34 228.5t-34 228.5t-94 196.5l45 25q31 -38 58.5 -87.5t48 -107t32 -122t11.5 -133.5z" />
    <glyph glyph-name="cid834" unicode="&#x247b;" 
d="M348 249q0 -23 9.5 -44t26 -36.5t38.5 -24.5t48 -9q27 0 49 9t38.5 24.5t25.5 36.5t9 44q0 24 -9 44.5t-25.5 36.5t-38.5 25t-49 9q-26 0 -48 -9t-38.5 -25t-26 -36.5t-9.5 -44.5zM652 530q0 -38 -20.5 -72t-58.5 -54q57 -22 84 -64t27 -93q0 -41 -16.5 -75.5
t-45.5 -59.5t-68 -39.5t-84 -14.5t-84 14.5t-68 39.5t-45.5 59.5t-16.5 75.5q0 51 27.5 93t84.5 64q-38 20 -58.5 54t-20.5 72q0 33 13.5 62.5t37.5 51.5t57 35t73 13t73.5 -13t57.5 -35t37.5 -51.5t13.5 -62.5zM375 528q0 -18 7 -34t20 -28t30.5 -19.5t37.5 -7.5t37.5 7.5
t30.5 19.5t20.5 28t7.5 34t-7.5 33.5t-20.5 27t-30.5 18t-37.5 6.5t-37.5 -6.5t-30.5 -18t-20 -27t-7 -33.5zM20 370q0 69 11.5 133.5t32 122t47.5 107t59 87.5l44 -25q-60 -85 -94 -196.5t-34 -228.5t34 -228.5t94 -196.5l-44 -25q-32 38 -59 87t-47.5 107t-32 122.5
t-11.5 133.5zM921 370q0 -69 -11.5 -133.5t-32 -122.5t-48 -107t-58.5 -87l-45 25q60 85 94 196.5t34 228.5t-34 228.5t-94 196.5l45 25q31 -38 58.5 -87.5t48 -107t32 -122t11.5 -133.5z" />
    <glyph glyph-name="cid835" unicode="&#x247c;" 
d="M452 67h-103l150 231q-9 -4 -21.5 -5.5t-19.5 -1.5q-39 0 -76.5 13.5t-67 39t-47 62.5t-17.5 83q0 45 18 82.5t48.5 64.5t69.5 42t81 15q43 0 83 -15t70.5 -42t48.5 -64.5t18 -82.5q0 -26 -8 -54.5t-23 -51.5zM341 489q0 -26 10 -48.5t27.5 -39t40.5 -26t49 -9.5
q27 0 50 9.5t40.5 26t27.5 39t10 48.5t-10 49t-27.5 39.5t-40.5 26t-50 9.5q-26 0 -49 -9.5t-40.5 -26t-27.5 -39.5t-10 -49zM20 370q0 69 11.5 133.5t32 122t47.5 107t59 87.5l44 -25q-60 -85 -94 -196.5t-34 -228.5t34 -228.5t94 -196.5l-44 -25q-32 38 -59 87t-47.5 107
t-32 122.5t-11.5 133.5zM921 370q0 -69 -11.5 -133.5t-32 -122.5t-48 -107t-58.5 -87l-45 25q60 85 94 196.5t34 228.5t-34 228.5t-94 196.5l45 25q31 -38 58.5 -87.5t48 -107t32 -122t11.5 -133.5z" />
    <glyph glyph-name="cid836" unicode="&#x247d;" 
d="M429 375q0 67 10 125t30.5 101t51.5 67.5t73 24.5t73.5 -24.5t52.5 -67.5t31.5 -101t10.5 -125t-10.5 -125t-31.5 -100.5t-52.5 -66.5t-73.5 -24t-73 24t-51.5 66.5t-30.5 100.5t-10 125zM504 375q0 -52 5 -95t16 -73.5t28 -47t41 -16.5q25 0 43 16.5t28.5 47t15.5 73.5
t5 95t-5 94.5t-15.5 73t-28.5 47t-43 16.5q-24 0 -41 -16.5t-28 -47t-16 -73t-5 -94.5zM369 682v-613h-74v527l-90 -59l-32 63l124 82h72zM20 370q0 69 11.5 133.5t32 122t47.5 107t59 87.5l44 -25q-60 -85 -94 -196.5t-34 -228.5t34 -228.5t94 -196.5l-44 -25
q-32 38 -59 87t-47.5 107t-32 122.5t-11.5 133.5zM921 370q0 -69 -11.5 -133.5t-32 -122.5t-48 -107t-58.5 -87l-45 25q60 85 94 196.5t34 228.5t-34 228.5t-94 196.5l45 25q31 -38 58.5 -87.5t48 -107t32 -122t11.5 -133.5z" />
    <glyph glyph-name="cid837" unicode="&#x247e;" 
d="M404 682v-613h-74v527l-88 -59l-33 62l122 83h73zM658 682v-613h-73v527l-88 -59l-34 63l123 82h72zM20 370q0 69 11.5 133.5t32 122t47.5 107t59 87.5l44 -25q-60 -85 -94 -196.5t-34 -228.5t34 -228.5t94 -196.5l-44 -25q-32 38 -59 87t-47.5 107t-32 122.5
t-11.5 133.5zM921 370q0 -69 -11.5 -133.5t-32 -122.5t-48 -107t-58.5 -87l-45 25q60 85 94 196.5t34 228.5t-34 228.5t-94 196.5l45 25q31 -38 58.5 -87.5t48 -107t32 -122t11.5 -133.5z" />
    <glyph glyph-name="cid838" unicode="&#x247f;" 
d="M368 682v-613h-73v527l-88 -59l-31 65l120 80h72zM523 149h200v-79h-292v79l166 230q27 38 41.5 69.5t14.5 64.5q0 45 -22.5 73t-59.5 28q-61 0 -87 -78l-65 31q17 58 56 93t97 35q33 0 61.5 -12.5t49.5 -36t33.5 -56.5t12.5 -73q0 -53 -18.5 -95.5t-54.5 -91.5zM20 370
q0 69 11.5 133.5t32 122t47.5 107t59 87.5l44 -25q-60 -85 -94 -196.5t-34 -228.5t34 -228.5t94 -196.5l-44 -25q-32 38 -59 87t-47.5 107t-32 122.5t-11.5 133.5zM921 370q0 -69 -11.5 -133.5t-32 -122.5t-48 -107t-58.5 -87l-45 25q60 85 94 196.5t34 228.5t-34 228.5
t-94 196.5l45 25q31 -38 58.5 -87.5t48 -107t32 -122t11.5 -133.5z" />
    <glyph glyph-name="cid839" unicode="&#x2480;" 
d="M446 620q23 35 59 54.5t80 19.5q32 0 59 -12.5t47 -34t31.5 -50.5t11.5 -63q0 -39 -22 -74.5t-60 -54.5q48 -20 76.5 -63t28.5 -96q0 -40 -13.5 -74t-37 -59t-54.5 -39.5t-67 -14.5q-50 0 -91.5 24.5t-64.5 66.5l48 56q19 -31 45.5 -49.5t61.5 -18.5q20 0 37.5 8.5
t30.5 23.5t20.5 35.5t7.5 44.5q0 51 -29.5 83.5t-80.5 32.5h-48v75h48q40 0 64.5 25t24.5 64q0 37 -24 60t-58 23q-26 0 -47.5 -14t-37.5 -34zM380 682v-613h-73v527l-88 -59l-31 65l121 80h71zM20 370q0 69 11.5 133.5t32 122t47.5 107t59 87.5l44 -25q-60 -85 -94 -196.5
t-34 -228.5t34 -228.5t94 -196.5l-44 -25q-32 38 -59 87t-47.5 107t-32 122.5t-11.5 133.5zM921 370q0 -69 -11.5 -133.5t-32 -122.5t-48 -107t-58.5 -87l-45 25q60 85 94 196.5t34 228.5t-34 228.5t-94 196.5l45 25q31 -38 58.5 -87.5t48 -107t32 -122t11.5 -133.5z" />
    <glyph glyph-name="cid840" unicode="&#x2481;" 
d="M401 266l222 416h73v-415h55v-79h-55v-119h-74v119h-221v78zM622 267v274l-146 -274h146zM360 682v-613h-73v527l-88 -59l-31 65l120 80h72zM20 370q0 69 11.5 133.5t32 122t47.5 107t59 87.5l44 -25q-60 -85 -94 -196.5t-34 -228.5t34 -228.5t94 -196.5l-44 -25
q-32 38 -59 87t-47.5 107t-32 122.5t-11.5 133.5zM921 370q0 -69 -11.5 -133.5t-32 -122.5t-48 -107t-58.5 -87l-45 25q60 85 94 196.5t34 228.5t-34 228.5t-94 196.5l45 25q31 -38 58.5 -87.5t48 -107t32 -122t11.5 -133.5z" />
    <glyph glyph-name="cid841" unicode="&#x2482;" 
d="M437 356v325h274v-81h-200v-159q16 11 33 14.5t36 3.5q32 0 59.5 -14.5t47.5 -41.5t31.5 -65t11.5 -86q0 -38 -12 -73.5t-33.5 -63t-52.5 -44t-69 -16.5q-57 0 -94 24t-69 73l52 52q43 -70 106 -70q42 0 69 33t27 86q0 60 -27.5 96.5t-78.5 36.5q-27 0 -50.5 -12.5
t-43.5 -29.5zM364 682v-613h-73v527l-88 -59l-31 65l120 80h72zM20 370q0 69 11.5 133.5t32 122t47.5 107t59 87.5l44 -25q-60 -85 -94 -196.5t-34 -228.5t34 -228.5t94 -196.5l-44 -25q-32 38 -59 87t-47.5 107t-32 122.5t-11.5 133.5zM921 370q0 -69 -11.5 -133.5
t-32 -122.5t-48 -107t-58.5 -87l-45 25q60 85 94 196.5t34 228.5t-34 228.5t-94 196.5l45 25q31 -38 58.5 -87.5t48 -107t32 -122t11.5 -133.5z" />
    <glyph glyph-name="cid801" unicode="&#x249c;" 
d="M601 203q-30 -35 -71 -52.5t-88 -17.5t-86.5 18.5t-68 50.5t-44.5 74.5t-16 91.5t16 91.5t44.5 74.5t68 50.5t86.5 18.5t88 -18t71 -52v60h92v-450h-92v60zM20 370q0 69 11.5 133.5t32 122t47.5 107t59 87.5l44 -25q-60 -85 -94 -196.5t-34 -228.5t34 -228.5t94 -196.5
l-44 -25q-32 38 -59 87t-47.5 107t-32 122.5t-11.5 133.5zM921 370q0 -69 -11.5 -133.5t-32 -122.5t-48 -107t-58.5 -87l-45 25q60 85 94 196.5t34 228.5t-34 228.5t-94 196.5l45 25q31 -38 58.5 -87.5t48 -107t32 -122t11.5 -133.5zM320 368q0 -32 10 -60t29 -48.5
t44.5 -32.5t57.5 -12q31 0 56.5 12t43.5 32.5t28.5 47.5t11.5 58v6q-1 31 -11.5 58.5t-28.5 48t-43.5 32.5t-56.5 12q-32 0 -57.5 -12t-44.5 -33t-29 -49t-10 -60z" />
    <glyph glyph-name="cid802" unicode="&#x249d;" 
d="M379 491q29 34 70 52t89 18q47 0 86.5 -18.5t68 -50t44.5 -74.5t16 -92t-16 -91.5t-44.5 -74.5t-68 -50.5t-86.5 -18.5q-48 0 -89 17.5t-70 52.5v-60h-91v600h91v-210zM20 370q0 69 11.5 133.5t32 122t47.5 107t59 87.5l44 -25q-60 -85 -94 -196.5t-34 -228.5t34 -228.5
t94 -196.5l-44 -25q-32 38 -59 87t-47.5 107t-32 122.5t-11.5 133.5zM921 370q0 -69 -11.5 -133.5t-32 -122.5t-48 -107t-58.5 -87l-45 25q60 85 94 196.5t34 228.5t-34 228.5t-94 196.5l45 25q31 -38 58.5 -87.5t48 -107t32 -122t11.5 -133.5zM661 326q0 32 -10.5 60
t-29 48.5t-45 32.5t-57.5 12q-30 0 -55.5 -11.5t-44.5 -31.5t-29.5 -47t-10.5 -58v-3q0 -32 10 -60.5t28.5 -49.5t44.5 -33t57 -12t57.5 12t45 32.5t29 48.5t10.5 60z" />
    <glyph glyph-name="cid803" unicode="&#x249e;" 
d="M492 133q-52 0 -95 18.5t-74.5 50.5t-49 75.5t-17.5 93.5t17.5 93t49 75t74.5 50.5t95 18.5q48 0 87 -15t71 -39l-47 -72q-24 19 -51.5 31.5t-59.5 12.5q-30 0 -56 -12t-45 -33t-29.5 -49.5t-10.5 -60.5q0 -33 10.5 -61.5t29.5 -49.5t45 -33t56 -12q34 0 62 14.5t54 34.5
l54 -69q-34 -30 -76 -46t-94 -16zM20 370q0 69 11.5 133.5t32 122t47.5 107t59 87.5l44 -25q-60 -85 -94 -196.5t-34 -228.5t34 -228.5t94 -196.5l-44 -25q-32 38 -59 87t-47.5 107t-32 122.5t-11.5 133.5zM921 370q0 -69 -11.5 -133.5t-32 -122.5t-48 -107t-58.5 -87
l-45 25q60 85 94 196.5t34 228.5t-34 228.5t-94 196.5l45 25q31 -38 58.5 -87.5t48 -107t32 -122t11.5 -133.5z" />
    <glyph glyph-name="cid804" unicode="&#x249f;" 
d="M576 148q-30 -34 -70.5 -51.5t-87.5 -17.5t-87 18.5t-68.5 50.5t-44.5 74.5t-16 91.5t16 91.5t44.5 74.5t68.5 50.5t87 18.5t88 -18.5t70 -50.5v219h92v-610h-92v59zM292 314q0 -32 10.5 -60t30 -49t45.5 -33t58 -12q31 0 57 12t44.5 33t28.5 49t10 60q0 31 -10.5 58.5
t-29 48.5t-44.5 33.5t-56 12.5q-32 0 -58 -12t-45.5 -32.5t-30 -48.5t-10.5 -60zM921 370q0 -69 -11.5 -133.5t-32 -122.5t-48 -107t-58.5 -87l-45 25q60 85 94 196.5t34 228.5t-34 228.5t-94 196.5l45 25q31 -38 58.5 -87.5t48 -107t32 -122t11.5 -133.5zM20 370
q0 69 11.5 133.5t32 122t47.5 107t59 87.5l44 -25q-60 -85 -94 -196.5t-34 -228.5t34 -228.5t94 -196.5l-44 -25q-32 38 -59 87t-47.5 107t-32 122.5t-11.5 133.5z" />
    <glyph glyph-name="cid805" unicode="&#x24a0;" 
d="M334 341q4 -34 18 -60t34 -43t45 -26t51 -9q77 0 128 56l60 -56q-38 -38 -82 -56t-104 -18q-56 0 -101 18.5t-76.5 50.5t-48.5 75t-17 93q0 49 17.5 92.5t48.5 75.5t74.5 51t95.5 19t93.5 -18.5t71 -50t45 -73.5t15.5 -88q0 -7 -1 -16t-3 -17h-364zM477 527q-23 0 -46 -8
t-42 -23t-33 -37t-20 -51h274q-11 54 -46.5 86.5t-86.5 32.5zM20 370q0 69 11.5 133.5t32 122t47.5 107t59 87.5l44 -25q-60 -85 -94 -196.5t-34 -228.5t34 -228.5t94 -196.5l-44 -25q-32 38 -59 87t-47.5 107t-32 122.5t-11.5 133.5zM921 370q0 -69 -11.5 -133.5
t-32 -122.5t-48 -107t-58.5 -87l-45 25q60 85 94 196.5t34 228.5t-34 228.5t-94 196.5l45 25q31 -38 58.5 -87.5t48 -107t32 -122t11.5 -133.5z" />
    <glyph glyph-name="cid806" unicode="&#x24a1;" 
d="M603 613q-8 1 -16 1.5t-16 0.5q-53 0 -72.5 -19.5t-19.5 -60.5v-35h124v-80h-124v-348h-90v348h-72v80h72v36q0 81 42 119t129 38q11 0 23 -1.5l20 -2.5v-76zM20 370q0 69 11.5 133.5t32 122t47.5 107t59 87.5l44 -25q-60 -85 -94 -196.5t-34 -228.5t34 -228.5t94 -196.5
l-44 -25q-32 38 -59 87t-47.5 107t-32 122.5t-11.5 133.5zM921 370q0 -69 -11.5 -133.5t-32 -122.5t-48 -107t-58.5 -87l-45 25q60 85 94 196.5t34 228.5t-34 228.5t-94 196.5l45 25q31 -38 58.5 -87.5t48 -107t32 -122t11.5 -133.5z" />
    <glyph glyph-name="cid807" unicode="&#x24a2;" 
d="M231 441q0 49 16 92t44.5 74.5t68.5 50t87 18.5t87.5 -19.5t70.5 -52.5v62h92v-413q0 -51 -15.5 -92.5t-45.5 -71t-75 -46t-103 -16.5q-63 0 -116.5 21.5t-91.5 61.5l58 60q29 -29 65.5 -46.5t81.5 -17.5q68 0 109 36t41 103v32q-29 -34 -70 -53t-88 -19t-87 18.5
t-68.5 50.5t-44.5 75t-16 92zM324 441q0 -32 10 -60t29 -48.5t44.5 -32.5t57.5 -12q31 0 57 12t44.5 32.5t28.5 48.5t10 60t-10 60t-28.5 48.5t-44.5 32.5t-57 12q-32 0 -57.5 -12t-44.5 -32.5t-29 -48.5t-10 -60zM20 370q0 69 11.5 133.5t32 122t47.5 107t59 87.5l44 -25
q-60 -85 -94 -196.5t-34 -228.5t34 -228.5t94 -196.5l-44 -25q-32 38 -59 87t-47.5 107t-32 122.5t-11.5 133.5zM921 370q0 -69 -11.5 -133.5t-32 -122.5t-48 -107t-58.5 -87l-45 25q60 85 94 196.5t34 228.5t-34 228.5t-94 196.5l45 25q31 -38 58.5 -87.5t48 -107t32 -122
t11.5 -133.5z" />
    <glyph glyph-name="cid808" unicode="&#x24a3;" 
d="M363 86h-92v600h92v-215q29 37 68.5 56.5t79.5 19.5q39 0 72 -13.5t57 -37.5t37.5 -58t13.5 -75v-277h-93v268q0 48 -30.5 79t-81.5 31q-24 0 -46 -9.5t-39.5 -26t-27.5 -38.5t-10 -47v-257zM20 370q0 69 11.5 133.5t32 122t47.5 107t59 87.5l44 -25q-60 -85 -94 -196.5
t-34 -228.5t34 -228.5t94 -196.5l-44 -25q-32 38 -59 87t-47.5 107t-32 122.5t-11.5 133.5zM921 370q0 -69 -11.5 -133.5t-32 -122.5t-48 -107t-58.5 -87l-45 25q60 85 94 196.5t34 228.5t-34 228.5t-94 196.5l45 25q31 -38 58.5 -87.5t48 -107t32 -122t11.5 -133.5z" />
    <glyph glyph-name="cid809" unicode="&#x24a4;" 
d="M424 501h90v-408h-90v408zM410 636q0 26 17 42.5t42 16.5t42.5 -16.5t17.5 -42.5q0 -25 -17.5 -41.5t-42.5 -16.5t-42 16.5t-17 41.5zM20 370q0 69 11.5 133.5t32 122t47.5 107t59 87.5l44 -25q-60 -85 -94 -196.5t-34 -228.5t34 -228.5t94 -196.5l-44 -25q-32 38 -59 87
t-47.5 107t-32 122.5t-11.5 133.5zM921 370q0 -69 -11.5 -133.5t-32 -122.5t-48 -107t-58.5 -87l-45 25q60 85 94 196.5t34 228.5t-34 228.5t-94 196.5l45 25q31 -38 58.5 -87.5t48 -107t32 -122t11.5 -133.5z" />
    <glyph glyph-name="cid810" unicode="&#x24a5;" 
d="M433 520h92v-314q0 -81 -35 -117t-110 -36h-16.5t-15.5 1v79h15q35 0 52.5 16.5t17.5 58.5v312zM419 655q0 25 17.5 42t41.5 17q26 0 43.5 -17t17.5 -42t-17.5 -42t-43.5 -17q-24 0 -41.5 17t-17.5 42zM20 370q0 69 11.5 133.5t32 122t47.5 107t59 87.5l44 -25
q-60 -85 -94 -196.5t-34 -228.5t34 -228.5t94 -196.5l-44 -25q-32 38 -59 87t-47.5 107t-32 122.5t-11.5 133.5zM921 370q0 -69 -11.5 -133.5t-32 -122.5t-48 -107t-58.5 -87l-45 25q60 85 94 196.5t34 228.5t-34 228.5t-94 196.5l45 25q31 -38 58.5 -87.5t48 -107t32 -122
t11.5 -133.5z" />
    <glyph glyph-name="cid811" unicode="&#x24a6;" 
d="M372 313l182 219h114l-149 -169l175 -281h-111l-125 211l-86 -98v-113h-93v611h93v-380zM20 370q0 69 11.5 133.5t32 122t47.5 107t59 87.5l44 -25q-60 -85 -94 -196.5t-34 -228.5t34 -228.5t94 -196.5l-44 -25q-32 38 -59 87t-47.5 107t-32 122.5t-11.5 133.5zM921 370
q0 -69 -11.5 -133.5t-32 -122.5t-48 -107t-58.5 -87l-45 25q60 85 94 196.5t34 228.5t-34 228.5t-94 196.5l45 25q31 -38 58.5 -87.5t48 -107t32 -122t11.5 -133.5z" />
    <glyph glyph-name="cid812" unicode="&#x24a7;" 
d="M422 676h93v-607h-93v607zM20 370q0 69 11.5 133.5t32 122t47.5 107t59 87.5l44 -25q-60 -85 -94 -196.5t-34 -228.5t34 -228.5t94 -196.5l-44 -25q-32 38 -59 87t-47.5 107t-32 122.5t-11.5 133.5zM921 370q0 -69 -11.5 -133.5t-32 -122.5t-48 -107t-58.5 -87l-45 25
q60 85 94 196.5t34 228.5t-34 228.5t-94 196.5l45 25q31 -38 58.5 -87.5t48 -107t32 -122t11.5 -133.5z" />
    <glyph glyph-name="cid813" unicode="&#x24a8;" 
d="M434 159v245q0 49 -17.5 81t-61.5 32q-20 0 -36.5 -10t-27.5 -27t-17 -39.5t-6 -47.5v-234h-84v430h84v-53q20 30 46.5 48t62.5 18q44 0 74.5 -23.5t47.5 -64.5q40 88 127 88q67 0 103.5 -51.5t36.5 -136.5v-255h-84v245q0 49 -17 81t-61 32q-41 0 -64.5 -35t-23.5 -84
v-239h-82zM20 370q0 69 11.5 133.5t32 122t47.5 107t59 87.5l44 -25q-60 -85 -94 -196.5t-34 -228.5t34 -228.5t94 -196.5l-44 -25q-32 38 -59 87t-47.5 107t-32 122.5t-11.5 133.5zM921 370q0 -69 -11.5 -133.5t-32 -122.5t-48 -107t-58.5 -87l-45 25q60 85 94 196.5
t34 228.5t-34 228.5t-94 196.5l45 25q31 -38 58.5 -87.5t48 -107t32 -122t11.5 -133.5z" />
    <glyph glyph-name="cid814" unicode="&#x24a9;" 
d="M365 147h-93v430h93v-65q25 36 62.5 56t82.5 20q39 0 72 -13.5t56 -37.5t36 -58t13 -75v-257h-93v248q0 48 -29 79t-80 31q-24 0 -46 -10t-38.5 -26.5t-26 -38.5t-9.5 -47v-236zM20 370q0 69 11.5 133.5t32 122t47.5 107t59 87.5l44 -25q-60 -85 -94 -196.5t-34 -228.5
t34 -228.5t94 -196.5l-44 -25q-32 38 -59 87t-47.5 107t-32 122.5t-11.5 133.5zM921 370q0 -69 -11.5 -133.5t-32 -122.5t-48 -107t-58.5 -87l-45 25q60 85 94 196.5t34 228.5t-34 228.5t-94 196.5l45 25q31 -38 58.5 -87.5t48 -107t32 -122t11.5 -133.5z" />
    <glyph glyph-name="cid815" unicode="&#x24aa;" 
d="M237 370q0 49 17.5 92t48.5 74.5t73.5 50t93.5 18.5q50 0 92.5 -18.5t73 -50t48 -74.5t17.5 -92q0 -50 -17.5 -92.5t-48 -74.5t-73 -50t-92.5 -18q-51 0 -93.5 18t-73.5 50t-48.5 74.5t-17.5 92.5zM329 370q0 -32 11 -60t30 -49t44.5 -33t55.5 -12q29 0 54.5 12t44 33
t29.5 49t11 60t-11 60t-29.5 49t-44 33t-54.5 12q-30 0 -55.5 -12t-44.5 -33t-30 -49t-11 -60zM20 370q0 69 11.5 133.5t32 122t47.5 107t59 87.5l44 -25q-60 -85 -94 -196.5t-34 -228.5t34 -228.5t94 -196.5l-44 -25q-32 38 -59 87t-47.5 107t-32 122.5t-11.5 133.5z
M921 370q0 -69 -11.5 -133.5t-32 -122.5t-48 -107t-58.5 -87l-45 25q60 85 94 196.5t34 228.5t-34 228.5t-94 196.5l45 25q31 -38 58.5 -87.5t48 -107t32 -122t11.5 -133.5z" />
    <glyph glyph-name="cid816" unicode="&#x24ab;" 
d="M375 591q29 33 70 50t89 17q47 0 86.5 -18.5t68 -50.5t44.5 -74.5t16 -91.5t-16 -92t-44.5 -75t-68 -50.5t-86.5 -18.5q-48 0 -89 16.5t-70 50.5v-214h-91v608h91v-57zM20 370q0 69 11.5 133.5t32 122t47.5 107t59 87.5l44 -25q-60 -85 -94 -196.5t-34 -228.5t34 -228.5
t94 -196.5l-44 -25q-32 38 -59 87t-47.5 107t-32 122.5t-11.5 133.5zM921 370q0 -69 -11.5 -133.5t-32 -122.5t-48 -107t-58.5 -87l-45 25q60 85 94 196.5t34 228.5t-34 228.5t-94 196.5l45 25q31 -38 58.5 -87.5t48 -107t32 -122t11.5 -133.5zM657 423q0 31 -10.5 59
t-29 49t-45 33t-57.5 12q-30 0 -55.5 -12t-44.5 -32.5t-29.5 -47.5t-10.5 -58v-5q0 -32 10.5 -59.5t29 -48t44 -32.5t56.5 -12t57.5 12t45 33t29 49t10.5 60z" />
    <glyph glyph-name="cid817" unicode="&#x24ac;" 
d="M574 258q-30 -33 -69.5 -52t-86.5 -19t-86.5 18.5t-68 50.5t-44.5 75t-16 92t16 91.5t44.5 74.5t68 50.5t86.5 18.5t87 -19.5t69 -52.5v62h95v-608h-95v218zM298 423q0 -32 10 -60t28 -49t43.5 -33t57.5 -12q31 0 56 12t43 32t28 47.5t10 59.5v6q0 31 -10 58t-28 47.5
t-43 32.5t-56 12q-32 0 -57.5 -12t-43.5 -33t-28 -49t-10 -59zM20 370q0 69 11.5 133.5t32 122t47.5 107t59 87.5l44 -25q-60 -85 -94 -196.5t-34 -228.5t34 -228.5t94 -196.5l-44 -25q-32 38 -59 87t-47.5 107t-32 122.5t-11.5 133.5zM921 370q0 -69 -11.5 -133.5
t-32 -122.5t-48 -107t-58.5 -87l-45 25q60 85 94 196.5t34 228.5t-34 228.5t-94 196.5l45 25q31 -38 58.5 -87.5t48 -107t32 -122t11.5 -133.5z" />
    <glyph glyph-name="cid818" unicode="&#x24ad;" 
d="M619 495q-14 7 -28 11t-28 4q-24 0 -46.5 -9.5t-39 -26t-26.5 -39t-10 -47.5v-259h-93v454h93v-62q27 35 62.5 54t83.5 19q37 0 67 -18zM20 370q0 69 11.5 133.5t32 122t47.5 107t59 87.5l44 -25q-60 -85 -94 -196.5t-34 -228.5t34 -228.5t94 -196.5l-44 -25
q-32 38 -59 87t-47.5 107t-32 122.5t-11.5 133.5zM921 370q0 -69 -11.5 -133.5t-32 -122.5t-48 -107t-58.5 -87l-45 25q60 85 94 196.5t34 228.5t-34 228.5t-94 196.5l45 25q31 -38 58.5 -87.5t48 -107t32 -122t11.5 -133.5z" />
    <glyph glyph-name="cid819" unicode="&#x24ae;" 
d="M345 256q23 -25 54.5 -39t69.5 -14q39 0 62.5 16.5t23.5 43.5t-22.5 44t-73.5 28q-74 15 -111.5 51t-37.5 90q0 27 11.5 50t32.5 40.5t50.5 27t65.5 9.5q45 0 85 -16.5t69 -41.5l-47 -59q-23 18 -48 29.5t-52 11.5q-32 0 -54 -14t-22 -38q0 -52 89 -70q80 -16 117.5 -51
t37.5 -92q0 -58 -45 -96t-126 -38q-109 0 -177 68zM20 370q0 69 11.5 133.5t32 122t47.5 107t59 87.5l44 -25q-60 -85 -94 -196.5t-34 -228.5t34 -228.5t94 -196.5l-44 -25q-32 38 -59 87t-47.5 107t-32 122.5t-11.5 133.5zM921 370q0 -69 -11.5 -133.5t-32 -122.5t-48 -107
t-58.5 -87l-45 25q60 85 94 196.5t34 228.5t-34 228.5t-94 196.5l45 25q31 -38 58.5 -87.5t48 -107t32 -122t11.5 -133.5z" />
    <glyph glyph-name="cid820" unicode="&#x24af;" 
d="M491 253q0 -42 19 -61t67 -19h17t16 1v-77q-9 -2 -21.5 -3t-25.5 -1q-85 0 -124.5 37.5t-39.5 118.5v203h-78v81h78v127h92v-127h114v-81h-114v-199zM20 370q0 69 11.5 133.5t32 122t47.5 107t59 87.5l44 -25q-60 -85 -94 -196.5t-34 -228.5t34 -228.5t94 -196.5l-44 -25
q-32 38 -59 87t-47.5 107t-32 122.5t-11.5 133.5zM921 370q0 -69 -11.5 -133.5t-32 -122.5t-48 -107t-58.5 -87l-45 25q60 85 94 196.5t34 228.5t-34 228.5t-94 196.5l45 25q31 -38 58.5 -87.5t48 -107t32 -122t11.5 -133.5z" />
    <glyph glyph-name="cid821" unicode="&#x24b0;" 
d="M584 558h93v-419h-93v60q-27 -33 -64 -52t-81 -19q-40 0 -72.5 13.5t-56 37.5t-36 58t-12.5 75v246h93v-237q0 -48 29 -79t80 -31q24 0 46 9.5t38.5 26t26 38.5t9.5 46v227zM20 370q0 69 11.5 133.5t32 122t47.5 107t59 87.5l44 -25q-60 -85 -94 -196.5t-34 -228.5
t34 -228.5t94 -196.5l-44 -25q-32 38 -59 87t-47.5 107t-32 122.5t-11.5 133.5zM921 370q0 -69 -11.5 -133.5t-32 -122.5t-48 -107t-58.5 -87l-45 25q60 85 94 196.5t34 228.5t-34 228.5t-94 196.5l45 25q31 -38 58.5 -87.5t48 -107t32 -122t11.5 -133.5z" />
    <glyph glyph-name="cid822" unicode="&#x24b1;" 
d="M689 580l-166 -450h-107l-165 450h99l120 -346l120 346h99zM20 370q0 69 11.5 133.5t32 122t47.5 107t59 87.5l44 -25q-60 -85 -94 -196.5t-34 -228.5t34 -228.5t94 -196.5l-44 -25q-32 38 -59 87t-47.5 107t-32 122.5t-11.5 133.5zM921 370q0 -69 -11.5 -133.5
t-32 -122.5t-48 -107t-58.5 -87l-45 25q60 85 94 196.5t34 228.5t-34 228.5t-94 196.5l45 25q31 -38 58.5 -87.5t48 -107t32 -122t11.5 -133.5z" />
    <glyph glyph-name="cid823" unicode="&#x24b2;" 
d="M515 566l87 -330l88 330h88l-127 -454h-93l-89 327l-88 -327h-92l-128 454h87l88 -330l88 330h91zM20 370q0 69 11.5 133.5t32 122t47.5 107t59 87.5l44 -25q-60 -85 -94 -196.5t-34 -228.5t34 -228.5t94 -196.5l-44 -25q-32 38 -59 87t-47.5 107t-32 122.5t-11.5 133.5z
M921 370q0 -69 -11.5 -133.5t-32 -122.5t-48 -107t-58.5 -87l-45 25q60 85 94 196.5t34 228.5t-34 228.5t-94 196.5l45 25q31 -38 58.5 -87.5t48 -107t32 -122t11.5 -133.5z" />
    <glyph glyph-name="cid824" unicode="&#x24b3;" 
d="M583 139l-113 173l-113 -173h-102l154 230l-141 220h100l102 -166l102 166h100l-141 -221l153 -229h-101zM20 370q0 69 11.5 133.5t32 122t47.5 107t59 87.5l44 -25q-60 -85 -94 -196.5t-34 -228.5t34 -228.5t94 -196.5l-44 -25q-32 38 -59 87t-47.5 107t-32 122.5
t-11.5 133.5zM921 370q0 -69 -11.5 -133.5t-32 -122.5t-48 -107t-58.5 -87l-45 25q60 85 94 196.5t34 228.5t-34 228.5t-94 196.5l45 25q31 -38 58.5 -87.5t48 -107t32 -122t11.5 -133.5z" />
    <glyph glyph-name="cid825" unicode="&#x24b4;" 
d="M365 20l57 146l-172 459h100l118 -344l122 344h98l-224 -605h-99zM20 370q0 69 11.5 133.5t32 122t47.5 107t59 87.5l44 -25q-60 -85 -94 -196.5t-34 -228.5t34 -228.5t94 -196.5l-44 -25q-32 38 -59 87t-47.5 107t-32 122.5t-11.5 133.5zM921 370q0 -69 -11.5 -133.5
t-32 -122.5t-48 -107t-58.5 -87l-45 25q60 85 94 196.5t34 228.5t-34 228.5t-94 196.5l45 25q31 -38 58.5 -87.5t48 -107t32 -122t11.5 -133.5z" />
    <glyph glyph-name="cid826" unicode="&#x24b5;" 
d="M290 223l243 286h-231v81h338v-84l-242 -286h251v-80h-359v83zM20 370q0 69 11.5 133.5t32 122t47.5 107t59 87.5l44 -25q-60 -85 -94 -196.5t-34 -228.5t34 -228.5t94 -196.5l-44 -25q-32 38 -59 87t-47.5 107t-32 122.5t-11.5 133.5zM921 370q0 -69 -11.5 -133.5
t-32 -122.5t-48 -107t-58.5 -87l-45 25q60 85 94 196.5t34 228.5t-34 228.5t-94 196.5l45 25q31 -38 58.5 -87.5t48 -107t32 -122t11.5 -133.5z" />
    <glyph glyph-name="cid707" unicode="&#x24d0;" 
d="M320 368q0 -32 10 -60t29 -48.5t44.5 -32.5t57.5 -12q31 0 57 12t44.5 33t28.5 48.5t10 59.5q0 31 -10 59t-28.5 49t-44.5 33.5t-57 12.5q-32 0 -57.5 -12t-44.5 -33t-29 -49t-10 -60zM601 203q-30 -35 -71 -52.5t-88 -17.5t-86.5 18.5t-68 50.5t-44.5 74.5t-16 91.5
t16 91.5t44.5 74.5t68 50.5t86.5 18.5t88 -18t71 -52v60h92v-450h-92v60zM862 370q0 79 -29 151t-81 127t-124 87t-158 32q-87 0 -159.5 -32.5t-124.5 -87.5t-80.5 -127t-28.5 -150q0 -87 31.5 -160t85.5 -125.5t125 -82t151 -29.5q76 0 146.5 28t125 80t87.5 125.5
t33 163.5zM910 370q0 -99 -35.5 -180t-96 -138.5t-140.5 -89.5t-168 -32q-93 0 -173 33.5t-139.5 92.5t-93.5 139.5t-34 174.5q0 95 34.5 175.5t94 139.5t139.5 92t172 33q87 0 167 -32t140.5 -89.5t96.5 -138.5t36 -180z" />
    <glyph glyph-name="cid708" unicode="&#x24d1;" 
d="M910 370q0 -99 -35.5 -180t-96 -138.5t-140.5 -89.5t-168 -32q-93 0 -173 33.5t-139.5 92.5t-93.5 139.5t-34 174.5q0 95 34.5 175.5t94 139.5t139.5 92t172 33q87 0 167 -32t140.5 -89.5t96.5 -138.5t36 -180zM862 370q0 79 -29 151t-81 127t-124 87t-158 32
q-87 0 -159.5 -32.5t-124.5 -87.5t-80.5 -127t-28.5 -150q0 -87 31.5 -160t85.5 -125.5t125 -82t151 -29.5q76 0 146.5 28t125 80t87.5 125.5t33 163.5zM379 491q29 34 70 52t89 18q47 0 86.5 -18.5t68 -50t44.5 -74.5t16 -92t-16 -91.5t-44.5 -74.5t-68 -50.5t-86.5 -18.5
q-48 0 -89 17.5t-70 52.5v-60h-91v600h91v-210zM661 326q0 32 -10.5 60t-29 48.5t-45 32.5t-57.5 12q-30 0 -56 -12t-44.5 -32.5t-29 -47.5t-10.5 -58q0 -32 10 -60.5t28.5 -49.5t44.5 -33.5t57 -12.5t57.5 12t45 32.5t29 48.5t10.5 60z" />
    <glyph glyph-name="cid709" unicode="&#x24d2;" 
d="M492 133q-52 0 -95 18.5t-74.5 50.5t-49 75.5t-17.5 93.5t17.5 93t49 75t74.5 50.5t95 18.5q48 0 87 -15t71 -39l-47 -72q-24 19 -51.5 31.5t-59.5 12.5q-30 0 -56 -12t-45 -33t-29.5 -49.5t-10.5 -60.5q0 -33 10.5 -61.5t29.5 -49.5t45 -33t56 -12q34 0 62 14.5t54 34.5
l54 -69q-34 -30 -76 -46t-94 -16zM862 370q0 79 -29 151t-81 127t-124 87t-158 32q-87 0 -159.5 -32.5t-124.5 -87.5t-80.5 -127t-28.5 -150q0 -87 31.5 -160t85.5 -125.5t125 -82t151 -29.5q76 0 146.5 28t125 80t87.5 125.5t33 163.5zM910 370q0 -99 -35.5 -180
t-96 -138.5t-140.5 -89.5t-168 -32q-93 0 -173 33.5t-139.5 92.5t-93.5 139.5t-34 174.5q0 95 34.5 175.5t94 139.5t139.5 92t172 33q87 0 167 -32t140.5 -89.5t96.5 -138.5t36 -180z" />
    <glyph glyph-name="cid710" unicode="&#x24d3;" 
d="M910 370q0 -99 -35.5 -180t-96 -138.5t-140.5 -89.5t-168 -32q-93 0 -173 33.5t-139.5 92.5t-93.5 139.5t-34 174.5q0 95 34.5 175.5t94 139.5t139.5 92t172 33q87 0 167 -32t140.5 -89.5t96.5 -138.5t36 -180zM862 370q0 79 -29 151t-81 127t-124 87t-158 32
q-87 0 -159.5 -32.5t-124.5 -87.5t-80.5 -127t-28.5 -150q0 -87 31.5 -160t85.5 -125.5t125 -82t151 -29.5q76 0 146.5 28t125 80t87.5 125.5t33 163.5zM576 148q-30 -34 -70.5 -51.5t-87.5 -17.5t-87 18.5t-68.5 50.5t-44.5 74.5t-16 91.5t16 91.5t44.5 74.5t68.5 50.5
t87 18.5t88 -18.5t70 -50.5v219h92v-610h-92v59zM292 314q0 -32 10.5 -60t30 -49t45.5 -33t58 -12q31 0 57 12.5t44.5 33.5t28.5 49t10 60q0 31 -10.5 58.5t-29 48.5t-44.5 33t-56 12q-32 0 -58 -12t-45.5 -32.5t-30 -48.5t-10.5 -60z" />
    <glyph glyph-name="cid711" unicode="&#x24d4;" 
d="M334 341q4 -34 18 -60t34 -43t45 -26t51 -9q77 0 128 56l60 -56q-38 -38 -82 -56t-104 -18q-56 0 -101 18.5t-76.5 50.5t-48.5 75t-17 93q0 49 17.5 92.5t48.5 75.5t74.5 51t95.5 19t93.5 -18.5t71 -50t45 -73.5t15.5 -88q0 -7 -1 -16t-3 -17h-364zM477 527q-23 0 -46 -8
t-42 -23t-33 -37t-20 -51h274q-11 54 -46.5 86.5t-86.5 32.5zM862 370q0 79 -29 151t-81 127t-124 87t-158 32q-87 0 -159.5 -32.5t-124.5 -87.5t-80.5 -127t-28.5 -150q0 -87 31.5 -160t85.5 -125.5t125 -82t151 -29.5q76 0 146.5 28t125 80t87.5 125.5t33 163.5zM910 370
q0 -99 -35.5 -180t-96 -138.5t-140.5 -89.5t-168 -32q-93 0 -173 33.5t-139.5 92.5t-93.5 139.5t-34 174.5q0 95 34.5 175.5t94 139.5t139.5 92t172 33q87 0 167 -32t140.5 -89.5t96.5 -138.5t36 -180z" />
    <glyph glyph-name="cid712" unicode="&#x24d5;" 
d="M603 613q-8 1 -16 1.5t-16 0.5q-53 0 -72.5 -19.5t-19.5 -60.5v-35h124v-80h-124v-348h-90v348h-72v80h72v36q0 81 42 119t129 38q11 0 23 -1.5l20 -2.5v-76zM862 370q0 79 -29 151t-81 127t-124 87t-158 32q-87 0 -159.5 -32.5t-124.5 -87.5t-80.5 -127t-28.5 -150
q0 -87 31.5 -160t85.5 -125.5t125 -82t151 -29.5q76 0 146.5 28t125 80t87.5 125.5t33 163.5zM910 370q0 -99 -35.5 -180t-96 -138.5t-140.5 -89.5t-168 -32q-93 0 -173 33.5t-139.5 92.5t-93.5 139.5t-34 174.5q0 95 34.5 175.5t94 139.5t139.5 92t172 33q87 0 167 -32
t140.5 -89.5t96.5 -138.5t36 -180z" />
    <glyph glyph-name="cid713" unicode="&#x24d6;" 
d="M910 370q0 -99 -35.5 -180t-96 -138.5t-140.5 -89.5t-168 -32q-93 0 -173 33.5t-139.5 92.5t-93.5 139.5t-34 174.5q0 95 34.5 175.5t94 139.5t139.5 92t172 33q87 0 167 -32t140.5 -89.5t96.5 -138.5t36 -180zM862 370q0 79 -29 151t-81 127t-124 87t-158 32
q-87 0 -159.5 -32.5t-124.5 -87.5t-80.5 -127t-28.5 -150q0 -87 31.5 -160t85.5 -125.5t125 -82t151 -29.5q76 0 146.5 28t125 80t87.5 125.5t33 163.5zM231 441q0 49 16 92t44.5 74.5t68.5 50t87 18.5t87.5 -19.5t70.5 -52.5v62h92v-413q0 -51 -15.5 -92.5t-45.5 -71
t-75 -46t-103 -16.5q-63 0 -116.5 21.5t-91.5 61.5l58 60q29 -29 65.5 -46.5t81.5 -17.5q68 0 109 36t41 103v32q-29 -34 -70 -53t-88 -19t-87 18.5t-68.5 50.5t-44.5 75t-16 92zM324 441q0 -32 10 -60t29 -48.5t44.5 -32.5t57.5 -12q31 0 57 12.5t44.5 33.5t28.5 49t10 60
q0 31 -10 58.5t-28.5 48t-44.5 32.5t-57 12q-32 0 -57.5 -12t-44.5 -32.5t-29 -48.5t-10 -60z" />
    <glyph glyph-name="cid714" unicode="&#x24d7;" 
d="M363 86h-92v600h92v-215q29 37 68.5 56.5t79.5 19.5q39 0 72 -13.5t57 -37.5t37.5 -58t13.5 -75v-277h-93v268q0 48 -30.5 79t-81.5 31q-24 0 -46 -9.5t-39.5 -26t-27.5 -38.5t-10 -47v-257zM862 370q0 79 -29 151t-81 127t-124 87t-158 32q-87 0 -159.5 -32.5
t-124.5 -87.5t-80.5 -127t-28.5 -150q0 -87 31.5 -160t85.5 -125.5t125 -82t151 -29.5q76 0 146.5 28t125 80t87.5 125.5t33 163.5zM910 370q0 -99 -35.5 -180t-96 -138.5t-140.5 -89.5t-168 -32q-93 0 -173 33.5t-139.5 92.5t-93.5 139.5t-34 174.5q0 95 34.5 175.5
t94 139.5t139.5 92t172 33q87 0 167 -32t140.5 -89.5t96.5 -138.5t36 -180z" />
    <glyph glyph-name="cid715" unicode="&#x24d8;" 
d="M424 501h90v-408h-90v408zM410 636q0 26 17 42.5t42 16.5t42.5 -16.5t17.5 -42.5q0 -25 -17.5 -41.5t-42.5 -16.5t-42 16.5t-17 41.5zM862 370q0 79 -29 151t-81 127t-124 87t-158 32q-87 0 -159.5 -32.5t-124.5 -87.5t-80.5 -127t-28.5 -150q0 -87 31.5 -160
t85.5 -125.5t125 -82t151 -29.5q76 0 146.5 28t125 80t87.5 125.5t33 163.5zM910 370q0 -99 -35.5 -180t-96 -138.5t-140.5 -89.5t-168 -32q-93 0 -173 33.5t-139.5 92.5t-93.5 139.5t-34 174.5q0 95 34.5 175.5t94 139.5t139.5 92t172 33q87 0 167 -32t140.5 -89.5
t96.5 -138.5t36 -180z" />
    <glyph glyph-name="cid716" unicode="&#x24d9;" 
d="M433 520h92v-314q0 -81 -35 -117t-110 -36h-16.5t-15.5 1v79h15q35 0 52.5 16.5t17.5 58.5v312zM419 655q0 25 17.5 42t41.5 17q26 0 43.5 -17t17.5 -42t-17.5 -42t-43.5 -17q-24 0 -41.5 17t-17.5 42zM862 370q0 79 -29 151t-81 127t-124 87t-158 32q-87 0 -159.5 -32.5
t-124.5 -87.5t-80.5 -127t-28.5 -150q0 -87 31.5 -160t85.5 -125.5t125 -82t151 -29.5q76 0 146.5 28t125 80t87.5 125.5t33 163.5zM910 370q0 -99 -35.5 -180t-96 -138.5t-140.5 -89.5t-168 -32q-93 0 -173 33.5t-139.5 92.5t-93.5 139.5t-34 174.5q0 95 34.5 175.5
t94 139.5t139.5 92t172 33q87 0 167 -32t140.5 -89.5t96.5 -138.5t36 -180z" />
    <glyph glyph-name="cid717" unicode="&#x24da;" 
d="M372 313l182 219h114l-149 -169l175 -281h-111l-125 211l-86 -98v-113h-93v611h93v-380zM862 370q0 79 -29 151t-81 127t-124 87t-158 32q-87 0 -159.5 -32.5t-124.5 -87.5t-80.5 -127t-28.5 -150q0 -87 31.5 -160t85.5 -125.5t125 -82t151 -29.5q76 0 146.5 28t125 80
t87.5 125.5t33 163.5zM910 370q0 -99 -35.5 -180t-96 -138.5t-140.5 -89.5t-168 -32q-93 0 -173 33.5t-139.5 92.5t-93.5 139.5t-34 174.5q0 95 34.5 175.5t94 139.5t139.5 92t172 33q87 0 167 -32t140.5 -89.5t96.5 -138.5t36 -180z" />
    <glyph glyph-name="cid718" unicode="&#x24db;" 
d="M422 676h93v-607h-93v607zM862 370q0 79 -29 151t-81 127t-124 87t-158 32q-87 0 -159.5 -32.5t-124.5 -87.5t-80.5 -127t-28.5 -150q0 -87 31.5 -160t85.5 -125.5t125 -82t151 -29.5q76 0 146.5 28t125 80t87.5 125.5t33 163.5zM910 370q0 -99 -35.5 -180t-96 -138.5
t-140.5 -89.5t-168 -32q-93 0 -173 33.5t-139.5 92.5t-93.5 139.5t-34 174.5q0 95 34.5 175.5t94 139.5t139.5 92t172 33q87 0 167 -32t140.5 -89.5t96.5 -138.5t36 -180z" />
    <glyph glyph-name="cid719" unicode="&#x24dc;" 
d="M910 370q0 -99 -35.5 -180t-96 -138.5t-140.5 -89.5t-168 -32q-93 0 -173 33.5t-139.5 92.5t-93.5 139.5t-34 174.5q0 95 34.5 175.5t94 139.5t139.5 92t172 33q87 0 167 -32t140.5 -89.5t96.5 -138.5t36 -180zM862 370q0 79 -29 151t-81 127t-124 87t-158 32
q-87 0 -159.5 -32.5t-124.5 -87.5t-80.5 -127t-28.5 -150q0 -87 31.5 -160t85.5 -125.5t125 -82t151 -29.5q76 0 146.5 28t125 80t87.5 125.5t33 163.5zM434 159v245q0 49 -17.5 81t-61.5 32q-20 0 -36.5 -10t-27.5 -27t-17 -39.5t-6 -47.5v-234h-84v430h84v-53
q20 30 46.5 48t62.5 18q44 0 74.5 -23.5t47.5 -64.5q40 88 127 88q67 0 103.5 -51.5t36.5 -136.5v-255h-84v245q0 49 -17 81t-61 32q-21 0 -37 -10t-27.5 -27t-17.5 -39.5t-6 -47.5v-234h-82z" />
    <glyph glyph-name="cid720" unicode="&#x24dd;" 
d="M365 147h-93v430h93v-65q25 36 62.5 56t82.5 20q39 0 72 -13.5t56 -37.5t36 -58t13 -75v-257h-93v248q0 48 -29 79t-80 31q-24 0 -46 -10t-38.5 -26.5t-26 -38.5t-9.5 -47v-236zM862 370q0 79 -29 151t-81 127t-124 87t-158 32q-87 0 -159.5 -32.5t-124.5 -87.5
t-80.5 -127t-28.5 -150q0 -87 31.5 -160t85.5 -125.5t125 -82t151 -29.5q76 0 146.5 28t125 80t87.5 125.5t33 163.5zM910 370q0 -99 -35.5 -180t-96 -138.5t-140.5 -89.5t-168 -32q-93 0 -173 33.5t-139.5 92.5t-93.5 139.5t-34 174.5q0 95 34.5 175.5t94 139.5t139.5 92
t172 33q87 0 167 -32t140.5 -89.5t96.5 -138.5t36 -180z" />
    <glyph glyph-name="cid721" unicode="&#x24de;" 
d="M237 370q0 49 17.5 92t48.5 74.5t73.5 50t93.5 18.5q50 0 92.5 -18.5t73 -50t48 -74.5t17.5 -92q0 -50 -17.5 -92.5t-48 -74.5t-73 -50t-92.5 -18q-51 0 -93.5 18t-73.5 50t-48.5 74.5t-17.5 92.5zM329 370q0 -32 11 -60t30 -49t44.5 -33t55.5 -12q29 0 54.5 12t44 33
t29.5 49t11 60t-11 60t-29.5 49t-44 33t-54.5 12q-30 0 -55.5 -12t-44.5 -33t-30 -49t-11 -60zM862 370q0 79 -29 151t-81 127t-124 87t-158 32q-87 0 -159.5 -32.5t-124.5 -87.5t-80.5 -127t-28.5 -150q0 -87 31.5 -160t85.5 -125.5t125 -82t151 -29.5q76 0 146.5 28
t125 80t87.5 125.5t33 163.5zM910 370q0 -99 -35.5 -180t-96 -138.5t-140.5 -89.5t-168 -32q-93 0 -173 33.5t-139.5 92.5t-93.5 139.5t-34 174.5q0 95 34.5 175.5t94 139.5t139.5 92t172 33q87 0 167 -32t140.5 -89.5t96.5 -138.5t36 -180z" />
    <glyph glyph-name="cid722" unicode="&#x24df;" 
d="M910 370q0 -99 -35.5 -180t-96 -138.5t-140.5 -89.5t-168 -32q-93 0 -173 33.5t-139.5 92.5t-93.5 139.5t-34 174.5q0 95 34.5 175.5t94 139.5t139.5 92t172 33q87 0 167 -32t140.5 -89.5t96.5 -138.5t36 -180zM862 370q0 79 -29 151t-81 127t-124 87t-158 32
q-87 0 -159.5 -32.5t-124.5 -87.5t-80.5 -127t-28.5 -150q0 -87 31.5 -160t85.5 -125.5t125 -82t151 -29.5q76 0 146.5 28t125 80t87.5 125.5t33 163.5zM375 591q29 33 70 50t89 17q47 0 86.5 -18.5t68 -50.5t44.5 -74.5t16 -91.5t-16 -92t-44.5 -75t-68 -50.5t-86.5 -18.5
q-48 0 -89 16.5t-70 50.5v-214h-91v608h91v-57zM657 423q0 31 -10.5 59t-29 49t-45 33t-57.5 12q-30 0 -56 -12t-44.5 -32.5t-29 -48t-10.5 -58.5q0 -32 10 -60.5t28.5 -49.5t44.5 -33.5t57 -12.5t57.5 12t45 33t29 49t10.5 60z" />
    <glyph glyph-name="cid723" unicode="&#x24e0;" 
d="M910 370q0 -99 -35.5 -180t-96 -138.5t-140.5 -89.5t-168 -32q-93 0 -173 33.5t-139.5 92.5t-93.5 139.5t-34 174.5q0 95 34.5 175.5t94 139.5t139.5 92t172 33q87 0 167 -32t140.5 -89.5t96.5 -138.5t36 -180zM862 370q0 79 -29 151t-81 127t-124 87t-158 32
q-87 0 -159.5 -32.5t-124.5 -87.5t-80.5 -127t-28.5 -150q0 -87 31.5 -160t85.5 -125.5t125 -82t151 -29.5q76 0 146.5 28t125 80t87.5 125.5t33 163.5zM574 258q-30 -33 -69.5 -52t-86.5 -19t-86.5 18.5t-68 50.5t-44.5 75t-16 92t16 91.5t44.5 74.5t68 50.5t86.5 18.5
t87 -19.5t69 -52.5v62h95v-608h-95v218zM298 423q0 -32 10 -60t28 -49t43.5 -33t57.5 -12q31 0 56.5 12.5t43.5 33.5t27.5 49.5t9.5 60.5q0 31 -10 58.5t-28 48t-43 32.5t-56 12q-32 0 -57.5 -12t-43.5 -33t-28 -49t-10 -59z" />
    <glyph glyph-name="cid724" unicode="&#x24e1;" 
d="M619 495q-14 7 -28 11t-28 4q-24 0 -46.5 -9.5t-39 -26t-26.5 -39t-10 -47.5v-259h-93v454h93v-62q27 35 62.5 54t83.5 19q37 0 67 -18zM862 370q0 79 -29 151t-81 127t-124 87t-158 32q-87 0 -159.5 -32.5t-124.5 -87.5t-80.5 -127t-28.5 -150q0 -87 31.5 -160
t85.5 -125.5t125 -82t151 -29.5q76 0 146.5 28t125 80t87.5 125.5t33 163.5zM910 370q0 -99 -35.5 -180t-96 -138.5t-140.5 -89.5t-168 -32q-93 0 -173 33.5t-139.5 92.5t-93.5 139.5t-34 174.5q0 95 34.5 175.5t94 139.5t139.5 92t172 33q87 0 167 -32t140.5 -89.5
t96.5 -138.5t36 -180z" />
    <glyph glyph-name="cid725" unicode="&#x24e2;" 
d="M345 256q23 -25 54.5 -39t69.5 -14q39 0 62.5 16.5t23.5 43.5q0 26 -22.5 43.5t-73.5 28.5q-149 30 -149 141q0 27 11.5 50t32.5 40.5t50.5 27t65.5 9.5q45 0 85 -16.5t69 -41.5l-47 -59q-23 18 -48 29.5t-52 11.5q-32 0 -54 -14t-22 -38q0 -52 89 -70q80 -16 117.5 -51
t37.5 -92q0 -58 -45 -96t-126 -38q-109 0 -177 68zM862 370q0 79 -29 151t-81 127t-124 87t-158 32q-87 0 -159.5 -32.5t-124.5 -87.5t-80.5 -127t-28.5 -150q0 -87 31.5 -160t85.5 -125.5t125 -82t151 -29.5q76 0 146.5 28t125 80t87.5 125.5t33 163.5zM910 370
q0 -99 -35.5 -180t-96 -138.5t-140.5 -89.5t-168 -32q-93 0 -173 33.5t-139.5 92.5t-93.5 139.5t-34 174.5q0 95 34.5 175.5t94 139.5t139.5 92t172 33q87 0 167 -32t140.5 -89.5t96.5 -138.5t36 -180z" />
    <glyph glyph-name="cid726" unicode="&#x24e3;" 
d="M491 253q0 -42 19 -61t67 -19h17t16 1v-77q-9 -2 -21.5 -3t-25.5 -1q-85 0 -124.5 37.5t-39.5 118.5v203h-78v81h78v127h92v-127h114v-81h-114v-199zM862 370q0 79 -29 151t-81 127t-124 87t-158 32q-87 0 -159.5 -32.5t-124.5 -87.5t-80.5 -127t-28.5 -150
q0 -87 31.5 -160t85.5 -125.5t125 -82t151 -29.5q76 0 146.5 28t125 80t87.5 125.5t33 163.5zM910 370q0 -99 -35.5 -180t-96 -138.5t-140.5 -89.5t-168 -32q-93 0 -173 33.5t-139.5 92.5t-93.5 139.5t-34 174.5q0 95 34.5 175.5t94 139.5t139.5 92t172 33q87 0 167 -32
t140.5 -89.5t96.5 -138.5t36 -180z" />
    <glyph glyph-name="cid727" unicode="&#x24e4;" 
d="M584 558h93v-419h-93v60q-27 -33 -64 -52t-81 -19q-40 0 -72.5 13.5t-56 37.5t-36 58t-12.5 75v246h93v-237q0 -48 29 -79t80 -31q24 0 46 9.5t38.5 26t26 38.5t9.5 46v227zM862 370q0 79 -29 151t-81 127t-124 87t-158 32q-87 0 -159.5 -32.5t-124.5 -87.5t-80.5 -127
t-28.5 -150q0 -87 31.5 -160t85.5 -125.5t125 -82t151 -29.5q76 0 146.5 28t125 80t87.5 125.5t33 163.5zM910 370q0 -99 -35.5 -180t-96 -138.5t-140.5 -89.5t-168 -32q-93 0 -173 33.5t-139.5 92.5t-93.5 139.5t-34 174.5q0 95 34.5 175.5t94 139.5t139.5 92t172 33
q87 0 167 -32t140.5 -89.5t96.5 -138.5t36 -180z" />
    <glyph glyph-name="cid728" unicode="&#x24e5;" 
d="M689 580l-166 -450h-107l-165 450h99l120 -346l120 346h99zM862 370q0 79 -29 151t-81 127t-124 87t-158 32q-87 0 -159.5 -32.5t-124.5 -87.5t-80.5 -127t-28.5 -150q0 -87 31.5 -160t85.5 -125.5t125 -82t151 -29.5q76 0 146.5 28t125 80t87.5 125.5t33 163.5zM910 370
q0 -99 -35.5 -180t-96 -138.5t-140.5 -89.5t-168 -32q-93 0 -173 33.5t-139.5 92.5t-93.5 139.5t-34 174.5q0 95 34.5 175.5t94 139.5t139.5 92t172 33q87 0 167 -32t140.5 -89.5t96.5 -138.5t36 -180z" />
    <glyph glyph-name="cid729" unicode="&#x24e6;" 
d="M515 566l87 -330l88 330h88l-127 -454h-93l-89 327l-88 -327h-92l-128 454h87l88 -330l88 330h91zM862 370q0 79 -29 151t-81 127t-124 87t-158 32q-87 0 -159.5 -32.5t-124.5 -87.5t-80.5 -127t-28.5 -150q0 -87 31.5 -160t85.5 -125.5t125 -82t151 -29.5q76 0 146.5 28
t125 80t87.5 125.5t33 163.5zM910 370q0 -99 -35.5 -180t-96 -138.5t-140.5 -89.5t-168 -32q-93 0 -173 33.5t-139.5 92.5t-93.5 139.5t-34 174.5q0 95 34.5 175.5t94 139.5t139.5 92t172 33q87 0 167 -32t140.5 -89.5t96.5 -138.5t36 -180z" />
    <glyph glyph-name="cid730" unicode="&#x24e7;" 
d="M583 139l-113 173l-113 -173h-102l154 230l-141 220h100l102 -166l102 166h100l-141 -221l153 -229h-101zM862 370q0 79 -29 151t-81 127t-124 87t-158 32q-87 0 -159.5 -32.5t-124.5 -87.5t-80.5 -127t-28.5 -150q0 -87 31.5 -160t85.5 -125.5t125 -82t151 -29.5
q76 0 146.5 28t125 80t87.5 125.5t33 163.5zM910 370q0 -99 -35.5 -180t-96 -138.5t-140.5 -89.5t-168 -32q-93 0 -173 33.5t-139.5 92.5t-93.5 139.5t-34 174.5q0 95 34.5 175.5t94 139.5t139.5 92t172 33q87 0 167 -32t140.5 -89.5t96.5 -138.5t36 -180z" />
    <glyph glyph-name="cid731" unicode="&#x24e8;" 
d="M365 20l57 146l-172 459h100l118 -344l122 344h98l-224 -605h-99zM862 370q0 79 -29 151t-81 127t-124 87t-158 32q-87 0 -159.5 -32.5t-124.5 -87.5t-80.5 -127t-28.5 -150q0 -87 31.5 -160t85.5 -125.5t125 -82t151 -29.5q76 0 146.5 28t125 80t87.5 125.5t33 163.5z
M910 370q0 -99 -35.5 -180t-96 -138.5t-140.5 -89.5t-168 -32q-93 0 -173 33.5t-139.5 92.5t-93.5 139.5t-34 174.5q0 95 34.5 175.5t94 139.5t139.5 92t172 33q87 0 167 -32t140.5 -89.5t96.5 -138.5t36 -180z" />
    <glyph glyph-name="cid732" unicode="&#x24e9;" 
d="M290 223l243 286h-231v81h338v-84l-242 -286h251v-80h-359v83zM862 370q0 79 -29 151t-81 127t-124 87t-158 32q-87 0 -159.5 -32.5t-124.5 -87.5t-80.5 -127t-28.5 -150q0 -87 31.5 -160t85.5 -125.5t125 -82t151 -29.5q76 0 146.5 28t125 80t87.5 125.5t33 163.5z
M910 370q0 -99 -35.5 -180t-96 -138.5t-140.5 -89.5t-168 -32q-93 0 -173 33.5t-139.5 92.5t-93.5 139.5t-34 174.5q0 95 34.5 175.5t94 139.5t139.5 92t172 33q87 0 167 -32t140.5 -89.5t96.5 -138.5t36 -180z" />
    <glyph glyph-name="cid519" unicode="&#x2500;" 
d="M940 339h-940v44h940v-44z" />
    <glyph glyph-name="cid530" unicode="&#x2501;" 
d="M940 408v-94h-940v94h940z" />
    <glyph glyph-name="cid520" unicode="&#x2502;" 
d="M492 861v-1000h-44v1000h44z" />
    <glyph glyph-name="cid531" unicode="&#x2503;" 
d="M517 861v-1000h-94v1000h94z" />
    <glyph glyph-name="cid521" unicode="&#x250c;" 
d="M448 383h492v-44h-448v-478h-44v522z" />
    <glyph glyph-name="cid558" unicode="&#x250d;" 
d="M940 408v-94h-448v-453h-44v547h492z" />
    <glyph glyph-name="cid557" unicode="&#x250e;" 
d="M517 -139h-94v522h517v-44h-423v-478z" />
    <glyph glyph-name="cid532" unicode="&#x250f;" 
d="M940 408v-94h-423v-453h-94v547h517z" />
    <glyph glyph-name="cid522" unicode="&#x2510;" 
d="M492 -139h-44v478h-448v44h492v-522z" />
    <glyph glyph-name="cid552" unicode="&#x2511;" 
d="M0 314v94h492v-547h-44v453h-448z" />
    <glyph glyph-name="cid551" unicode="&#x2512;" 
d="M0 339v44h517v-522h-94v478h-423z" />
    <glyph glyph-name="cid533" unicode="&#x2513;" 
d="M517 408v-547h-94v453h-423v94h517z" />
    <glyph glyph-name="cid524" unicode="&#x2514;" 
d="M448 861h44v-478h448v-44h-492v522z" />
    <glyph glyph-name="cid556" unicode="&#x2515;" 
d="M940 408v-94h-492v547h44v-453h448z" />
    <glyph glyph-name="cid555" unicode="&#x2516;" 
d="M940 383v-44h-517v522h94v-478h423z" />
    <glyph glyph-name="cid535" unicode="&#x2517;" 
d="M517 861v-453h423v-94h-517v547h94z" />
    <glyph glyph-name="cid523" unicode="&#x2518;" 
d="M492 339h-492v44h448v478h44v-522z" />
    <glyph glyph-name="cid554" unicode="&#x2519;" 
d="M448 861h44v-547h-492v94h448v453z" />
    <glyph glyph-name="cid553" unicode="&#x251a;" 
d="M423 861h94v-522h-517v44h423v478z" />
    <glyph glyph-name="cid534" unicode="&#x251b;" 
d="M517 861v-547h-517v94h423v453h94z" />
    <glyph glyph-name="cid525" unicode="&#x251c;" 
d="M492 861v-478h448v-44h-448v-478h-44v1000h44z" />
    <glyph glyph-name="cid546" unicode="&#x251d;" 
d="M940 314h-448v-453h-44v1000h44v-453h448v-94z" />
    <glyph glyph-name="cid559" unicode="&#x251e;" 
d="M517 861v-478h423v-44h-448v-478h-44v478h-25v522h94z" />
    <glyph glyph-name="cid560" unicode="&#x251f;" 
d="M492 861v-478h448v-44h-423v-478h-94v522h25v478h44z" />
    <glyph glyph-name="cid541" unicode="&#x2520;" 
d="M940 339h-423v-478h-94v1000h94v-478h423v-44z" />
    <glyph glyph-name="cid561" unicode="&#x2521;" 
d="M448 314h-25v547h94v-453h423v-94h-448v-453h-44v453z" />
    <glyph glyph-name="cid562" unicode="&#x2522;" 
d="M423 408h25v453h44v-453h448v-94h-423v-453h-94v547z" />
    <glyph glyph-name="cid536" unicode="&#x2523;" 
d="M517 861v-453h423v-94h-423v-453h-94v1000h94z" />
    <glyph glyph-name="cid527" unicode="&#x2524;" 
d="M492 -139h-44v478h-448v44h448v478h44v-1000z" />
    <glyph glyph-name="cid548" unicode="&#x2525;" 
d="M448 861h44v-1000h-44v453h-448v94h448v453z" />
    <glyph glyph-name="cid563" unicode="&#x2526;" 
d="M517 861v-522h-25v-478h-44v478h-448v44h423v478h94z" />
    <glyph glyph-name="cid564" unicode="&#x2527;" 
d="M448 383v478h44v-478h25v-522h-94v478h-423v44h448z" />
    <glyph glyph-name="cid543" unicode="&#x2528;" 
d="M423 -139v478h-423v44h423v478h94v-1000h-94z" />
    <glyph glyph-name="cid565" unicode="&#x2529;" 
d="M0 408h423v453h94v-547h-25v-453h-44v453h-448v94z" />
    <glyph glyph-name="cid566" unicode="&#x252a;" 
d="M0 408h448v453h44v-453h25v-547h-94v453h-423v94z" />
    <glyph glyph-name="cid538" unicode="&#x252b;" 
d="M0 408h423v453h94v-1000h-94v453h-423v94z" />
    <glyph glyph-name="cid526" unicode="&#x252c;" 
d="M940 339h-448v-478h-44v478h-448v44h940v-44z" />
    <glyph glyph-name="cid567" unicode="&#x252d;" 
d="M0 408h492v-25h448v-44h-448v-478h-44v453h-448v94z" />
    <glyph glyph-name="cid568" unicode="&#x252e;" 
d="M0 383h448v25h492v-94h-448v-453h-44v478h-448v44z" />
    <glyph glyph-name="cid542" unicode="&#x252f;" 
d="M940 314h-448v-453h-44v453h-448v94h940v-94z" />
    <glyph glyph-name="cid547" unicode="&#x2530;" 
d="M940 339h-423v-478h-94v478h-423v44h940v-44z" />
    <glyph glyph-name="cid569" unicode="&#x2531;" 
d="M0 408h517v-25h423v-44h-423v-478h-94v453h-423v94z" />
    <glyph glyph-name="cid570" unicode="&#x2532;" 
d="M0 383h423v25h517v-94h-423v-453h-94v478h-423v44z" />
    <glyph glyph-name="cid537" unicode="&#x2533;" 
d="M0 408h940v-94h-423v-453h-94v453h-423v94z" />
    <glyph glyph-name="cid528" unicode="&#x2534;" 
d="M0 339v44h448v478h44v-478h448v-44h-940z" />
    <glyph glyph-name="cid571" unicode="&#x2535;" 
d="M0 408h448v453h44v-478h448v-44h-448v-25h-492v94z" />
    <glyph glyph-name="cid572" unicode="&#x2536;" 
d="M0 383h448v478h44v-453h448v-94h-492v25h-448v44z" />
    <glyph glyph-name="cid544" unicode="&#x2537;" 
d="M448 861h44v-453h448v-94h-940v94h448v453z" />
    <glyph glyph-name="cid549" unicode="&#x2538;" 
d="M423 861h94v-478h423v-44h-940v44h423v478z" />
    <glyph glyph-name="cid573" unicode="&#x2539;" 
d="M0 408h423v453h94v-478h423v-44h-423v-25h-517v94z" />
    <glyph glyph-name="cid574" unicode="&#x253a;" 
d="M0 383h423v478h94v-453h423v-94h-517v25h-423v44z" />
    <glyph glyph-name="cid539" unicode="&#x253b;" 
d="M423 861h94v-453h423v-94h-940v94h423v453z" />
    <glyph glyph-name="cid529" unicode="&#x253c;" 
d="M492 861v-478h448v-44h-448v-478h-44v478h-448v44h448v478h44z" />
    <glyph glyph-name="cid575" unicode="&#x253d;" 
d="M0 408h448v453h44v-478h448v-44h-448v-478h-44v453h-448v94z" />
    <glyph glyph-name="cid576" unicode="&#x253e;" 
d="M492 408h448v-94h-448v-453h-44v478h-448v44h448v478h44v-453z" />
    <glyph glyph-name="cid545" unicode="&#x253f;" 
d="M448 861h44v-453h448v-94h-448v-453h-44v453h-448v94h448v453z" />
    <glyph glyph-name="cid577" unicode="&#x2540;" 
d="M517 383h423v-44h-448v-478h-44v478h-448v44h423v478h94v-478z" />
    <glyph glyph-name="cid578" unicode="&#x2541;" 
d="M492 383h448v-44h-423v-478h-94v478h-423v44h448v478h44v-478z" />
    <glyph glyph-name="cid550" unicode="&#x2542;" 
d="M423 861h94v-478h423v-44h-423v-478h-94v478h-423v44h423v478z" />
    <glyph glyph-name="cid579" unicode="&#x2543;" 
d="M517 383h423v-44h-423v-25h-25v-453h-44v453h-448v94h423v453h94v-478z" />
    <glyph glyph-name="cid580" unicode="&#x2544;" 
d="M448 -139v453h-25v25h-423v44h423v478h94v-453h423v-94h-448v-453h-44z" />
    <glyph glyph-name="cid581" unicode="&#x2545;" 
d="M492 408h25v-25h423v-44h-423v-478h-94v453h-423v94h448v453h44v-453z" />
    <glyph glyph-name="cid582" unicode="&#x2546;" 
d="M492 408h448v-94h-423v-453h-94v478h-423v44h423v25h25v453h44v-453z" />
    <glyph glyph-name="cid583" unicode="&#x2547;" 
d="M517 408h423v-94h-448v-453h-44v453h-448v94h423v453h94v-453z" />
    <glyph glyph-name="cid584" unicode="&#x2548;" 
d="M492 408h448v-94h-423v-453h-94v453h-423v94h448v453h44v-453z" />
    <glyph glyph-name="cid585" unicode="&#x2549;" 
d="M517 383h423v-44h-423v-478h-94v453h-423v94h423v453h94v-478z" />
    <glyph glyph-name="cid586" unicode="&#x254a;" 
d="M517 408h423v-94h-423v-453h-94v478h-423v44h423v478h94v-453z" />
    <glyph glyph-name="cid540" unicode="&#x254b;" 
d="M423 861h94v-453h423v-94h-423v-453h-94v453h-423v94h423v453z" />
    <glyph glyph-name="cid232" unicode="&#x2592;" 
d="M0 860h94v-100h94v-100h94v-100h94v-101h94v-98h94v-101h94v-100h94v-100h94v-100h94v-100h-94v100h-94v100h-94v100h-94v100h-94v101h-94v98h-94v101h-94v100h-94v100h-94v100zM0 660h94v-100h94v-101h94v-98h94v-101h94v-100h94v-100h94v-100h94v-100h-94v100h-94v100
h-94v100h-94v100h-94v101h-94v98h-94v101h-94v100zM188 860h94v-100h94v-100h94v-100h94v-101h94v-98h94v-101h94v-100h94v-100h-94v100h-94v100h-94v101h-94v98h-94v101h-94v100h-94v100h-94v100zM376 860h94v-100h94v-100h94v-100h94v-101h94v-98h94v-101h-94v101h-94v98
h-94v101h-94v100h-94v100h-94v100zM0 459h94v-98h94v-101h94v-100h94v-100h94v-100h94v-100h-94v100h-94v100h-94v100h-94v100h-94v101h-94v98zM564 860h94v-100h94v-100h94v-100h94v-101h-94v101h-94v100h-94v100h-94v100zM0 260h94v-100h94v-100h94v-100h94v-100h-94v100
h-94v100h-94v100h-94v100zM0 60h94v-100h94v-100h-94v100h-94v100zM752 860h94v-100h94v-100h-94v100h-94v100z" />
    <glyph glyph-name="cid165" unicode="&#x25a0;" 
d="M812 21h-684v678h684v-678z" />
    <glyph glyph-name="cid164" unicode="&#x25a1;" 
d="M749 79v562h-558v-562h558zM812 21h-684v678h684v-678z" />
    <glyph glyph-name="cid229" unicode="&#x25a3;" 
d="M812 21h-684v678h684v-678zM752 76v568h-564v-568h564zM307 196v328h326v-328h-326z" />
    <glyph glyph-name="cid233" unicode="&#x25a4;" 
d="M815 21h-684v678h684v-678zM757 75v104h-568v-104h568zM189 541h568v104h-568v-104zM189 231h568v104h-568v-104zM189 386h568v104h-568v-104z" />
    <glyph glyph-name="cid234" unicode="&#x25a5;" 
d="M815 21h-684v678h684v-678zM655 645v-570h102v570h-102zM291 75v570h-102v-570h102zM344 75h102v570h-102v-570zM500 75h101v570h-101v-570z" />
    <glyph glyph-name="cid237" unicode="&#x25a6;" 
d="M815 21h-684v678h684v-678zM759 73v108h-106v-108h106zM653 229h106v108h-106v-108zM653 384h106v108h-106v-108zM653 647v-108h106v108h-106zM293 73v108h-106v-108h106zM342 73h106v108h-106v-108zM497 73h106v108h-106v-108zM187 539h106v108h-106v-108zM497 384h106
v108h-106v-108zM497 539h106v108h-106v-108zM187 229h106v108h-106v-108zM187 384h106v108h-106v-108zM342 229h106v108h-106v-108zM342 384h106v108h-106v-108zM342 539h106v108h-106v-108zM497 229h106v108h-106v-108z" />
    <glyph glyph-name="cid236" unicode="&#x25a7;" 
d="M815 21h-684v678h684v-678zM223 645l534 -534v222l-312 312h-222zM189 387l313 -312h219l-532 532v-220zM429 75l-240 239v-239h240zM518 645l239 -240v240h-239z" />
    <glyph glyph-name="cid235" unicode="&#x25a8;" 
d="M815 21h-684v678h684v-678zM189 111l534 534h-221l-313 -312v-222zM445 75l312 312v220l-532 -532h220zM757 75v239l-239 -239h239zM189 405l240 240h-240v-240z" />
    <glyph glyph-name="cid238" unicode="&#x25a9;" 
d="M815 21h-684v678h684v-678zM473 393l113 113l-113 113l-113 -113zM326 472l-112 -112l113 -113l112 112zM619 247l113 112l-112 113l-112 -113zM361 213l112 -112l112 112l-112 111zM326 540l107 107h-214zM620 540l107 107h-213zM187 318v-211l106 106zM221 73h212
l-106 105zM514 73h211l-106 105zM759 107v211l-105 -105zM187 611v-210l105 105zM759 401v210l-104 -105z" />
    <glyph glyph-name="cid167" unicode="&#x25b2;" 
d="M879 21h-818l409 706z" />
    <glyph glyph-name="cid166" unicode="&#x25b3;" 
d="M470 610l-311 -534h621zM879 21h-818l409 706z" />
    <glyph glyph-name="cid220" unicode="&#x25b6;" 
d="M834 360l-706 -394v788z" />
    <glyph glyph-name="cid219" unicode="&#x25b7;" 
d="M834 360l-706 -394v788zM189 647v-574l518 287z" />
    <glyph glyph-name="cid169" unicode="&#x25bc;" 
d="M470 -7l-409 706h818z" />
    <glyph glyph-name="cid168" unicode="&#x25bd;" 
d="M780 643h-621l311 -534zM470 -8l-409 706h818z" />
    <glyph glyph-name="cid218" unicode="&#x25c0;" 
d="M812 754v-788l-706 394z" />
    <glyph glyph-name="cid217" unicode="&#x25c1;" 
d="M812 754v-788l-706 394zM232 360l518 -287v574z" />
    <glyph glyph-name="cid163" unicode="&#x25c6;" 
d="M883 360l-413 -413l-413 413l413 414z" />
    <glyph glyph-name="cid162" unicode="&#x25c7;" 
d="M470 692l-331 -332l331 -331l330 331zM883 360l-413 -413l-413 413l413 414z" />
    <glyph glyph-name="cid228" unicode="&#x25c8;" 
d="M883 360l-413 -413l-413 413l413 414zM470 688l-328 -328l328 -328l327 328zM657 360l-187 -187l-188 187l188 188z" />
    <glyph glyph-name="cid159" unicode="&#x25cb;" 
d="M791 360q0 60 -22 116.5t-63.5 100.5t-101 70.5t-134.5 26.5q-69 0 -127.5 -24t-102 -66.5t-68 -100t-24.5 -123.5q0 -72 26.5 -130t71 -99t102.5 -63t122 -22q65 0 123.5 22.5t102.5 63.5t69.5 99t25.5 129zM847 360q0 -87 -31 -155.5t-83 -115.5t-120.5 -72t-142.5 -25
q-83 0 -152 28t-119 77.5t-78 116.5t-28 146q0 72 25.5 138.5t74 117.5t118.5 81.5t159 30.5q79 0 148 -27t120 -75.5t80 -116.5t29 -149z" />
    <glyph glyph-name="cid161" unicode="&#x25ce;" 
d="M797 360q0 67 -24.5 125.5t-68 101.5t-103.5 68t-131 25q-74 0 -134.5 -25.5t-103.5 -69.5t-66.5 -102t-23.5 -123q0 -71 26 -130t70.5 -101.5t104 -66t127.5 -23.5q61 0 119.5 21.5t104.5 62.5t74.5 100.5t28.5 136.5zM669 360q0 35 -12.5 69.5t-37.5 62t-62.5 44.5
t-86.5 17q-48 0 -85.5 -17t-62.5 -44t-38 -61.5t-13 -70.5q0 -47 17 -83.5t44.5 -61.5t63.5 -37.5t74 -12.5q36 0 71.5 12t64 36.5t46 61t17.5 85.5zM847 360q0 -87 -31 -155.5t-83 -115.5t-120.5 -72t-142.5 -25q-83 0 -152 28t-119 77.5t-78 116.5t-28 146
q0 72 25.5 138.5t74 117.5t118.5 81.5t159 30.5q79 0 148 -27t120 -75.5t80 -116.5t29 -149zM717 360q0 -57 -20.5 -102t-55 -76.5t-79 -48t-92.5 -16.5q-53 0 -98.5 18.5t-78.5 51t-51.5 77t-18.5 96.5q0 46 16.5 89.5t48 77.5t77.5 54.5t105 20.5q52 0 97.5 -18.5
t78.5 -51t52 -77t19 -95.5z" />
    <glyph glyph-name="cid160" unicode="&#x25cf;" 
d="M847 360q0 -87 -31 -155.5t-83 -115.5t-120.5 -72t-142.5 -25q-83 0 -152 28t-119 77.5t-78 116.5t-28 146q0 72 25.5 138.5t74 117.5t118.5 81.5t159 30.5q79 0 148 -27t120 -75.5t80 -116.5t29 -149z" />
    <glyph glyph-name="cid230" unicode="&#x25d0;" 
d="M847 360q0 -87 -31 -155.5t-83 -115.5t-120.5 -72t-142.5 -25q-83 0 -152 28t-119 77.5t-78 116.5t-28 146q0 72 25.5 138.5t74 117.5t118.5 81.5t159 30.5q79 0 148 -27t120 -75.5t80 -116.5t29 -149zM788 360q0 61 -21.5 118t-62.5 101t-100.5 71t-134.5 27v-634
q66 0 124 22.5t101.5 64t68.5 100t25 130.5z" />
    <glyph glyph-name="cid231" unicode="&#x25d1;" 
d="M152 360q0 -72 25.5 -131t69 -100t101.5 -63.5t123 -22.5v634q-72 0 -131 -25.5t-101 -69t-64.5 -101t-22.5 -121.5zM93 360q0 76 27.5 143.5t77 117t119 78.5t153.5 29t153.5 -29t119 -78.5t77 -117t27.5 -143.5q0 -83 -29.5 -151t-80.5 -116t-120 -74.5t-147 -26.5
t-147 26.5t-120 74.5t-80.5 116t-29.5 151z" />
    <glyph glyph-name="cid158" unicode="&#x2605;" 
d="M888 500l-245 -201l109 -324l-282 201l-282 -201l109 324l-245 201h312l106 309l105 -309h313z" />
    <glyph glyph-name="cid157" unicode="&#x2606;" 
d="M760 456h-223l-67 203l-70 -203h-222l175 -144l-76 -219l193 135l194 -134l-80 219zM888 500l-245 -201l109 -324l-282 201l-282 -201l109 324l-245 201h312l106 309l105 -309h313z" />
    <glyph glyph-name="cid241" unicode="&#x260e;" 
d="M470 718q103 0 183 -17.5t134.5 -54t83 -93t28.5 -134.5q0 -34 -15.5 -50.5t-37.5 -16.5q-9 0 -21 5l-126 50q-32 12 -32 40q0 9 3 18l7 28q3 10 3 22q0 18 -17.5 26.5t-38.5 15.5q0 -39 3.5 -71t15.5 -60.5t35 -57t62 -60.5q79 -66 79 -179q30 -10 38.5 -22.5t8.5 -25.5
v-21q0 -17 -9.5 -28t-29.5 -11h-714q-22 0 -30.5 12.5t-8.5 26.5v21q0 10 7.5 24t39.5 24q0 37 7.5 66t22.5 53t37 46.5t51 48.5q26 23 41 47.5t23 51t10.5 55t2.5 60.5q-30 -8 -43 -18t-13 -24q0 -12 3 -22l7 -28q1 -5 1.5 -8.5t0.5 -7.5q0 -30 -31 -42l-126 -50
q-13 -5 -22 -5q-23 0 -37.5 17.5t-14.5 49.5q0 87 32.5 144.5t90 92t136 48.5t170.5 14zM518 493v68q-18 -6 -30 -8.5t-18 -2.5t-18 2.5t-30 8.5v-68h96zM470 103q28 0 56 8.5t51 26.5t37.5 46.5t14.5 67.5q0 28 -9.5 54.5t-29.5 47.5t-50 34t-70 13t-70 -13t-49.5 -34
t-29.5 -47.5t-10 -54.5q0 -39 14 -67t36.5 -46t51 -27t57.5 -9z" />
    <glyph glyph-name="cid240" unicode="&#x260f;" 
d="M470 718q103 0 183 -17.5t134.5 -54t83 -93t28.5 -134.5q0 -34 -15.5 -50.5t-37.5 -16.5q-9 0 -21 5l-126 50q-32 12 -32 40q0 9 3 18l7 28q3 10 3 22q0 18 -17.5 26.5t-38.5 15.5q0 -39 3.5 -71t15.5 -60.5t35 -57t62 -60.5q79 -66 79 -179q30 -10 38.5 -22.5t8.5 -25.5
v-21q0 -17 -9.5 -28t-29.5 -11h-714q-22 0 -30.5 12.5t-8.5 26.5v21q0 10 7.5 24t39.5 24q0 37 7.5 66t22.5 53t37 46.5t51 48.5q26 23 41 47.5t23 51t10.5 55t2.5 60.5q-30 -8 -43 -18t-13 -24q0 -12 3 -22l7 -28q1 -5 1.5 -8.5t0.5 -7.5q0 -30 -31 -42l-126 -50
q-13 -5 -22 -5q-23 0 -37.5 17.5t-14.5 49.5q0 87 32.5 144.5t90 92t136 48.5t170.5 14zM518 493v68q-18 -6 -30 -8.5t-18 -2.5t-18 2.5t-30 8.5v-68h96zM810 57q16 0 16 17v9q0 22 -44 33q0 100 -51 148q-52 49 -81.5 85t-44.5 68t-18.5 66t-3.5 78h-30v-95h-166v95h-30
q0 -51 -6 -87.5t-22.5 -68.5t-45.5 -65t-74 -76q-51 -48 -51 -148q-44 -10 -44 -33v-9q0 -17 16 -17h680zM470 584q17 0 39 7t42 7q35 0 66 -5.5t54 -16t36.5 -25.5t13.5 -35q-1 -6 -2 -12.5t-3 -13.5l-6 -21q-2 -4 -2 -7.5v-6.5q0 -16 20 -24l91 -33q10 -4 14 -4q10 0 17 8
t7 25q0 61 -27 108.5t-77 80.5t-121.5 50.5t-161.5 17.5q-94 0 -159.5 -14.5t-108.5 -37.5t-67 -51.5t-35.5 -57.5t-14 -54.5t-2.5 -41.5q0 -15 6 -24t17 -9q3 0 6.5 1t8.5 3l91 33q20 8 20 25q0 3 -0.5 6t-1.5 7l-6 21q-3 8 -3.5 16t-0.5 15q0 29 43.5 53t125.5 24
q17 0 40 -7t41 -7zM470 103q-34 0 -63 10.5t-50.5 30t-33.5 47t-12 61.5q0 27 9.5 54t29 48t49.5 34t71 13q31 0 60 -10t51 -28.5t35 -46.5t13 -64q0 -41 -15 -69t-38 -46t-51 -26t-55 -8zM470 365q-54 0 -85 -31.5t-31 -81.5q0 -52 32 -82.5t84 -30.5q50 0 83 30t33 83
q0 51 -32.5 82t-83.5 31z" />
    <glyph glyph-name="cid242" unicode="&#x261c;" 
d="M896 242h-128v21h-33q-28 -17 -61 -28.5t-67.5 -18t-68 -9.5t-62.5 -3q-50 0 -81.5 3.5t-49.5 9.5t-24.5 15t-6.5 20q0 17 9 26q-14 5 -23.5 14.5t-9.5 23.5q0 5 2.5 12.5t4.5 11.5q-14 6 -22 17.5t-8 22.5q0 26 23 38q-70 1 -116.5 4t-74 10.5t-38.5 19t-11 29.5
q0 26 31.5 38t89.5 12h297q61 0 100.5 -3.5t64.5 -8.5t38.5 -12.5t23.5 -14.5q21 -16 36 -20.5t38 -5.5v33h127v-257zM769 434h-4q-21 0 -43.5 8t-57.5 32q-9 6 -22 10.5t-34 8t-50.5 5t-70.5 1.5q-20 0 -41.5 -6.5t-39.5 -18t-30 -25.5t-12 -29q0 -7 7 -11.5t16 -4.5
q6 0 14 10t17.5 22t19 22t17.5 10q5 0 7.5 -3.5t2.5 -6.5q0 -4 -3 -7l-3 -3h6q14 0 28 2.5t26 11.5q5 4 10 4q4 0 8.5 -3.5t4.5 -8.5t-4 -10.5t-9 -10.5q12 -14 29 -26.5t37.5 -21.5t43 -14.5t44.5 -5.5q5 0 8 -3.5t3 -6.5q0 -14 -24 -14q-54 0 -99 23t-73 53q-5 -1 -16 -1
h-8q23 -12 23 -30q0 -15 -11 -28q14 -4 22.5 -13.5t8.5 -20.5q0 -9 -2 -15.5t-10 -13.5q14 -5 21.5 -16t7.5 -19q0 -14 -5 -21q26 1 53 5.5t52.5 12t48.5 16t40 17.5q10 6 22 6h24v138zM313 499q-26 0 -52 0.5t-52 0.5q-72 0 -97.5 -4.5t-25.5 -15.5q0 -8 10.5 -13
t39.5 -8.5t79 -5t130 -1.5q9 14 19 25t27 22h-78zM829 278v184h-29v-184h29zM328 320q0 -3 3 -6t11 -5t23.5 -3t39.5 -1q49 0 63.5 3.5t14.5 11.5t-16.5 12t-61.5 4q-24 0 -39.5 -1t-23.5 -3t-11 -5t-3 -7zM353 254q0 -7 21.5 -11.5t50.5 -4.5q24 0 38.5 1t22 3.5t9.5 5.5
t2 6q0 18 -72 18q-43 0 -57.5 -4t-14.5 -14zM461 382q0 7 -11.5 10t-29.5 3q-10 -11 -19.5 -14t-17.5 -3q-12 0 -23 4.5t-17 13.5q-22 0 -31 -3.5t-9 -11.5q0 -5 6.5 -8.5t16.5 -5t22 -2t23 -0.5q13 0 29 0.5t29.5 2t22.5 5t9 9.5z" />
    <glyph glyph-name="cid243" unicode="&#x261e;" 
d="M50 499h127v-33q23 1 38 5.5t36 20.5q10 7 23.5 14.5t38.5 12.5t64 8.5t101 3.5h297q58 0 89.5 -12t31.5 -38q0 -18 -11 -29.5t-38.5 -19t-74 -10.5t-116.5 -4q23 -12 23 -38q0 -11 -8 -22.5t-22 -17.5q2 -4 4.5 -11.5t2.5 -12.5q0 -14 -9.5 -23.5t-23.5 -14.5
q9 -9 9 -26q0 -11 -6.5 -20t-24.5 -15t-49.5 -9.5t-81.5 -3.5q-29 0 -62.5 3t-68 9.5t-67.5 18t-61 28.5h-33v-21h-128v257zM177 296h24q11 0 22 -6q17 -9 39.5 -17.5t48 -16t53 -12t53.5 -5.5q-5 7 -5 21q0 8 7.5 19t21.5 16q-8 7 -10 13.5t-2 15.5q0 11 8.5 20.5
t22.5 13.5q-11 13 -11 28q0 18 23 30h-8q-11 0 -16 1q-28 -30 -73 -53t-99 -23q-24 0 -24 14q0 3 3 6.5t8 3.5q22 0 44.5 5.5t43 14.5t37.5 21.5t29 26.5q-5 5 -9 10.5t-4 10.5t4.5 8.5t8.5 3.5q5 0 10 -4q12 -9 26 -11.5t28 -2.5h6l-3 3q-3 3 -3 7q0 3 2.5 6.5t7.5 3.5
q8 0 17.5 -10t18.5 -22t17.5 -22t14.5 -10q9 0 16 4.5t7 11.5q0 15 -12 29t-30.5 25.5t-40 18t-40.5 6.5q-41 0 -70.5 -1.5t-50.5 -5t-34 -8t-22 -10.5q-35 -24 -57.5 -32t-43.5 -8h-4v-138zM555 499q17 -11 27 -22t19 -25q79 0 129.5 1.5t79.5 5t39.5 8.5t10.5 13
q0 11 -25.5 15.5t-97.5 4.5q-26 0 -52 -0.5t-52 -0.5h-78zM146 278v184h-29v-184h29zM618 320q0 4 -3 7t-11 5t-23.5 3t-39.5 1q-45 0 -61.5 -4t-16.5 -12t14.5 -11.5t63.5 -3.5q24 0 39.5 1t23.5 3t11 5t3 6zM593 254q0 10 -14.5 14t-57.5 4q-72 0 -72 -18q0 -3 2 -6
t9.5 -5.5t22 -3.5t38.5 -1q29 0 50.5 4.5t21.5 11.5zM485 382q0 -6 9 -9.5t22.5 -5t29.5 -2t29 -0.5q11 0 23 0.5t22 2t16.5 5t6.5 8.5q0 8 -9 11.5t-31 3.5q-6 -9 -17 -13.5t-23 -4.5q-8 0 -17.5 3t-19.5 14q-18 0 -29.5 -3t-11.5 -10z" />
    <glyph glyph-name="cid147" unicode="&#x2640;" horiz-adv-x="700" 
d="M121 525q0 43 17.5 80.5t47.5 65.5t70 44.5t86 16.5t86.5 -16.5t70.5 -44.5t47.5 -65.5t17.5 -80.5q0 -37 -13.5 -70.5t-36.5 -60t-55 -45.5t-69 -26v-72h230v-81h-230v-241h-93v241h-231v81h231v71q-38 7 -70 25.5t-55.5 45.5t-37 60.5t-13.5 71.5zM215 525
q0 -26 10 -49t27 -40t40.5 -26.5t49.5 -9.5t49 9.5t40.5 26.5t27.5 40t10 49t-10 48.5t-27.5 39.5t-40.5 27t-49 10t-49.5 -10t-40.5 -27t-27 -39.5t-10 -48.5z" />
    <glyph glyph-name="cid146" unicode="&#x2642;" horiz-adv-x="700" 
d="M39 125q0 42 17 79.5t46.5 65.5t69.5 44t85 16q11 0 21 -1t20 -3l125 268l-186 -67l-34 81l333 117l125 -330l-86 -26l-67 186l-124 -264q42 -28 67 -71t25 -95q0 -42 -17 -79.5t-47 -65t-70 -43.5t-85 -16t-85 16t-69.5 43.5t-46.5 65t-17 79.5zM132 125q0 -26 10 -48.5
t27 -39t39.5 -26t48.5 -9.5t48.5 9.5t39.5 26t27 39t10 48.5t-10 48.5t-27 39.5t-39.5 26.5t-48.5 9.5t-48.5 -9.5t-39.5 -26.5t-27 -39.5t-10 -48.5z" />
    <glyph glyph-name="cid222" unicode="&#x2660;" 
d="M358 -8q-26 0 -34.5 6t-8.5 20q0 6 5 16.5t11.5 21.5t13.5 22t10 19q12 29 18 58q-50 -33 -102 -33q-27 0 -52.5 10t-45.5 29.5t-32.5 47.5t-12.5 64q0 38 14.5 80t57.5 95l270 329l270 -329q43 -53 57.5 -94.5t14.5 -80.5q0 -36 -12.5 -64t-32.5 -47.5t-45.5 -29.5
t-52.5 -10q-53 0 -102 33q6 -29 18 -58q3 -8 10 -19t13.5 -22t11.5 -21.5t5 -16.5q0 -14 -8.5 -20t-34.5 -6h-224z" />
    <glyph glyph-name="cid223" unicode="&#x2661;" 
d="M470 -6l-244 277q-24 27 -45.5 56t-38 60.5t-26.5 66t-10 70.5q0 101 50.5 155.5t143.5 54.5q31 0 58 -12t48.5 -33t37.5 -49t26 -60q6 30 21.5 58t38 49.5t50.5 34t60 12.5q88 0 140.5 -52t52.5 -158q0 -38 -10 -72t-26.5 -65.5t-38 -60.5t-44.5 -55zM470 504
q-14 0 -24 10t-17 34q-20 65 -53 100.5t-78 35.5q-62 0 -99 -44.5t-37 -118.5q0 -59 28.5 -109.5t78.5 -107.5l201 -233l200 233q49 57 78.5 108t29.5 110q0 75 -39 118.5t-98 43.5q-47 0 -78.5 -36.5t-51.5 -99.5q-9 -27 -19.5 -35.5t-21.5 -8.5z" />
    <glyph glyph-name="cid226" unicode="&#x2663;" 
d="M470 771q94 0 143.5 -47t49.5 -125q0 -54 -24 -95t-58 -72q32 20 58.5 28t54.5 8q30 0 60 -10t54 -31t38.5 -54t14.5 -78q0 -47 -15.5 -80.5t-39.5 -55t-53.5 -31.5t-58.5 -10q-37 0 -68.5 14t-57.5 40q2 -16 4.5 -34t7.5 -36q3 -12 8 -24.5t10 -24t8.5 -20.5t3.5 -14
q0 -27 -35 -27h-210q-23 0 -29 8.5t-6 18.5q0 12 12 35.5t18 47.5q9 38 12 70q-28 -28 -60 -41t-66 -13q-39 0 -69.5 13.5t-52.5 37t-33.5 56t-11.5 70.5q0 36 11 67.5t32 55t52 37t72 13.5q28 0 54 -8t59 -28q-35 30 -58.5 73t-23.5 94q0 76 48.5 124t144.5 48z" />
    <glyph glyph-name="cid221" unicode="&#x2664;" 
d="M555 41q-8 12 -15.5 28.5t-13.5 35t-9.5 36.5t-3.5 32q0 16 7 26.5t27 10.5q7 0 21 -6t31 -13t36 -13t38 -6q38 0 61 27t23 75q0 34 -14.5 71.5t-51.5 82.5l-221 269l-222 -269q-37 -45 -51 -83.5t-14 -70.5q0 -51 22.5 -76.5t61.5 -25.5q17 0 35.5 6t35.5 13t31 13t23 6
q35 0 35 -37q0 -20 -4.5 -39.5t-11 -36.5t-14 -31.5t-12.5 -24.5h170zM358 -8q-26 0 -34.5 6t-8.5 20q0 6 5 16.5t11.5 21.5t13.5 22t10 19q12 29 18 58q-25 -17 -53 -25t-54 -8q-27 0 -51.5 10t-44 29.5t-31 47.5t-11.5 64q0 38 14.5 80t57.5 95l270 329l270 -329
q43 -53 57.5 -94.5t14.5 -80.5q0 -36 -11.5 -64t-31 -47.5t-44 -29.5t-51.5 -10q-26 0 -54 8t-53 25q6 -29 18 -58q3 -8 10 -19t13.5 -22t11.5 -21.5t5 -16.5q0 -14 -8.5 -20t-34.5 -6h-224z" />
    <glyph glyph-name="cid224" unicode="&#x2665;" 
d="M470 -6l-244 277q-23 26 -44.5 55t-38 60.5t-26 66t-9.5 71.5q0 101 51 155.5t145 54.5q31 0 57 -11t47 -30t36.5 -45.5t25.5 -57.5q6 28 20.5 54t36.5 46t49.5 32t59.5 12q89 0 142.5 -52.5t53.5 -157.5q0 -41 -11.5 -78t-29 -69t-38.5 -58.5t-39 -47.5z" />
    <glyph glyph-name="cid225" unicode="&#x2667;" 
d="M548 41q-7 15 -12.5 32.5t-9 35.5t-5.5 34.5t-2 30.5q0 23 8.5 37t27.5 14q11 0 22.5 -5t23.5 -12.5t23.5 -15t22.5 -12.5q22 -11 54 -11q21 0 40.5 7.5t33.5 22.5t22.5 38.5t8.5 55.5q0 25 -7 47.5t-20.5 39.5t-33 27.5t-44.5 10.5q-21 0 -36 -3t-28 -8t-26 -10.5
t-31 -11.5q-9 -4 -17 -4q-40 0 -40 39q0 15 13.5 27t29 30.5t29 47.5t13.5 79q0 24 -10 45t-28 37t-43.5 25.5t-56.5 9.5t-56.5 -9.5t-43.5 -25.5t-28 -37t-10 -45q0 -50 13.5 -79t29.5 -47.5t29.5 -30.5t13.5 -27q0 -19 -11 -29t-30 -10q-7 0 -16 4q-18 6 -31 11.5
t-26.5 10.5t-28 8t-35.5 3q-25 0 -44.5 -10.5t-33 -27.5t-21 -39.5t-7.5 -47.5q0 -32 8.5 -55.5t23 -38.5t34 -22.5t40.5 -7.5q31 0 54 11q10 5 21.5 12.5t23.5 15t23.5 12.5t22.5 5q19 0 27.5 -14t8.5 -37q0 -14 -2 -30.5t-6 -34.5t-9 -35.5t-12 -32.5h156zM470 771
q46 0 82 -13t61 -35.5t37.5 -53.5t12.5 -68q0 -54 -24 -96t-58 -73q32 20 60.5 28t54.5 8q33 0 62.5 -10t52.5 -31t36.5 -54t13.5 -78q0 -47 -14.5 -80.5t-37.5 -55t-52 -31.5t-58 -10q-37 0 -71 15t-60 41q2 -16 4.5 -35t7.5 -37q3 -12 8 -24.5t10 -24t8.5 -20.5t3.5 -14
q0 -27 -35 -27h-210q-23 0 -29 8.5t-6 18.5q0 12 12 35.5t18 47.5q9 37 12 72q-28 -28 -62.5 -42t-68.5 -14q-39 0 -69 13.5t-50.5 37t-31.5 56t-11 70.5q0 36 10.5 67.5t31.5 55t51.5 37t70.5 13.5q26 0 54.5 -8t61.5 -28q-35 30 -58.5 74t-23.5 95q0 36 12.5 67.5t36.5 54
t60 35.5t84 13z" />
    <glyph glyph-name="cid239" unicode="&#x2668;" 
d="M470 -44q-194 0 -298.5 51t-104.5 145q0 65 42 108t145 62v-17q-61 -21 -86 -50t-25 -74q0 -53 79 -87.5t248 -34.5q166 0 246.5 34t80.5 88q0 46 -25.5 74t-85.5 50v17q100 -18 143.5 -60.5t43.5 -109.5q0 -47 -27.5 -83.5t-79 -61.5t-126.5 -38t-170 -13zM374 499
q0 24 9 41t20 34t20 37t9 50q0 27 2.5 37.5t8.5 10.5q10 0 16.5 -12t10.5 -28t5.5 -31.5t1.5 -22.5q0 -18 -3 -32t-6.5 -26t-6.5 -24t-3 -25q0 -18 11 -41t24.5 -48t24.5 -49.5t11 -45.5q0 -24 -9 -42t-20.5 -35t-20.5 -35.5t-9 -43.5q0 -22 -2 -38t-11 -16q-8 0 -14 10
t-9.5 24t-5.5 30t-2 28q0 29 9.5 56.5t9.5 52.5q0 23 -11 44.5t-24.5 43.5t-24.5 45.5t-11 50.5zM228 501q0 24 9 43.5t19.5 36.5t19.5 34.5t9 38.5q0 15 2.5 20t5.5 5q8 0 19.5 -18.5t11.5 -56.5q0 -12 -4 -23.5t-8.5 -22.5t-8 -23.5t-3.5 -25.5q0 -22 12 -45.5t27 -46
t27 -44t12 -39.5q0 -23 -7 -42t-16 -37.5t-16 -38.5t-7 -46q0 -16 -3 -21.5t-7 -5.5q-9 0 -20 18.5t-11 53.5q0 10 2 23.5l4 27t4 26t2 21.5q0 21 -11.5 42.5t-26 44t-26 47.5t-11.5 54zM533 483q0 23 9 41t20 35t20 35.5t9 42.5q0 43 15 43q11 0 19 -22t8 -49q0 -20 -4 -35
t-8.5 -28.5t-8.5 -27t-4 -28.5q0 -13 8.5 -32.5t18 -41t18 -42t8.5 -36.5q0 -29 -8 -51t-18.5 -39t-20.5 -31t-14 -27q-2 -7 -3 -15.5t-2.5 -15.5t-3.5 -11.5t-6 -4.5q-6 0 -10.5 7.5t-7 18.5t-4 23t-1.5 22q0 14 3.5 27t8 26.5t8 28t3.5 29.5q0 21 -8 41.5t-18 40.5t-18 39
t-8 37z" />
    <glyph glyph-name="cid253" unicode="&#x2669;" 
d="M579 142q0 -55 -15 -94t-38.5 -63.5t-52 -35.5t-55.5 -11q-29 0 -43.5 18t-14.5 44q0 25 11.5 49.5t33 45t52.5 36t70 21.5v612h52v-622z" />
    <glyph glyph-name="cid254" unicode="&#x266a;" 
d="M452 142q0 -55 -15 -94t-38.5 -63.5t-52 -35.5t-55.5 -11q-29 0 -43.5 18t-14.5 44q0 25 11.5 49.5t33 45t52.5 36t70 21.5v600q0 8 5 14.5t13 6.5q4 0 14 -10t24 -26t32.5 -34.5t40.5 -36.5q43 -36 76.5 -67t55.5 -60t33.5 -57.5t11.5 -58.5q0 -46 -19.5 -92
t-46.5 -82.5t-56 -59.5t-48 -23q-12 0 -12 12t17 31t37.5 45.5t37.5 62t17 81.5q0 31 -15.5 55.5t-41 42t-58 28t-66.5 14.5v-396z" />
    <glyph glyph-name="cid255" unicode="&#x266c;" 
d="M738 225q0 -61 -16.5 -100.5t-41 -62.5t-52.5 -32t-51 -9q-29 0 -43.5 17.5t-14.5 44.5q0 25 11.5 49.5t33 45t52.5 36t70 21.5v227l-366 -78v-242q0 -55 -15 -94t-38.5 -63.5t-52 -35.5t-55.5 -11q-29 0 -43.5 18t-14.5 44q0 25 11.5 49.5t33 45t52.5 36t70 21.5v548
l470 96v-571zM320 499l366 78v94l-366 -77v-95z" />
    <glyph glyph-name="cid252" unicode="&#x266d;" 
d="M661 303q0 -80 -28.5 -145t-78.5 -111t-117.5 -71t-145.5 -26v812h85v-399q12 18 29.5 34t37.5 28t41 19t41 7q63 0 99.5 -40.5t36.5 -107.5zM565 269q0 44 -18.5 73t-52.5 29q-35 0 -68 -27t-53 -82v-234q39 10 74 32.5t61 54t41.5 71t15.5 83.5z" />
    <glyph glyph-name="cid101" unicode="&#x3000;" 
 />
    <glyph glyph-name="cid101" unicode="&#x3164;" 
 />
    <glyph glyph-name="cid102" unicode="&#x3001;" 
d="M314 5v-97l-234 93v67z" />
    <glyph glyph-name="cid103" unicode="&#x3002;" 
d="M241 -20q0 20 -13 33.5t-33 13.5q-23 0 -34.5 -14.5t-11.5 -32.5q0 -17 11.5 -32t34.5 -15q20 0 33 13.5t13 33.5zM300 -20q0 -42 -28.5 -71t-76.5 -29q-51 0 -78 29.5t-27 70.5q0 40 27 70t78 30q48 0 76.5 -29t28.5 -71z" />
    <glyph glyph-name="cid108" unicode="&#x3003;" 
d="M360 477h106l-136 -362h-77zM543 477h107l-137 -362h-76z" />
    <glyph glyph-name="cid120" unicode="&#x3008;" horiz-adv-x="500" 
d="M462 -121h-90l-293 481l293 482h90l-289 -482z" />
    <glyph glyph-name="cid121" unicode="&#x3009;" horiz-adv-x="500" 
d="M324 350l-287 482h89l293 -482l-293 -471h-89z" />
    <glyph glyph-name="cid122" unicode="&#x300a;" horiz-adv-x="660" 
d="M641 -122h-91l-291 482l291 482h91l-289 -482zM442 -122h-91l-293 482l293 482h91l-289 -482z" />
    <glyph glyph-name="cid123" unicode="&#x300b;" horiz-adv-x="660" 
d="M304 360l-288 482h91l292 -482l-292 -482h-91zM504 360l-288 482h90l293 -482l-287 -482h-96z" />
    <glyph glyph-name="cid124" unicode="&#x300c;" horiz-adv-x="420" 
d="M137 422v420h243v-70h-161v-350h-82z" />
    <glyph glyph-name="cid125" unicode="&#x300d;" horiz-adv-x="420" 
d="M279 296v-415h-241v69h160v346h81z" />
    <glyph glyph-name="cid126" unicode="&#x300e;" horiz-adv-x="550" 
d="M354 300h-219v536h375v-186h-156v-350zM278 716h156v55h-224v-405h68v350z" />
    <glyph glyph-name="cid127" unicode="&#x300f;" horiz-adv-x="550" 
d="M194 420h219v-536h-375v185h156v351zM269 4h-155v-55h223v405h-68v-350z" />
    <glyph glyph-name="cid128" unicode="&#x3010;" horiz-adv-x="450" 
d="M197 360q0 -72 14 -143.5t40 -135.5t62.5 -117t81.5 -89h-268v970h268q-48 -40 -85 -96.5t-62 -121.5t-38 -134t-13 -133z" />
    <glyph glyph-name="cid129" unicode="&#x3011;" horiz-adv-x="450" 
d="M250 360q0 65 -13 134.5t-38 134t-62 121t-84 95.5h268v-970h-269q46 37 83 91t62.5 118t39 135t13.5 141z" />
    <glyph glyph-name="cid175" unicode="&#x3013;" horiz-adv-x="633" 
d="M65 428v97h503v-97h-503zM568 302v-97h-503v97h503z" />
    <glyph glyph-name="cid118" unicode="&#x3014;" horiz-adv-x="350" 
d="M175 6q7 -4 26.5 -14t41 -20.5t41 -20t27.5 -13.5v-74l-214 103v786l214 103v-75l-136 -68v-707z" />
    <glyph glyph-name="cid119" unicode="&#x3015;" horiz-adv-x="350" 
d="M175 714l-137 67v74l213 -102v-786l-213 -103v75l137 68v707z" />
    <glyph glyph-name="cid851" unicode="&#x3041;" 
d="M428 307q1 -36 3 -71.5t7 -68.5q19 29 36.5 66t32.5 82q-20 0 -39.5 -2t-39.5 -6zM359 85q-11 45 -17 92t-8 95q-46 -25 -76 -63t-30 -88q0 -32 15 -48.5t39 -16.5q17 0 36.5 7t40.5 22zM331 473h-164v83h164v86h96v-86h309v-83h-309v-82q19 2 40.5 5t36.5 2l26 -1
q5 18 8 35l90 -18l-4 -16l-4 -16q87 -25 134.5 -82t47.5 -126q0 -57 -24.5 -98.5t-66.5 -69.5t-97.5 -44t-116.5 -20q-7 20 -13 41t-12 41q50 3 93 12.5t74 27.5t48.5 45t17.5 66q0 41 -26.5 75t-82.5 51q-29 -85 -67 -147t-81 -102t-87.5 -59.5t-84.5 -19.5q-32 0 -58 10.5
t-44.5 29.5t-29 45.5t-10.5 58.5q0 42 15 79t41.5 68.5t62.5 56.5t78 43v109z" />
    <glyph glyph-name="cid852" unicode="&#x3042;" 
d="M347 106q-14 55 -20 116t-9 124q-30 -15 -57 -34.5t-46.5 -44t-31 -54t-11.5 -62.5q0 -42 21 -63.5t53 -21.5q48 0 101 40zM315 577h-200v87h200v104h100v-104h371v-87h-371v-107q48 9 95 9q10 0 20 -0.5t20 -0.5q2 9 3.5 18.5t5.5 20.5l96 -19l-9 -37q99 -28 158.5 -93
t59.5 -156q0 -65 -29 -113.5t-78 -81.5t-114 -51.5t-137 -23.5l-26 84q58 3 110 14.5t91 33.5t61.5 56.5t22.5 83.5q0 62 -39 103t-105 60q-34 -101 -78.5 -175.5t-94.5 -124t-103.5 -74t-104.5 -24.5q-37 0 -67 12.5t-51.5 34.5t-33.5 53t-12 67q0 51 18.5 95.5t50.5 82
t76 67t94 50.5v136zM416 380q1 -50 3.5 -97t9.5 -91q27 38 52 87.5t45 111.5q-4 0 -7.5 0.5t-7.5 0.5q-23 0 -47 -3.5t-48 -8.5z" />
    <glyph glyph-name="cid853" unicode="&#x3043;" 
d="M489 184q-9 -62 -23.5 -104t-33.5 -68t-42.5 -37.5t-49.5 -11.5q-36 0 -69 22t-57.5 67t-39 113.5t-14.5 161.5q0 72 4 132t15 115h98q-12 -59 -16.5 -122t-4.5 -123q0 -78 8.5 -131.5t21 -87t27.5 -48.5t28 -15q19 0 35 39t25 132zM710 102q-1 113 -34 217.5t-81 206.5
l92 25q25 -53 46.5 -104t37.5 -103.5t25.5 -108.5t10.5 -117z" />
    <glyph glyph-name="cid854" unicode="&#x3044;" 
d="M485 234q-10 -72 -27 -121.5t-39 -79.5t-48.5 -43t-56.5 -13q-44 0 -82 26t-66.5 79.5t-45 134t-16.5 190.5q0 84 5.5 154t17.5 136h101q-13 -66 -18.5 -140t-5.5 -148q0 -96 11.5 -162t28.5 -106.5t36 -58t35 -17.5q26 0 46.5 47.5t33.5 157.5zM767 144q0 64 -10.5 128
t-29 126.5t-43.5 124t-54 120.5l96 27q29 -62 54.5 -122.5t44.5 -122.5t30.5 -127t11.5 -136z" />
    <glyph glyph-name="cid855" unicode="&#x3045;" 
d="M664 506q-88 8 -180 22t-181 33l12 80q89 -18 183.5 -32.5t182.5 -25.5zM312 25q73 9 136.5 27t111 45.5t74.5 65.5t27 87q0 59 -34 87.5t-94 28.5q-35 0 -74 -5.5t-79 -15.5t-80.5 -22.5t-77.5 -27.5l-26 85q39 14 81.5 27t86.5 22.5t87.5 15.5t83.5 6q106 0 164 -50.5
t58 -150.5q0 -76 -37.5 -130t-96 -90t-130.5 -56.5t-141 -29.5z" />
    <glyph glyph-name="cid856" unicode="&#x3046;" 
d="M673 619q-103 11 -210.5 27t-210.5 38l12 86q106 -21 214 -38t214 -29zM265 34q87 9 163.5 31.5t133 57t89.5 81t33 104.5q0 73 -44 110.5t-119 37.5q-42 0 -89 -6.5t-95 -17.5t-95.5 -26t-91.5 -32l-26 87q46 17 96 32t101.5 26.5t102.5 18t99 6.5q126 0 193 -59.5
t67 -175.5q0 -89 -43.5 -153t-112.5 -107t-154 -67.5t-167 -34.5z" />
    <glyph glyph-name="cid857" unicode="&#x3047;" 
d="M629 100q2 -18 6 -30.5t13 -20t23.5 -10.5t38.5 -3q26 0 49 2.5t52 10.5l5 -84q-24 -6 -56 -9t-59 -3q-83 0 -121.5 28.5t-45.5 102.5l-3 33q-2 23 -11.5 38t-31.5 15q-23 0 -42.5 -12t-50.5 -43q-41 -41 -82 -83t-81 -84l-75 63q93 94 188 187t187 175h-320v84h459v-77
q-39 -37 -77 -71.5t-73 -68.5q10 3 23 3q33 0 54.5 -27t26.5 -78zM306 650q84 -15 167 -27.5t168 -18.5l-5 -80q-90 4 -176.5 15.5t-167.5 30.5z" />
    <glyph glyph-name="cid858" unicode="&#x3048;" 
d="M648 123q2 -25 7.5 -41t16.5 -25.5t30 -13.5t48 -4q28 0 56 2.5t61 11.5l6 -88q-13 -3 -29.5 -5.5t-34.5 -4t-36 -2.5t-34 -1q-48 0 -81.5 7t-55.5 24t-34 45.5t-17 71.5l-5 42q-5 36 -19 54.5t-42 18.5t-50 -13.5t-56 -46.5q-53 -51 -102.5 -102.5t-100.5 -104.5l-78 64
q110 112 227 228t229 217h-394v88h540v-82q-100 -90 -194 -182q11 3 22 5.5t23 2.5q18 0 33.5 -6t27.5 -20.5t20.5 -38t11.5 -59.5zM271 776q100 -19 198 -33.5t193 -20.5l-4 -88q-103 6 -204 19t-198 35z" />
    <glyph glyph-name="cid859" unicode="&#x3049;" 
d="M772 373q-39 53 -82 95.5t-91 80.5l60 58q49 -38 94.5 -81t87.5 -95zM527 350q57 0 102.5 -15t77 -40.5t48.5 -60.5t17 -77q0 -49 -20 -85t-55 -62t-82 -42t-101 -25l-29 84q35 3 69 12.5t61 25t44 37.5t17 51q0 53 -39.5 83t-111.5 30q-29 0 -55.5 -3t-51.5 -8v-186
q0 -68 -28.5 -96.5t-85.5 -28.5q-33 0 -64 10.5t-55 31t-38 49t-14 64.5q0 63 50 121t139 93v131h-156v84h156v114h96v-114h159v-84h-159v-104q24 5 51.5 7.5t57.5 2.5zM322 221q-44 -23 -70 -53.5t-26 -68.5q0 -33 19.5 -53t48.5 -20q14 0 21 9.5t7 39.5v146z" />
    <glyph glyph-name="cid860" unicode="&#x304a;" 
d="M848 453q-50 55 -104.5 100.5t-114.5 84.5l58 66q60 -38 117 -83.5t110 -102.5zM543 418q68 0 122 -17t91 -48t56.5 -73t19.5 -92q0 -56 -23.5 -98t-64.5 -72t-95.5 -48.5t-117.5 -27.5l-31 86q43 4 84.5 15t74.5 30t53.5 46.5t20.5 65.5q0 66 -49 106t-145 40
q-38 0 -72.5 -4.5t-64.5 -12.5v-227q0 -78 -30 -111.5t-95 -33.5q-38 0 -74 12.5t-64 36.5t-45 58t-17 77q0 34 15 69t44 68t71 62t95 51v166h-185v87h185v139h100v-139h195v-87h-195v-138q65 14 141 14zM302 278q-59 -30 -92 -70.5t-33 -81.5q0 -45 25.5 -70.5t63.5 -25.5
q18 0 27 12.5t9 50.5v185z" />
    <glyph glyph-name="cid861" unicode="&#x304b;" 
d="M81 584h185q6 44 11 90t8 94h98q-3 -48 -8 -93.5t-11 -90.5h69q59 0 100.5 -11t67 -33.5t37 -57t11.5 -81.5q0 -132 -11.5 -217.5t-35 -136t-60 -70t-86.5 -19.5q-34 0 -70 5t-63 14l4 89q66 -21 119 -21q25 0 44 15t32 54.5t20 108t7 174.5q0 56 -28.5 77.5t-102.5 21.5
h-68q-27 -146 -73 -279t-118 -258q-23 9 -46.5 18.5t-46.5 19.5q71 117 115.5 240.5t70.5 258.5h-171v88zM824 265q-41 197 -150 357l84 40q57 -85 96.5 -176.5t63.5 -189.5z" />
    <glyph glyph-name="cid862" unicode="&#x304c;" 
d="M661 565q21 9 42 18.5t43 18.5q42 -72 73 -148.5t49 -157.5l-93 -31q-17 81 -45.5 156t-68.5 144zM729 786q10 -15 22 -35t23.5 -41t21.5 -40.5t16 -34.5l-63 -25q-6 15 -16 35t-21.5 41t-23 40.5t-21.5 33.5zM844 826q10 -15 22 -35t23.5 -41t21.5 -40.5t16 -34.5
l-63 -25q-6 15 -16 35t-21.5 41t-23 40.5t-21.5 33.5zM73 584h185q6 44 11 90t8 94h98q-3 -48 -8 -93.5t-11 -90.5h69q59 0 100.5 -11t67 -33.5t37 -57t11.5 -81.5q0 -132 -11 -217.5t-34.5 -135.5t-60 -70t-87.5 -20q-34 0 -70 5t-63 14l4 89q65 -22 119 -22q25 0 44.5 16
t32.5 56.5t19.5 108.5t6.5 172q0 27 -6 46t-20.5 30.5t-40 17t-64.5 5.5h-68q-27 -146 -73 -279t-118 -258l-93 38q71 117 115.5 240.5t70.5 258.5h-171v88z" />
    <glyph glyph-name="cid863" unicode="&#x304d;" 
d="M496 775q5 -29 11 -57.5t13 -55.5q60 3 116.5 8t105.5 13l8 -89q-45 -6 -97.5 -10.5t-108.5 -7.5q8 -26 16.5 -51t19.5 -48q63 5 122.5 11.5t114.5 17.5l10 -86q-48 -10 -101 -16t-108 -11q26 -51 54 -94t61 -77l-81 -58q-39 41 -74.5 97t-65.5 124q-50 -3 -97.5 -4
t-93.5 -1h-180v87h181q38 0 76.5 0.5t77.5 3.5q-10 24 -18 49.5t-16 51.5q-31 -2 -61 -2h-59h-176v88h178h47t48 1q-6 26 -11.5 52t-9.5 53zM315 243q-29 -20 -48 -47.5t-19 -60.5q0 -54 54.5 -79.5t154.5 -25.5q37 0 76.5 2t76.5 6t71 10.5t61 14.5v-90q-60 -14 -133 -21.5
t-144 -7.5q-74 0 -132.5 10.5t-100 33t-63.5 57t-22 83.5q0 57 31.5 102t79.5 74z" />
    <glyph glyph-name="cid864" unicode="&#x304e;" 
d="M456 775q9 -56 24 -113q54 3 105 7t95 11l9 -88q-41 -6 -87.5 -10t-97.5 -6q8 -26 16.5 -51t19.5 -48q63 5 122.5 11.5t114.5 17.5l10 -86q-48 -10 -101 -16t-108 -11q26 -51 54 -94t61 -77l-81 -58q-39 41 -74.5 97t-65.5 124q-50 -3 -97.5 -4t-93.5 -1h-180v87h181
q38 0 76.5 0.5t77.5 3.5q-10 24 -18 49.5t-16 51.5q-32 -2 -61.5 -2h-58.5h-176v87h178q23 0 47 0.5t48 1.5q-6 26 -11.5 52t-9.5 53zM275 243q-29 -20 -48 -47.5t-19 -60.5q0 -54 54.5 -79.5t154.5 -25.5q37 0 76 2t76.5 6.5t71.5 10.5t61 14v-90q-60 -14 -133 -21.5
t-144 -7.5q-74 0 -132.5 10.5t-100 33t-63.5 57.5t-22 83q0 57 31.5 102t79.5 74zM717 785q10 -14 22 -34t24 -41t22.5 -41t17.5 -35l-63 -25q-7 15 -17 35.5t-21.5 41t-24 40t-22.5 33.5zM825 821q10 -15 22 -34.5t24.5 -40.5t23 -41t17.5 -35l-64 -25q-6 15 -16 35t-22 41
t-24 40.5t-22 33.5z" />
    <glyph glyph-name="cid865" unicode="&#x304f;" 
d="M614 -68q-82 97 -177.5 183.5t-192.5 161.5q-36 28 -50 50.5t-14 51.5q0 22 22.5 53.5t75.5 68.5q42 29 86 62t87.5 69t85.5 74t78 77l71 -72q-78 -75 -172 -148q-34 -27 -74 -55.5t-74 -54t-57 -46.5t-23 -31q0 -14 9 -24.5t38 -32.5l27 -21q82 -64 164.5 -137.5
t162.5 -158.5z" />
    <glyph glyph-name="cid866" unicode="&#x3050;" 
d="M614 -69q-82 97 -177.5 184t-192.5 162q-36 28 -50 50.5t-14 51.5q0 23 22.5 54t75.5 68q42 29 86 62t87.5 69t85.5 74t78 77l71 -72q-57 -55 -126 -109.5t-134 -102.5q-24 -18 -49 -37.5t-45 -36.5t-33 -30t-13 -19q0 -14 9 -24.5t38 -32.5q89 -68 178 -147t176 -170z
M633 529q10 -14 23 -36t26 -45.5t24 -46t17 -37.5l-67 -25q-6 15 -17 37.5t-23.5 45.5t-25 45t-22.5 36zM750 570q10 -14 23 -36t26 -45.5t24 -46t17 -37.5l-64 -25q-6 15 -17 37.5t-24 46t-25.5 45t-22.5 36.5z" />
    <glyph glyph-name="cid867" unicode="&#x3051;" 
d="M882 578v-88h-154v-194q0 -126 -53.5 -211.5t-161.5 -143.5l-68 75q85 45 134.5 112.5t49.5 169.5v192h-320v88h320v190h99v-190h154zM251 768q-25 -98 -37 -225t-12 -267q0 -82 5 -165t14 -162h-100q-9 79 -13.5 162t-4.5 165q0 140 12 267t37 225h99z" />
    <glyph glyph-name="cid868" unicode="&#x3052;" 
d="M226 768q-25 -98 -37 -225t-12 -267q0 -82 5 -165t14 -162h-100q-9 79 -13.5 162t-4.5 165q0 140 12 267t37 225h99zM751 786q10 -14 21.5 -33.5t23 -40t21 -40.5t15.5 -35l-65 -26q-6 15 -16 35t-21 40.5t-22 39.5t-21 33zM862 823q10 -15 21.5 -34.5t23 -40t21.5 -40
t16 -34.5l-66 -26q-6 15 -16 35t-21 40t-22 39.5t-21 33.5zM782 578v-88h-154v-194q0 -126 -53.5 -211.5t-161.5 -143.5l-68 75q85 45 134.5 112.5t49.5 169.5v192h-250v88h250v190h99v-190h154z" />
    <glyph glyph-name="cid869" unicode="&#x3053;" 
d="M755 674v-88h-578v88h578zM810 1q-32 -8 -71.5 -13.5t-82 -9t-85.5 -5.5t-83 -2q-103 0 -172 11.5t-111 34.5t-59.5 57t-17.5 80q0 45 21.5 90.5t63.5 92.5l76 -46q-29 -32 -45 -69t-16 -66q0 -22 12 -40t41.5 -31t79.5 -20t127 -7q37 0 78 2t82.5 5.5t81.5 9.5t75 14z
" />
    </font>
</defs>
</svg>
